<?xml version="1.0" encoding="UTF-8"?>
<svg xmlns="http://www.w3.org/2000/svg" xmlns:xlink="http://www.w3.org/1999/xlink" width="55pt" height="38pt" viewBox="0 0 55 38" version="1.1">
<g id="surface1">
<path style=" stroke:none;fill-rule:nonzero;fill:rgb(0.392157%,0.392157%,0.392157%);fill-opacity:1;" d="M 1.292969 9.054688 L 12.847656 0 L 55 4.039062 L 51.808594 38.003906 L 9.585938 34.039062 L 0 22.792969 Z M 1.292969 9.054688 "/>
<path style=" stroke:none;fill-rule:evenodd;fill:rgb(96.470588%,92.156863%,8.627451%);fill-opacity:1;" d="M 1.988281 9.40625 L 13.121094 0.769531 L 54.230469 4.730469 L 51.183594 37.230469 L 9.9375 33.273438 L 0.699219 22.519531 Z M 1.988281 9.40625 "/>
<path style=" stroke:none;fill-rule:evenodd;fill:rgb(0.392157%,0.392157%,0.392157%);fill-opacity:1;" d="M 21.007812 7.871094 L 30.335938 8.765625 L 30.070312 11.570312 L 25.867188 11.167969 L 25.78125 12.070312 L 29.613281 12.4375 L 29.367188 15.007812 L 25.558594 14.644531 L 25.460938 15.664062 L 29.757812 16.074219 L 29.503906 18.738281 L 20.105469 17.835938 Z M 21.007812 7.871094 "/>
<path style=" stroke:none;fill-rule:evenodd;fill:rgb(0.392157%,0.392157%,0.392157%);fill-opacity:1;" d="M 31.730469 15.445312 L 29.964844 18.054688 C 29.964844 18.054688 32.179688 19.25 35.257812 19.519531 C 38.328125 19.792969 40.582031 18.910156 41.304688 17.433594 C 42.027344 15.964844 41.160156 14.289062 39.738281 13.828125 C 38.3125 13.363281 35.84375 12.871094 36.101562 12.378906 C 36.355469 11.890625 37.90625 11.992188 38.847656 12.386719 C 39.792969 12.78125 40.046875 13.015625 40.046875 13.015625 L 41.667969 10.695312 C 41.667969 10.695312 39.945312 9.429688 36.726562 9.238281 C 33.503906 9.046875 31.132812 10.664062 30.96875 12.167969 C 30.804688 13.671875 31.765625 14.558594 33.230469 15.097656 C 33.230469 15.097656 34.472656 15.496094 35.410156 15.703125 C 36.347656 15.910156 36.941406 16.527344 35.824219 16.75 C 34.707031 16.96875 32.40625 16.140625 31.730469 15.445312 Z M 31.730469 15.445312 "/>
<path style=" stroke:none;fill-rule:evenodd;fill:rgb(0.392157%,0.392157%,0.392157%);fill-opacity:1;" d="M 44.554688 13.421875 L 41.804688 13.160156 L 42.113281 9.917969 L 52.691406 10.929688 L 52.382812 14.175781 L 49.636719 13.910156 L 48.996094 20.648438 L 43.980469 20.167969 Z M 44.554688 13.421875 "/>
<path style=" stroke:none;fill-rule:evenodd;fill:rgb(0.392157%,0.392157%,0.392157%);fill-opacity:1;" d="M 21.785156 19.261719 L 26.640625 19.699219 L 26.125 25.355469 C 26.125 25.355469 25.644531 26.710938 27.261719 26.867188 C 28.878906 27.019531 28.808594 25.5625 28.808594 25.5625 L 29.339844 19.980469 L 34.210938 20.449219 L 33.585938 27.027344 C 33.585938 27.027344 33.011719 30.617188 27.050781 30.046875 C 21.09375 29.476562 21.171875 25.699219 21.171875 25.699219 Z M 21.785156 19.261719 "/>
<path style=" stroke:none;fill-rule:evenodd;fill:rgb(0.392157%,0.392157%,0.392157%);fill-opacity:1;" d="M 39.800781 20.984375 L 41.195312 23.734375 L 42.988281 21.292969 L 48.648438 21.832031 L 43.371094 27.074219 L 42.960938 31.359375 L 37.996094 30.886719 L 38.398438 26.671875 L 34.164062 20.46875 Z M 39.800781 20.984375 "/>
<path style=" stroke:none;fill-rule:evenodd;fill:rgb(0.392157%,0.392157%,0.392157%);fill-opacity:1;" d="M 18.652344 23.871094 C 18.652344 23.871094 20.695312 23.46875 20.644531 21.375 C 20.589844 19.28125 16.421875 18.761719 16.421875 18.761719 L 9.535156 18.074219 L 8.59375 28.074219 C 8.59375 28.074219 14.089844 28.652344 15.691406 28.78125 C 17.292969 28.910156 20.515625 28.773438 20.835938 26.707031 C 21.152344 24.636719 18.652344 23.871094 18.652344 23.871094 Z M 13.953125 21.011719 C 13.953125 21.011719 16.066406 20.816406 15.949219 21.808594 C 15.832031 22.800781 13.824219 22.351562 13.824219 22.351562 Z M 13.511719 26.109375 L 13.621094 24.484375 C 13.621094 24.484375 16.265625 24.386719 16.179688 25.523438 C 16.09375 26.664062 13.511719 26.109375 13.511719 26.109375 Z M 13.511719 26.109375 "/>
<path style=" stroke:none;fill-rule:nonzero;fill:rgb(0.392157%,0.392157%,0.392157%);fill-opacity:1;" d="M 17.648438 12.417969 C 17.648438 12.417969 19.691406 12.015625 19.640625 9.921875 C 19.585938 7.828125 15.414062 7.304688 15.414062 7.304688 L 8.527344 6.621094 L 7.589844 16.617188 C 7.589844 16.617188 13.085938 17.195312 14.683594 17.324219 C 16.285156 17.457031 19.507812 17.316406 19.828125 15.25 C 20.144531 13.179688 17.648438 12.417969 17.648438 12.417969 Z M 12.988281 9.582031 C 12.988281 9.582031 15.105469 9.386719 14.988281 10.378906 C 14.871094 11.375 12.859375 10.925781 12.859375 10.925781 Z M 12.550781 14.683594 L 12.660156 13.054688 C 12.660156 13.054688 15.300781 12.960938 15.21875 14.097656 C 15.132812 15.234375 12.550781 14.683594 12.550781 14.683594 Z M 12.550781 14.683594 "/>
<path style=" stroke:none;fill-rule:nonzero;fill:rgb(0.392157%,0.392157%,0.392157%);fill-opacity:1;" d="M 6.121094 16.703125 C 6.023438 17.734375 5.109375 18.488281 4.082031 18.394531 C 3.054688 18.292969 2.300781 17.378906 2.398438 16.34375 C 2.496094 15.316406 3.410156 14.558594 4.4375 14.65625 C 5.46875 14.753906 6.21875 15.671875 6.121094 16.703125 Z M 6.121094 16.703125 "/>
<path style=" stroke:none;fill-rule:nonzero;fill:rgb(100%,100%,100%);fill-opacity:1;" d="M 5.4375 16.636719 C 5.375 17.289062 4.800781 17.765625 4.148438 17.707031 C 3.496094 17.644531 3.019531 17.0625 3.082031 16.410156 C 3.144531 15.757812 3.722656 15.28125 4.375 15.34375 C 5.023438 15.40625 5.5 15.984375 5.4375 16.636719 Z M 5.4375 16.636719 "/>
<path style=" stroke:none;fill-rule:nonzero;fill:rgb(0.392157%,0.392157%,0.392157%);fill-opacity:1;" d="M 48.683594 22.8125 C 48.726562 22.371094 49.121094 22.046875 49.5625 22.085938 C 50.003906 22.128906 50.328125 22.523438 50.289062 22.96875 C 50.246094 23.410156 49.851562 23.734375 49.410156 23.695312 C 48.96875 23.648438 48.644531 23.257812 48.683594 22.8125 Z M 50.089844 22.949219 C 50.128906 22.570312 49.882812 22.273438 49.546875 22.242188 C 49.210938 22.210938 48.914062 22.457031 48.878906 22.832031 C 48.84375 23.207031 49.089844 23.503906 49.421875 23.539062 C 49.757812 23.570312 50.054688 23.324219 50.089844 22.949219 Z M 49.21875 22.402344 L 49.554688 22.433594 C 49.777344 22.453125 49.886719 22.542969 49.867188 22.734375 C 49.851562 22.890625 49.757812 22.957031 49.605469 22.957031 L 49.8125 23.378906 L 49.636719 23.363281 L 49.441406 22.945312 L 49.339844 22.9375 L 49.300781 23.328125 L 49.132812 23.3125 Z M 49.351562 22.808594 L 49.5 22.824219 C 49.601562 22.832031 49.6875 22.828125 49.699219 22.703125 C 49.710938 22.597656 49.617188 22.570312 49.527344 22.5625 L 49.375 22.546875 Z M 49.351562 22.808594 "/>
</g>
</svg>
