<svg xmlns="http://www.w3.org/2000/svg" width="116" height="44" viewBox="0 0 116 44">
  <g id="Group_2" data-name="Group 2" transform="translate(-223.077 -134.896)">
    <path id="Path_3" data-name="Path 3" d="M312.936,156.586c-2.8,0-4.7,1.641-5.26,4.737h10.158C317.564,158.157,315.664,156.586,312.936,156.586Z" fill="#f32a5b"/>
    <path id="Path_4" data-name="Path 4" d="M331.671,164.442a7.484,7.484,0,0,0-2.758.523,7.232,7.232,0,0,0-1.5.793c-.047.032-.09.067-.135.1a22.818,22.818,0,0,0,.17-3.094l-.009-.322a14.963,14.963,0,0,0-3.861-9.932,14.23,14.23,0,0,0-10.644-4.211,14.787,14.787,0,0,0-10.948,4.49,13.761,13.761,0,0,0-1.75,2.308c-1.645-4.334-5.46-6.8-10.882-6.8a12.877,12.877,0,0,0-4.657.813l-.006-.354h-8.884a6.768,6.768,0,0,0,.682-2.962,7.116,7.116,0,0,0-7.236-6.97,7.3,7.3,0,0,0-4,1.183v-1.183h-12.91v3.339l-15.872,6.628a10.805,10.805,0,0,0,.223-2.177,11.433,11.433,0,0,0-3.579-8.3,12.318,12.318,0,0,0-8.581-3.416h-1.464v30.8c0,3.141,1.271,7.457,3.578,9.671a12.228,12.228,0,0,0,6.722,3.279l1.679.248v-10.44L249.94,178.9l-.831-13.764a6.553,6.553,0,0,0-2.662-4.862l-1.173-.872.518-.233a6.684,6.684,0,0,0,3.692-4.17l2.866-9.62V178.9h33.108V164.273c0-3.575,1.434-3.575,2.046-3.575a2.33,2.33,0,0,1,.527.046,4.244,4.244,0,0,1,.2,1.571V178.9h12.912v-5.342c2.663,3.369,6.844,5.342,11.984,5.342,5.031,0,9.048-1.8,11.5-5a7.427,7.427,0,0,0,14.445-2.234A7.322,7.322,0,0,0,331.671,164.442Zm-85-10.27a3.778,3.778,0,0,1-2.094,2.347l-5.022,2.261,5.131,3.813a3.663,3.663,0,0,1,1.495,2.712l.467,7.729-11-7.717a3.8,3.8,0,0,1-.879-.858l-2.645-3.583v14.5a9.251,9.251,0,0,1-3.439-2.09c-1.732-1.661-2.686-5.236-2.686-7.583V137.91a9.319,9.319,0,0,1,5.082,2.489,8.564,8.564,0,0,1,2.687,6.216,8.1,8.1,0,0,1-.984,3.842,7.038,7.038,0,0,0-.612,1.57l-1.961,7.482,4.564-6.266c.023-.032.047-.064.071-.094l.086-.1a3.792,3.792,0,0,1,.347-.36l.221-.184c.061-.049.123-.094.208-.151.035-.024.071-.047.112-.073l.147-.09a3.988,3.988,0,0,1,.439-.216l12.473-5.209Zm15.392,21.558H255.54V141.99h6.528Zm7.187-33.758a3.838,3.838,0,1,1-4,3.822A3.963,3.963,0,0,1,269.254,141.972Zm3.29,33.775h-6.531V152.07h6.531Zm25.409-.017h-6.528V162.316c0-3.261-1.194-4.786-3.923-4.786-3.118,0-5.237,2.2-5.237,6.743V175.73h-6.528V151.925h5.8l.05,4.711c1.194-3.238,3.753-5.172,7.772-5.172,6.065,0,8.6,3.651,8.6,9.041Zm15.152-5.193c2.924,0,4.6-1.072,5.214-3.215l5.506.833c-1.095,5.047-5.14,7.62-10.694,7.62-7.521,0-11.921-4.975-11.984-12.014v-.3c.064-6.9,4.629-12.046,11.788-12.046,7.04,0,11.329,4.62,11.329,11.834a16.854,16.854,0,0,1-.12,2.1H307.626C308.138,168.752,310.038,170.538,313.106,170.538Zm18.565,5.239a4.2,4.2,0,0,1-4.215-4.118,3.833,3.833,0,0,1,.053-.636A4.186,4.186,0,0,1,330,167.906a4.258,4.258,0,0,1,1.672-.346,4.109,4.109,0,1,1,0,8.216Z" fill="#f32a5b"/>
  </g>
</svg>
