<?xml version="1.0" encoding="UTF-8"?>
<svg xmlns="http://www.w3.org/2000/svg" xmlns:xlink="http://www.w3.org/1999/xlink" width="55pt" height="37pt" viewBox="0 0 55 37" version="1.1">
<g id="surface1">
<path style=" stroke:none;fill-rule:nonzero;fill:rgb(0%,49.019608%,77.647059%);fill-opacity:1;" d="M 6.347656 15.507812 C 6.347656 15.507812 7.398438 19.863281 7.566406 20.566406 C 7.761719 21.394531 8.117188 21.695312 9.136719 21.492188 L 9.792969 18.792969 C 9.957031 18.121094 10.070312 17.644531 10.175781 16.960938 L 10.195312 16.960938 C 10.273438 17.652344 10.378906 18.125 10.515625 18.796875 C 10.515625 18.796875 10.785156 20.019531 10.921875 20.664062 C 11.058594 21.308594 11.441406 21.710938 12.4375 21.492188 L 14.003906 15.507812 L 12.738281 15.507812 L 12.203125 18.097656 C 12.0625 18.847656 11.929688 19.4375 11.832031 20.125 L 11.8125 20.125 C 11.722656 19.445312 11.605469 18.878906 11.457031 18.144531 L 10.902344 15.507812 L 9.585938 15.507812 L 8.988281 18.078125 C 8.820312 18.859375 8.664062 19.492188 8.5625 20.15625 L 8.542969 20.15625 C 8.441406 19.527344 8.304688 18.738281 8.15625 17.980469 C 8.15625 17.980469 7.800781 16.144531 7.679688 15.507812 Z M 18.402344 15.507812 L 18.402344 21.492188 L 19.605469 21.492188 L 19.605469 15.507812 Z M 35.355469 15.507812 L 35.355469 19.921875 C 35.355469 20.53125 35.46875 20.957031 35.714844 21.21875 C 35.925781 21.445312 36.273438 21.59375 36.695312 21.59375 C 37.050781 21.59375 37.398438 21.523438 37.566406 21.460938 L 37.550781 20.511719 C 37.425781 20.542969 37.285156 20.566406 37.089844 20.566406 C 36.683594 20.566406 36.542969 20.304688 36.542969 19.757812 L 36.542969 18.066406 L 37.59375 18.066406 L 37.59375 16.921875 L 36.542969 16.921875 L 36.542969 15.507812 Z M 15.710938 16.894531 C 14.960938 16.894531 14.367188 17.109375 14.042969 17.296875 L 14.28125 18.113281 C 14.578125 17.925781 15.050781 17.769531 15.496094 17.769531 C 16.234375 17.769531 16.355469 18.191406 16.355469 18.464844 L 16.355469 18.527344 C 14.746094 18.527344 13.726562 19.089844 13.726562 20.234375 C 13.726562 20.9375 14.246094 21.59375 15.144531 21.59375 C 15.699219 21.59375 16.164062 21.371094 16.441406 21.011719 L 16.46875 21.011719 C 16.46875 21.011719 16.652344 21.789062 17.667969 21.492188 C 17.617188 21.167969 17.597656 20.824219 17.597656 20.410156 L 17.597656 18.808594 C 17.597656 17.792969 17.167969 16.894531 15.710938 16.894531 Z M 22.910156 16.894531 C 22.160156 16.894531 21.820312 17.28125 21.613281 17.609375 L 21.597656 17.609375 L 21.597656 16.996094 L 20.449219 16.996094 L 20.449219 21.492188 L 21.660156 21.492188 L 21.660156 18.855469 C 21.660156 18.730469 21.671875 18.601562 21.714844 18.488281 C 21.816406 18.222656 22.058594 17.914062 22.449219 17.914062 C 22.9375 17.914062 23.167969 18.328125 23.167969 18.929688 L 23.167969 21.492188 L 24.375 21.492188 L 24.375 18.824219 C 24.375 18.707031 24.394531 18.5625 24.425781 18.460938 C 24.527344 18.15625 24.789062 17.910156 25.152344 17.910156 C 25.648438 17.910156 25.886719 18.320312 25.886719 19.027344 L 25.886719 21.492188 L 27.097656 21.492188 L 27.097656 18.84375 C 27.097656 17.449219 26.394531 16.894531 25.601562 16.894531 C 25.25 16.894531 24.972656 16.984375 24.722656 17.140625 C 24.511719 17.269531 24.324219 17.457031 24.15625 17.699219 L 24.140625 17.699219 C 23.949219 17.214844 23.496094 16.894531 22.910156 16.894531 Z M 29.558594 16.894531 C 28.808594 16.894531 28.214844 17.109375 27.890625 17.296875 L 28.128906 18.113281 C 28.425781 17.925781 28.898438 17.769531 29.34375 17.769531 C 30.082031 17.769531 30.203125 18.191406 30.203125 18.464844 L 30.203125 18.527344 C 28.59375 18.527344 27.574219 19.089844 27.574219 20.234375 C 27.574219 20.9375 28.09375 21.59375 28.996094 21.59375 C 29.550781 21.59375 30.011719 21.371094 30.289062 21.011719 L 30.316406 21.011719 C 30.316406 21.011719 30.503906 21.789062 31.515625 21.492188 C 31.464844 21.167969 31.445312 20.824219 31.445312 20.410156 L 31.445312 18.808594 C 31.445312 17.792969 31.015625 16.894531 29.558594 16.894531 Z M 34.585938 16.894531 C 34.121094 16.894531 33.59375 17.199219 33.371094 17.84375 L 33.339844 17.84375 L 33.339844 16.996094 L 32.25 16.996094 L 32.25 21.492188 L 33.492188 21.492188 L 33.492188 19.191406 C 33.492188 19.066406 33.5 18.957031 33.519531 18.859375 C 33.609375 18.375 33.976562 18.066406 34.5 18.066406 C 34.644531 18.066406 34.746094 18.082031 34.859375 18.101562 L 34.859375 16.921875 C 34.765625 16.90625 34.699219 16.894531 34.585938 16.894531 Z M 16.394531 19.324219 L 16.394531 19.886719 C 16.394531 19.96875 16.386719 20.054688 16.367188 20.128906 C 16.273438 20.441406 15.953125 20.703125 15.554688 20.703125 C 15.21875 20.703125 14.957031 20.511719 14.957031 20.109375 C 14.957031 19.492188 15.628906 19.320312 16.394531 19.324219 Z M 30.242188 19.324219 L 30.242188 19.886719 C 30.242188 19.96875 30.234375 20.054688 30.214844 20.128906 C 30.121094 20.441406 29.800781 20.703125 29.402344 20.703125 C 29.066406 20.703125 28.804688 20.511719 28.804688 20.109375 C 28.804688 19.492188 29.476562 19.320312 30.242188 19.324219 Z M 30.242188 19.324219 "/>
<path style=" stroke:none;fill-rule:nonzero;fill:rgb(100%,76.078431%,12.54902%);fill-opacity:1;" d="M 44.101562 13.34375 C 43.714844 13.34375 43.40625 13.5625 43.40625 13.832031 L 43.640625 16.527344 C 43.667969 16.691406 43.863281 16.816406 44.101562 16.816406 C 44.339844 16.816406 44.539062 16.691406 44.5625 16.527344 L 44.800781 13.832031 C 44.800781 13.5625 44.492188 13.34375 44.101562 13.34375 Z M 40.253906 15.507812 C 40.054688 15.511719 39.824219 15.667969 39.679688 15.921875 C 39.484375 16.261719 39.519531 16.640625 39.746094 16.773438 L 42.179688 17.917969 C 42.332031 17.976562 42.539062 17.867188 42.65625 17.660156 C 42.777344 17.449219 42.765625 17.214844 42.640625 17.109375 L 40.445312 15.554688 C 40.386719 15.523438 40.324219 15.507812 40.253906 15.507812 Z M 47.949219 15.507812 C 47.882812 15.507812 47.816406 15.523438 47.761719 15.554688 L 45.5625 17.109375 C 45.4375 17.214844 45.429688 17.449219 45.546875 17.660156 C 45.667969 17.867188 45.875 17.976562 46.023438 17.917969 L 48.457031 16.773438 C 48.6875 16.640625 48.722656 16.261719 48.527344 15.921875 C 48.378906 15.667969 48.152344 15.511719 47.949219 15.507812 Z M 42.269531 19.066406 C 42.238281 19.066406 42.207031 19.070312 42.179688 19.082031 L 39.746094 20.222656 C 39.519531 20.359375 39.484375 20.738281 39.679688 21.078125 C 39.875 21.417969 40.214844 21.578125 40.445312 21.445312 L 42.640625 19.890625 C 42.769531 19.785156 42.777344 19.550781 42.65625 19.34375 C 42.5625 19.171875 42.40625 19.070312 42.269531 19.066406 Z M 45.933594 19.066406 C 45.800781 19.070312 45.644531 19.171875 45.546875 19.34375 C 45.429688 19.550781 45.4375 19.785156 45.5625 19.890625 L 47.761719 21.445312 C 47.988281 21.578125 48.332031 21.417969 48.527344 21.078125 C 48.71875 20.738281 48.6875 20.359375 48.457031 20.222656 L 46.027344 19.082031 C 45.996094 19.070312 45.96875 19.066406 45.933594 19.066406 Z M 44.101562 20.183594 C 43.863281 20.183594 43.667969 20.308594 43.640625 20.472656 L 43.40625 23.167969 C 43.40625 23.4375 43.714844 23.65625 44.101562 23.65625 C 44.492188 23.65625 44.800781 23.4375 44.800781 23.167969 L 44.566406 20.472656 C 44.539062 20.308594 44.339844 20.183594 44.101562 20.183594 Z M 44.101562 20.183594 "/>
</g>
</svg>
