<svg xmlns="http://www.w3.org/2000/svg">
<defs>
<font id="Poligon-Regular" horiz-adv-x="763" >
  <font-face 
    font-family="Poligon"
    font-weight="400"
    font-stretch="normal"
    units-per-em="1000"
    panose-1="0 0 5 0 0 0 0 0 0 0"
    ascent="745"
    descent="-255"
    x-height="441"
    cap-height="641"
    bbox="-506.333 -271.923 1463 898.75"
    underline-thickness="80"
    underline-position="-435"
    unicode-range="U+000D-FB01"
  />
<missing-glyph horiz-adv-x="590" 
d="M136 111q0 38 35 70q36 31 92 36q9 0 15 2q4 3 4 10q-5 39 -10 53q-2 6 -8 9q-7 1 -7 -2q0 -30 -18 -30q-15 0 -24 30q-3 9 -12 9l-14 2l-12 31l-9 22l-10 26l-7 23q-8 32 -8 50q0 71 89 107q52 15 78 12q28 -1 78 -39t68 -72q4 -7 13 -5h4q27 0 49 -25q23 -25 23 -51
q0 -28 -23 -54q-7 -6 -2 -14q30 -53 30 -94q0 -43 -30 -86q-24 -33 -39.5 -46.5t-43.5 -19.5q-11 -2 -20 -6q-45 -13 -58 -13q-15 0 -29 8q-16 12 -30 33q-21 31 -30 21q-60 -54 -89 -54q-16 0 -23 10q-22 19 -22 47zM236 545q-32 -6 -56 -35q-24 -28 -24 -58q0 -29 33 -116
l8 -19q5 -9 12 -6q4 1 18 1q22 0 58 -15l23 -9q49 -17 78.5 -45.5t29.5 -59.5t-27.5 -51t-70.5 -20l-6 1q-6 1 -8 -3t2 -9q0 -1 1 -2l1 -1l7 -10q10 -13 22 -22q11 -7 22 -7q16 0 54 13l20 6q18 4 32 12q16 11 44 48q27 40 27 79q0 43 -31 92q-4 7 -7 7q33 39 33 63
q0 22 -19 41q-20 21 -39 21t-9 -34l-8 -7q-9 25 -6 37q2 9 -1 13q-20 33 -68 69q-50 38 -73 39q-29 1 -72 -13zM289 412q0 25 40 15l2 -2q7 -7 7 -14q0 -24 -20 -24q-11 0 -20 8t-9 17zM312 417q-16 -2 -6 -11q6 -5 12 -6q7 0 7 11v2l-2 1q-1 0 -4.5 1.5t-6.5 1.5zM486 408
l11 -5q-4 -7 -4 -34v-16h-6q-11 41 -1 55zM196 368q0 6 9 19q7 6 18 6q17 -2 17 -24q0 -8 -6.5 -14t-16.5 -6q-21 0 -21 19zM209 368q0 -6 8 -6q10 0 10 7q0 1 -0.5 3t-0.5 3q-1 3 -5 3.5t-5 -0.5v-1q-7 -7 -7 -9zM228 286q6 -13 11 -13q4 0 4 16q0 9 -9 9h-7
q-1 0 -1.5 -1.5t0 -4.5t2.5 -6zM290 268q3 -12 5 -32q0 -4 3.5 -5.5t7 -1.5t8 1t5.5 1q35 0 42 -34v-1l11 5h1q7 0 18 -8q11 -11 11 -10q0 39 -45 67q-7 4 -14 -3q-6 -7 -16 -7q-16 0 -16 22v2q0 10 -7 11q-3 1 -8 4q-4 1 -5.5 -2t-0.5 -9zM325 262q0 -8 2 -8q3 0 6 3l2 2

<glyph glyph-name="fi" unicode="fi" horiz-adv-x="633" 
d="M519 669q27 0 45 -17t18 -42t-18 -43t-45 -18t-44.5 17.5t-17.5 43.5q0 25 17.5 42t44.5 17zM228 441h323q10 0 10 -10v-421q0 -10 -10 -10h-63q-10 0 -10 10v362h-250v-362q0 -10 -10 -10h-63q-10 0 -10 10v362h-115q-10 0 -10 10v49q0 10 10 10h115v58q0 76 42.5 115
t116.5 39q33 0 62 -8q8 -3 8 -12v-47q0 -11 -11 -8q-22 5 -44 5q-91 0 -91 -95v-47z" />
    <glyph glyph-name="f_f" unicode="ff" horiz-adv-x="746" 
d="M568 441h148q10 0 10 -10v-49q0 -10 -10 -10h-148v-362q0 -10 -10 -10h-63q-10 0 -10 10v362h-257v-362q0 -10 -10 -10h-63q-10 0 -10 10v362h-115q-10 0 -10 10v49q0 10 10 10h115v58q0 76 42.5 115t116.5 39q33 0 62 -8q8 -3 8 -12v-47q0 -11 -11 -8q-22 5 -44 5
q-91 0 -91 -95v-47h257v58q0 76 42.5 115t116.5 39q33 0 62 -8q8 -3 8 -12v-47q0 -11 -11 -8q-22 5 -44 5q-91 0 -91 -95v-47z" />
    <glyph glyph-name="f_f_i" unicode="ffi" horiz-adv-x="966" 
d="M852 669q27 0 45 -17t18 -42t-18 -43t-45 -18t-44.5 17.5t-17.5 43.5q0 25 17.5 42t44.5 17zM555 441h329q10 0 10 -10v-421q0 -10 -10 -10h-63q-10 0 -10 10v362h-256v-362q0 -10 -10 -10h-63q-10 0 -10 10v362h-244v-362q0 -10 -10 -10h-63q-10 0 -10 10v362h-115
q-10 0 -10 10v49q0 10 10 10h115v55q0 76 42.5 116.5t116.5 40.5q32 0 62 -8q8 -3 8 -12v-47q0 -11 -11 -9q-23 6 -44 6q-91 0 -91 -97v-45h244v55q0 77 42 117t117 40q32 0 62 -8q8 -3 8 -12v-47q0 -12 -11 -9q-22 6 -44 6q-91 0 -91 -97v-45z" />
    <glyph glyph-name="f_l" unicode="fl" horiz-adv-x="625" 
d="M145 372h-115q-10 0 -10 10v49q0 10 10 10h115v28q0 88 55 136.5t153 48.5q101 0 195 -44q7 -3 7 -11v-589q0 -10 -10 -10h-63q-10 0 -10 10v550q-60 23 -115 23q-129 0 -129 -117v-25h148q10 0 10 -10v-49q0 -10 -10 -10h-148v-362q0 -10 -10 -10h-63q-10 0 -10 10v362z
" />
    <glyph glyph-name="f_y" unicode="fy" horiz-adv-x="815" 
d="M557 152l149 282q3 7 12 7h71q15 0 8 -12l-335 -619q-3 -7 -12 -7h-68q-15 0 -8 12l137 254l-160 303h-123v-362q0 -10 -10 -10h-63q-10 0 -10 10v362h-115q-10 0 -10 10v49q0 10 10 10h115v58q0 76 42.5 115t116.5 39q33 0 62 -8q8 -3 8 -12v-47q0 -11 -11 -8
q-22 5 -44 5q-91 0 -91 -95v-47h170q9 0 12 -7z" />
    <glyph glyph-name="t_i" unicode="ti" horiz-adv-x="632" 
d="M456 610q0 25 17.5 42t44.5 17t44.5 -17t17.5 -42t-17.5 -43t-44.5 -18t-44.5 17.5t-17.5 43.5zM230 441h319q10 0 10 -10v-421q0 -10 -10 -10h-63q-10 0 -10 10v362h-246v-221q0 -90 89 -90q27 0 56 8q11 3 11 -8v-50q0 -9 -8 -11q-39 -11 -76 -11q-75 0 -115 39
t-40 116v228h-122q-10 0 -10 10v49q0 10 10 10h122v190q0 10 10 10h63q10 0 10 -10v-190z" />
    <glyph glyph-name="t_t" unicode="tt" horiz-adv-x="753" 
d="M725 431v-49q0 -10 -10 -10h-152v-221q0 -90 90 -90q27 0 56 8q11 3 11 -8v-50q0 -9 -8 -11q-39 -11 -76 -11q-75 0 -115.5 39.5t-40.5 115.5v228h-250v-221q0 -90 89 -90q27 0 56 8q11 3 11 -8v-50q0 -9 -8 -11q-39 -11 -76 -11q-75 0 -115 39t-40 116v228h-122
q-10 0 -10 10v49q0 10 10 10h122v190q0 10 10 10h63q10 0 10 -10v-190h250v190q0 10 10 10h63q10 0 10 -10v-190h152q10 0 10 -10z" />
    <glyph glyph-name="t_y" unicode="ty" horiz-adv-x="852" 
d="M595 152l148 282q3 7 12 7h72q15 0 8 -12l-335 -619q-3 -7 -12 -7h-69q-15 0 -8 12l137 254l-160 303h-158v-221q0 -90 89 -90q27 0 56 8q11 3 11 -8v-50q0 -9 -8 -11q-39 -11 -76 -11q-75 0 -115 39t-40 116v228h-122q-10 0 -10 10v49q0 10 10 10h122v190q0 10 10 10h63
q10 0 10 -10v-190h206q9 0 12 -7z" />
    <glyph glyph-name=".notdef" horiz-adv-x="590" 
d="M136 111q0 38 35 70q36 31 92 36q9 0 15 2q4 3 4 10q-5 39 -10 53q-2 6 -8 9q-7 1 -7 -2q0 -30 -18 -30q-15 0 -24 30q-3 9 -12 9l-14 2l-12 31l-9 22l-10 26l-7 23q-8 32 -8 50q0 71 89 107q52 15 78 12q28 -1 78 -39t68 -72q4 -7 13 -5h4q27 0 49 -25q23 -25 23 -51
q0 -28 -23 -54q-7 -6 -2 -14q30 -53 30 -94q0 -43 -30 -86q-24 -33 -39.5 -46.5t-43.5 -19.5q-11 -2 -20 -6q-45 -13 -58 -13q-15 0 -29 8q-16 12 -30 33q-21 31 -30 21q-60 -54 -89 -54q-16 0 -23 10q-22 19 -22 47zM236 545q-32 -6 -56 -35q-24 -28 -24 -58q0 -29 33 -116
l8 -19q5 -9 12 -6q4 1 18 1q22 0 58 -15l23 -9q49 -17 78.5 -45.5t29.5 -59.5t-27.5 -51t-70.5 -20l-6 1q-6 1 -8 -3t2 -9q0 -1 1 -2l1 -1l7 -10q10 -13 22 -22q11 -7 22 -7q16 0 54 13l20 6q18 4 32 12q16 11 44 48q27 40 27 79q0 43 -31 92q-4 7 -7 7q33 39 33 63
q0 22 -19 41q-20 21 -39 21t-9 -34l-8 -7q-9 25 -6 37q2 9 -1 13q-20 33 -68 69q-50 38 -73 39q-29 1 -72 -13zM289 412q0 25 40 15l2 -2q7 -7 7 -14q0 -24 -20 -24q-11 0 -20 8t-9 17zM312 417q-16 -2 -6 -11q6 -5 12 -6q7 0 7 11v2l-2 1q-1 0 -4.5 1.5t-6.5 1.5zM486 408
l11 -5q-4 -7 -4 -34v-16h-6q-11 41 -1 55zM196 368q0 6 9 19q7 6 18 6q17 -2 17 -24q0 -8 -6.5 -14t-16.5 -6q-21 0 -21 19zM209 368q0 -6 8 -6q10 0 10 7q0 1 -0.5 3t-0.5 3q-1 3 -5 3.5t-5 -0.5v-1q-7 -7 -7 -9zM228 286q6 -13 11 -13q4 0 4 16q0 9 -9 9h-7
q-1 0 -1.5 -1.5t0 -4.5t2.5 -6zM290 268q3 -12 5 -32q0 -4 3.5 -5.5t7 -1.5t8 1t5.5 1q35 0 42 -34v-1l11 5h1q7 0 18 -8q11 -11 11 -10q0 39 -45 67q-7 4 -14 -3q-6 -7 -16 -7q-16 0 -16 22v2q0 10 -7 11q-3 1 -8 4q-4 1 -5.5 -2t-0.5 -9zM325 262q0 -8 2 -8q3 0 6 3l2 2
l-3 6q-7 1 -7 -3zM82 226q0 19 31.5 25.5t59.5 -8.5l-2 -8q-38 -22 -66 -22q-23 0 -23 13zM92 226q0 -2 13 -2q5 0 29 6q7 2 5 7q-1 6 -5 6h-1q-15 0 -28 -6t-13 -11zM149 111q0 -20 18 -38q5 -5 14 -5q30 0 103 73l23 22l20 11q7 2 16 7q7 4 5 12v1q-6 23 -29 23
q-24 0 -59 -23q-34 -22 -39 -44h-5q0 15 11 29q4 5 -1 11t-11 4q-27 -12 -46.5 -36t-19.5 -47zM372 178q0 -1 0.5 -3.5t1 -7t0.5 -7.5q5 -17 15 -10l5 6q4 5 -1 14q-15 17 -20 17zM328 148q2 -1 10 -9q6 -9 15 -9q1 1 3 1q7 1 7 12q-3 21 -3 22q-1 12 -11 4l-18 -9h-1l-4 -2
t-3 -1q-4 -1 5 -9zM298 128q3 6 5 6q0 6 -4 2q-3 -3 -1 -8zM323 126q4 0 0 10q-2 2 -4 1.5t-3 -1.5l-2 -2q0 -8 9 -8zM46 96q16 19 64 10v-6h-2q-3 0 -8 -5q-26 -25 -42 -25q-13 0 -17 9t5 17zM59 93q-8 -2 -8 -8q0 -4 7 -4q9 0 19 7v2q-7 8 -18 3zM227 -41q-12 0 -15 12.5
t3.5 30t20.5 30.5l7 2q7 -18 1 -47q-4 -28 -17 -28zM227 -30q9 0 9 45q-8 -5 -12 -16q-11 -29 3 -29z" />
    <glyph glyph-name=".null" horiz-adv-x="0" 
 />
    <glyph glyph-name="nonmarkingreturn" horiz-adv-x="333" 
 />
    <glyph glyph-name="CR.001" unicode="&#xd;" horiz-adv-x="234" 
 />
    <glyph glyph-name="space" unicode=" " horiz-adv-x="238" 
 />
    <glyph glyph-name="exclam" unicode="!" horiz-adv-x="284" 
d="M189 631l-20 -403q0 -10 -11 -10h-31q-11 0 -11 10l-21 403q0 10 9 10h76q9 0 9 -10zM143 -13q-31 0 -51 20t-20 49q0 30 20.5 49.5t50.5 19.5q28 0 48.5 -20t20.5 -49t-20 -49t-49 -20z" />
    <glyph glyph-name="quotedbl" unicode="&#x22;" horiz-adv-x="304" 
d="M63 401l-24 199q-4 24 7 39t34 15q22 0 32.5 -14.5t6.5 -39.5l-26 -199q-1 -9 -10 -9h-10q-9 0 -10 9zM210 401l-24 199q-4 24 7 39t34 15q21 0 31.5 -14.5t6.5 -39.5l-25 -199q-2 -9 -10 -9h-10q-8 0 -10 9z" />
    <glyph glyph-name="numbersign" unicode="#" horiz-adv-x="626" 
d="M581 448l-10 -55q-1 -9 -11 -9h-86l-26 -127h89q11 0 9 -11l-10 -55q-2 -9 -11 -9h-92l-34 -173q-1 -9 -11 -9h-58q-11 0 -9 11l35 171h-144l-34 -173q-2 -9 -11 -9h-56q-11 0 -9 11l34 171h-82q-11 0 -9 11l10 55q1 9 11 9h85l24 127h-95q-11 0 -9 11l10 55q1 9 11 9h98
l34 173q2 9 11 9h57q11 0 9 -11l-34 -171h144l35 173q2 9 11 9h57q11 0 9 -11l-34 -171h83q11 0 9 -11zM227 257h144l25 127h-144z" />
    <glyph glyph-name="dollar" unicode="$" horiz-adv-x="581" 
d="M507 171q0 -79 -55 -127.5t-154 -54.5v-69q0 -10 -10 -10h-32q-10 0 -10 10v69q-123 6 -202 66q-8 6 -3 14l24 47q4 10 14 3q75 -60 190 -60q71 0 109.5 28.5t38.5 79.5q0 57 -43 82q-28 17 -35 19q-23 8 -38 13l-62 17l-50 15q-19 7 -48 21q-80 41 -85 140
q0 75 51.5 123t138.5 56v70q0 10 10 10h32q10 0 10 -10v-70q108 -6 184 -59q8 -5 3 -13l-23 -48q-4 -10 -14 -4q-74 53 -170 53q-63 0 -99 -28.5t-36 -76.5t37 -72q29 -17 86 -33l63 -17q65 -18 111 -48q67 -42 67 -136z" />
    <glyph glyph-name="percent" unicode="%" horiz-adv-x="759" 
d="M218 390q-60 0 -99 37t-39 95t39 95t99 37t98 -37q39 -37 39 -95t-39 -95q-38 -37 -98 -37zM609 615l-413 -619q-5 -8 -13 -3l-30 19q-8 5 -3 13l412 621q6 11 14 3l31 -20q7 -6 2 -14zM295 521q0 35 -21.5 56t-55.5 21q-35 0 -56.5 -21t-21.5 -56q0 -34 21.5 -54.5
t56.5 -20.5t56 20.5t21 54.5zM541 -12q-60 0 -98 37q-39 37 -39 95t39 95q38 37 98 37t99 -37t39 -95t-39 -95t-99 -37zM619 119q0 35 -21.5 56t-56.5 21t-56 -21t-21 -56q0 -34 21 -54.5t56 -20.5t56.5 20.5t21.5 54.5z" />
    <glyph glyph-name="ampersand" unicode="&#x26;" horiz-adv-x="693" 
d="M530 125l106 -114q10 -12 -5 -12h-86q-7 0 -12 5l-56 60q-74 -74 -197 -74q-94 0 -151 45.5t-57 121.5q0 69 40 110l30 29l32 24l38 28l-28 29q-63 66 -63 133q0 63 46 103q47 41 121 41q71 0 116 -39t45 -102q0 -77 -82 -141l-39 -31l144 -154q23 60 20 153q0 10 10 10
h126q10 0 10 -10v-48q0 -10 -10 -10h-62q0 -92 -36 -157zM285 585q-36 0 -57.5 -21.5t-21.5 -54.5q0 -22 12 -45l11 -16q7 -10 27 -30l22 -24l31 25l5 5q16 10 28 26q22 27 22 59q0 34 -21.5 55t-57.5 21zM289 67q84 0 135 54l-163 174l-38 -28q-57 -39 -60 -100
q0 -47 34 -73.5t92 -26.5z" />
    <glyph glyph-name="quotesingle" unicode="'" horiz-adv-x="158" 
d="M63 401l-24 199q-4 24 7 39t34 15q22 0 32.5 -14.5t6.5 -39.5l-26 -199q-1 -9 -10 -9h-10q-9 0 -10 9z" />
    <glyph glyph-name="parenleft" unicode="(" horiz-adv-x="251" 
d="M243 -175q7 -12 -7 -12h-48q-7 0 -13 6q-59 79 -96 190q-35 111 -35 227q0 115 34 224q34 110 97 191q6 6 13 6h48q14 0 7 -12q-53 -76 -83.5 -184.5t-30.5 -224.5q0 -114 30 -223.5t84 -187.5z" />
    <glyph glyph-name="parenright" unicode=")" horiz-adv-x="250" 
d="M62 -187h-47q-14 0 -7 12q54 81 84 189.5t30 221.5q0 117 -31 223q-32 112 -83 186q-8 12 7 12h47q7 0 13 -6q63 -81 97 -191q35 -113 35 -224q0 -116 -35.5 -226t-96.5 -191q-6 -6 -13 -6z" />
    <glyph glyph-name="asterisk" unicode="*" horiz-adv-x="369" 
d="M216 504q43 -17 68 -31l41 -24q9 -4 4 -14l-13 -22q-4 -9 -14 -4l-41 24q-46 29 -61 44q7 -35 7 -74v-49q0 -10 -10 -10h-26q-10 0 -10 10v49q0 37 8 74q-12 -12 -61 -44l-41 -24q-10 -5 -14 4l-13 22q-5 10 4 14l41 24q28 16 68 31q-37 11 -68 30l-41 24q-9 4 -4 14
l13 22q4 9 14 4l41 -24q36 -21 61 -44q-8 37 -8 75v48q0 10 10 10h26q10 0 10 -10v-48q0 -40 -7 -75q26 24 61 44l41 24q10 5 14 -4l13 -22q5 -10 -4 -14l-41 -24q-32 -19 -68 -30z" />
    <glyph glyph-name="plus" unicode="+" horiz-adv-x="657" 
d="M364 336h160q10 0 10 -10v-44q0 -10 -10 -10h-160v-165q0 -10 -10 -10h-51q-10 0 -10 10v165h-159q-10 0 -10 10l-1 44q0 10 10 10h160v165q0 10 10 10h51q10 0 10 -10v-165z" />
    <glyph glyph-name="comma" unicode="," horiz-adv-x="222" 
d="M108 123q31 0 51 -19.5t20 -51.5q0 -28 -34 -81l-61 -94q-5 -8 -13 -3l-23 15q-8 5 -3 13l69 96q-14 -2 -16 -2q-25 0 -42 16.5t-17 43.5q0 29 19.5 48t49.5 19z" />
    <glyph glyph-name="hyphen" unicode="-" horiz-adv-x="508" 
d="M67 209v56q0 10 10 10h354q10 0 10 -10v-56q0 -10 -10 -10h-354q-10 0 -10 10z" />
    <glyph glyph-name="period" unicode="." horiz-adv-x="198" 
d="M99 -12q-29 0 -47.5 18t-18.5 45t18.5 46t47.5 19q28 0 46.5 -19t18.5 -46q0 -26 -18.5 -44.5t-46.5 -18.5z" />
    <glyph glyph-name="slash" unicode="/" horiz-adv-x="393" 
d="M105 0h-63q-12 0 -7 12l242 622q3 8 11 8h63q11 0 7 -12l-242 -622q-3 -8 -11 -8z" />
    <glyph glyph-name="zero" unicode="0" horiz-adv-x="566" 
d="M49 320q0 156 61.5 244.5t172.5 88.5t172.5 -88.5t61.5 -244.5t-61.5 -243t-172.5 -87t-172.5 87t-61.5 243zM135 320q0 -123 38 -189t110 -66t110 66.5t38 188.5t-38 188.5t-110 66.5t-110 -65.5t-38 -189.5z" />
    <glyph glyph-name="one" unicode="1" horiz-adv-x="357" 
d="M187 553l-138 -83q-12 -8 -12 7v58q0 8 7 12l145 90q7 4 13 4h58q10 0 10 -10v-621q0 -10 -10 -10h-63q-10 0 -10 10v543z" />
    <glyph glyph-name="two" unicode="2" horiz-adv-x="517" 
d="M352 262l-179 -184h288q10 0 10 -10v-58q0 -10 -10 -10h-398q-10 0 -10 10v45q0 7 5 12l239 249q77 80 77 150q0 49 -32 79.5t-85 30.5q-47 0 -78.5 -23.5t-40.5 -62.5q-3 -9 -12 -8l-62 9q-11 2 -8 11q14 69 69 110t133 41q90 0 145 -51q55 -49 55 -132
q0 -56 -24.5 -103.5t-81.5 -104.5z" />
    <glyph glyph-name="three" unicode="3" horiz-adv-x="544" 
d="M460 557l-162 -162q87 -6 140.5 -60t53.5 -138q0 -91 -63 -149q-61 -58 -160 -58q-89 0 -150 50q-59 50 -67 134q-1 10 8 12l63 11q11 2 11 -9q4 -55 41.5 -89t94.5 -34q60 0 99 37.5t39 97.5q0 53 -31.5 87t-84.5 41q-22 3 -68 3h-8q-9 0 -12 8l-14 43q-1 7 4 14
l172 171h-266q-10 0 -10 10v54q0 10 10 10h355q10 0 10 -10v-62q0 -7 -5 -12z" />
    <glyph glyph-name="four" unicode="4" horiz-adv-x="587" 
d="M436 631v-374h101q10 0 10 -10v-51q0 -10 -10 -10h-101v-176q0 -10 -10 -10h-60q-10 0 -10 10v176h-307q-10 0 -10 10v48q0 9 4 13l276 378q5 6 13 6h94q10 0 10 -10zM356 565l-224 -308h224v308z" />
    <glyph glyph-name="five" unicode="5" horiz-adv-x="551" 
d="M287 412q91 0 152 -59q60 -59 60 -150q0 -94 -65 -154q-65 -59 -162 -59q-86 0 -146 48t-71 125q-1 11 9 12l62 11q10 2 11 -8q7 -52 43.5 -82.5t91.5 -30.5q63 0 102.5 38t39.5 100t-38.5 100t-101.5 38q-37 0 -69.5 -14.5t-51.5 -38.5q-6 -7 -13 -6l-63 9q-9 2 -8 12
l66 329q1 9 11 9h318q10 0 10 -10v-54q0 -10 -10 -10h-262l-37 -190q50 35 122 35z" />
    <glyph glyph-name="six" unicode="6" horiz-adv-x="551" 
d="M289 417q94 0 156 -59t62 -151q0 -95 -66 -156q-64 -61 -167 -61q-100 0 -162 59q-61 60 -61 155q0 93 78 206l149 225q4 6 12 6h69q14 0 7 -12l-151 -224q32 12 74 12zM276 65q65 0 105 40q42 41 42 102q0 60 -40.5 98.5t-101.5 38.5q-62 0 -104 -39q-42 -37 -42 -101
q0 -62 40 -100.5t101 -38.5z" />
    <glyph glyph-name="seven" unicode="7" horiz-adv-x="465" 
d="M26 577v54q0 10 10 10h392q10 0 10 -10v-51q0 -4 -3 -12l-259 -561q-3 -7 -11 -7h-69q-12 0 -8 12l256 555h-308q-10 0 -10 10z" />
    <glyph glyph-name="eight" unicode="8" horiz-adv-x="550" 
d="M390 341q52 -19 81.5 -63t29.5 -100q0 -84 -65 -137q-64 -51 -161 -51q-98 0 -162 52t-64 137q0 56 29.5 98.5t80.5 63.5q-41 20 -64.5 58t-23.5 85q0 74 57 121q57 48 147 48q91 0 146 -48q57 -47 57 -122q0 -47 -24 -85t-64 -57zM154 478q0 -45 33.5 -73.5t88.5 -28.5
q54 0 86 28q34 28 34 73t-34 72q-34 28 -88 28t-87 -27.5t-33 -71.5zM275 65q59 0 100 32q41 33 41 87t-40 85t-101 31q-62 0 -101.5 -31t-39.5 -85t41 -87q41 -32 100 -32z" />
    <glyph glyph-name="nine" unicode="9" horiz-adv-x="560" 
d="M284 652q102 0 163 -60q62 -60 62 -155q0 -39 -14 -83q-12 -38 -28 -66q-9 -14 -37 -56l-148 -225q-4 -7 -12 -7h-70q-6 0 -8 4t1 8l152 224q-33 -13 -75 -13q-95 0 -157 59q-61 58 -61 151q0 95 66 157q67 62 166 62zM136 435q0 -62 39.5 -100t102.5 -38t104.5 39
t41.5 101t-40 100t-102 38q-64 0 -105 -39.5t-41 -100.5z" />
    <glyph glyph-name="colon" unicode=":" horiz-adv-x="373" 
d="M187 321q-25 0 -44.5 18.5t-19.5 43.5t19.5 44t44.5 19t44 -19t19 -44t-18.5 -43.5t-44.5 -18.5zM187 120q25 0 44 -19t19 -44t-18.5 -43.5t-44.5 -18.5t-45 18.5t-19 43.5t19 44t45 19z" />
    <glyph glyph-name="semicolon" unicode=";" horiz-adv-x="391" 
d="M132 383q0 26 19 44.5t45 18.5t44.5 -18.5t18.5 -44.5t-18.5 -44t-44.5 -18t-45 18.5t-19 43.5zM268 51q0 -25 -35 -81l-61 -94q-5 -10 -13 -3l-22 14q-9 5 -3 14l69 96q-14 -2 -16 -2q-25 0 -42.5 16.5t-17.5 43.5q0 29 19.5 48t50.5 19t51 -19.5t20 -51.5z" />
    <glyph glyph-name="less" unicode="&#x3c;" horiz-adv-x="380" 
d="M327 16l-289 160q-7 4 -7 12v70q0 8 7 12l289 160q12 8 12 -7v-68q0 -9 -7 -12l-216 -120l216 -121q7 -4 7 -12v-67q0 -14 -12 -7z" />
    <glyph glyph-name="equal" unicode="=" horiz-adv-x="534" 
d="M105 369v52q0 10 10 10h304q10 0 10 -10v-52q0 -10 -10 -10h-304q-10 0 -10 10zM105 168v53q0 10 10 10h304q10 0 10 -10v-53q0 -10 -10 -10h-304q-10 0 -10 10z" />
    <glyph glyph-name="greater" unicode="&#x3e;" horiz-adv-x="383" 
d="M341 176l-288 -160q-12 -8 -12 7v67q0 8 7 12l216 121l-216 120q-7 3 -7 12v68q0 15 12 7l288 -160q7 -4 7 -12v-70q0 -8 -7 -12z" />
    <glyph glyph-name="question" unicode="?" horiz-adv-x="416" 
d="M204 181q-60 0 -97 32.5t-37 84.5q0 50 29 80.5t91 57.5q53 23 73.5 42t20.5 45q0 30 -20 46.5t-53 16.5q-35 0 -57 -17t-25 -44q0 -5 -2.5 -8t-7.5 -2l-59 9q-11 2 -9 11q8 54 52 86t110 32q69 0 111 -35t42 -95q0 -47 -28.5 -77.5t-89.5 -58.5q-66 -27 -81 -39
q-20 -18 -20 -46q0 -25 17 -40t44 -15q30 0 47.5 17t17.5 45q2 11 11 9l54 -8q9 -2 9 -9q-3 -55 -41.5 -87.5t-101.5 -32.5zM214 -11q-26 0 -44 17t-18 42t17.5 42t44.5 17q26 0 45 -17.5t19 -42.5t-18.5 -41.5t-45.5 -16.5z" />
    <glyph glyph-name="at" unicode="@" horiz-adv-x="958" 
d="M482 653q182 0 300 -114q118 -112 118 -287q0 -108 -49 -172t-131 -64q-58 0 -93 31.5t-39 80.5q-19 -33 -54 -52.5t-79 -19.5q-78 0 -126 51t-48 133q0 81 49 133t130 52q44 0 79.5 -19t53.5 -52l3 51q0 10 11 10h34q10 0 10 -10v-255q0 -35 20 -55.5t51 -20.5
q51 0 80 46t29 126q0 152 -98 247q-97 96 -252 96q-157 0 -257 -99q-99 -98 -99 -253q0 -157 100 -254q101 -98 254 -98q107 0 189 49q9 4 14 -4l21 -40q5 -9 -3 -14q-98 -55 -221 -55q-181 0 -302 116q-119 116 -119 300t119 300q121 116 305 116zM467 370q-56 0 -89 -36
t-33 -94t33 -95q34 -36 87 -36t86 36q34 37 34 96t-32.5 94t-85.5 35z" />
    <glyph glyph-name="A" unicode="A" horiz-adv-x="660" 
d="M636 0h-73q-8 0 -11 8l-65 153h-317l-65 -153q-3 -8 -11 -8h-70q-12 0 -8 12l268 621q3 8 11 8h69q8 0 11 -8l269 -621q4 -12 -8 -12zM329 539l-129 -307h258z" />
    <glyph glyph-name="B" unicode="B" horiz-adv-x="576" 
d="M422 323q54 -14 84 -55t30 -98q0 -81 -52.5 -125.5t-145.5 -44.5h-252q-10 0 -10 10v621q0 10 10 10h247q86 0 136.5 -46t50.5 -122q0 -51 -26 -90.5t-72 -59.5zM316 567h-160v-214h153q59 0 92 28.5t33 77.5q0 51 -32 79.5t-86 28.5zM156 74h172q59 0 91 28.5t32 77.5
q0 52 -33 80t-92 28h-170v-214z" />
    <glyph glyph-name="C" unicode="C" horiz-adv-x="693" 
d="M362 654q100 0 177.5 -45.5t110.5 -124.5q4 -10 -5 -13l-67 -25q-9 -3 -12 6q-21 55 -77 89.5t-128 34.5q-105 0 -170 -71q-64 -70 -64 -184q0 -115 64 -185t170 -70q72 0 128 33.5t77 88.5q3 9 12 6l66 -24q10 -4 6 -13q-33 -78 -110.5 -123.5t-177.5 -45.5
q-144 0 -234 92q-89 94 -89 241q0 148 89 240q90 93 234 93z" />
    <glyph glyph-name="D" unicode="D" horiz-adv-x="650" 
d="M86 641h201q143 0 233 -90q90 -89 90 -232t-90 -231q-88 -88 -233 -88h-201q-10 0 -10 10v621q0 10 10 10zM160 78h122q108 0 173 66q66 67 66 175q0 109 -66 177q-64 67 -173 67h-122v-485z" />
    <glyph glyph-name="E" unicode="E" horiz-adv-x="523" 
d="M471 631v-58q0 -10 -10 -10h-302v-205h271q10 0 10 -10v-53q0 -10 -10 -10h-271v-207h302q10 0 10 -10v-58q0 -10 -10 -10h-375q-10 0 -10 10v621q0 10 10 10h375q10 0 10 -10z" />
    <glyph glyph-name="F" unicode="F" horiz-adv-x="511" 
d="M481 631v-58q0 -10 -10 -10h-311v-173h311q10 0 10 -10v-54q0 -10 -10 -10h-311v-306q0 -10 -10 -10h-64q-10 0 -10 10v621q0 10 10 10h385q10 0 10 -10z" />
    <glyph glyph-name="G" unicode="G" horiz-adv-x="712" 
d="M244 278v53q0 10 10 10h409q10 0 10 -10v-42q0 -135 -87 -218q-88 -83 -227 -83q-143 0 -232 90q-88 89 -88 239q0 151 90 244t233 93q98 0 174 -46q76 -45 108 -122q4 -9 -6 -12l-62 -23q-9 -3 -13 6q-23 56 -78 87.5t-125 31.5q-105 0 -170 -71q-64 -70 -64 -187
q0 -116 63 -184q65 -68 173 -68q96 0 157 54.5t67 147.5h-332q-10 0 -10 10z" />
    <glyph glyph-name="H" unicode="H" horiz-adv-x="639" 
d="M150 0h-64q-10 0 -10 10v621q0 10 10 10h64q10 0 10 -10v-270l323 -1v271q0 10 10 10h65q10 0 10 -10v-621q0 -10 -10 -10h-65q-10 0 -10 10v278h-323v-278q0 -10 -10 -10z" />
    <glyph glyph-name="I" unicode="I" horiz-adv-x="235" 
d="M160 631v-621q0 -10 -10 -10h-64q-10 0 -10 10v621q0 10 10 10h64q10 0 10 -10z" />
    <glyph glyph-name="J" unicode="J" horiz-adv-x="515" 
d="M47 179v117q0 10 10 10h61q10 0 10 -10v-115q0 -57 30 -87.5t84 -30.5q56 0 86 31.5t30 86.5v450q0 10 10 10h64q10 0 10 -10v-452q0 -89 -55 -140.5t-146 -50.5q-89 0 -141.5 52t-52.5 139z" />
    <glyph glyph-name="K" unicode="K" horiz-adv-x="614" 
d="M503 641h80q15 0 6 -12l-237 -262l236 -355q3 -4 1 -8t-8 -4h-81q-8 0 -12 6l-197 293l-131 -144v-145q0 -10 -10 -10h-64q-10 0 -10 10v621q0 10 10 10h64q10 0 10 -10v-360l331 365q5 5 12 5z" />
    <glyph glyph-name="L" unicode="L" horiz-adv-x="450" 
d="M160 631v-555h257q10 0 10 -10v-56q0 -10 -10 -10h-331q-10 0 -10 10v621q0 10 10 10h64q10 0 10 -10z" />
    <glyph glyph-name="M" unicode="M" horiz-adv-x="871" 
d="M692 632l148 -621q5 -11 -8 -11h-70q-10 0 -11 9l-113 489l-163 -467q-3 -8 -12 -8h-56q-9 0 -12 8l-163 465l-113 -487q-1 -9 -11 -9h-69q-11 0 -8 11l149 621q2 9 11 9h65q9 0 12 -8l168 -496l171 496q3 8 12 8h62q9 0 11 -9z" />
    <glyph glyph-name="N" unicode="N" horiz-adv-x="644" 
d="M488 142v489q0 10 10 10h64q10 0 10 -10v-621q0 -10 -10 -10h-64q-8 0 -12 6l-326 490v-486q0 -10 -10 -10h-64q-10 0 -10 10v621q0 10 10 10h63q7 0 12 -6z" />
    <glyph glyph-name="O" unicode="O" horiz-adv-x="739" 
d="M370 -12q-142 0 -237 93q-94 93 -94 239q0 145 94 239q95 95 237 95q140 0 235 -95t95 -239t-95 -239q-94 -93 -235 -93zM611 320q0 112 -69 183t-172 71t-174 -71q-69 -71 -69 -183q0 -111 69 -183q71 -71 174 -71t172 71q69 72 69 183z" />
    <glyph glyph-name="P" unicode="P" horiz-adv-x="563" 
d="M86 641h257q89 0 139.5 -45.5t50.5 -123.5q0 -80 -51 -126t-139 -46h-183v-290q0 -10 -10 -10h-64q-10 0 -10 10v621q0 10 10 10zM160 370h177q51 0 79.5 26.5t28.5 72.5q0 47 -28.5 72.5t-79.5 25.5h-177v-197z" />
    <glyph glyph-name="Q" unicode="Q" horiz-adv-x="739" 
d="M700 320q0 -123 -70 -211q-69 -87 -181 -112l159 -139q8 -8 1 -14l-44 -47q-6 -8 -14 0l-183 191q-141 2 -235 94q-94 93 -94 238t94 239q95 95 237 95q140 0 235 -95t95 -239zM127 320q0 -111 69 -183q71 -71 174 -71t172 71q69 72 69 183q0 112 -69 183t-172 71
t-174 -71q-69 -71 -69 -183z" />
    <glyph glyph-name="R" unicode="R" horiz-adv-x="576" 
d="M346 309h-16l206 -297q3 -4 1 -8t-8 -4h-78q-7 0 -12 6l-204 303h-75v-299q0 -10 -10 -10h-64q-10 0 -10 10v621q0 10 10 10h258q86 0 135.5 -44t49.5 -120q0 -78 -49.5 -123t-133.5 -45zM160 568v-194h174q51 0 79 26t28 72q0 45 -28.5 70.5t-79.5 25.5h-173z" />
    <glyph glyph-name="S" unicode="S" horiz-adv-x="544" 
d="M271 -12q-139 0 -227 67q-8 6 -3 14l24 47q4 10 14 3q75 -60 190 -60q71 0 109.5 28.5t38.5 79.5q0 57 -43 82q-28 17 -35 19q-23 8 -38 13l-62 17l-50 15q-19 7 -48 21q-80 41 -85 140q0 83 60 131.5t160 48.5q118 0 206 -60q8 -5 3 -13l-23 -48q-4 -10 -14 -4
q-74 53 -170 53q-63 0 -99 -28.5t-36 -76.5t37 -72q29 -17 86 -33l63 -17q65 -18 111 -48q67 -42 67 -136q0 -85 -62.5 -134t-173.5 -49z" />
    <glyph glyph-name="T" unicode="T" horiz-adv-x="509" 
d="M24 641h461q10 0 10 -10v-57q0 -10 -10 -10h-187v-554q0 -10 -10 -10h-64q-10 0 -10 10v554h-190q-10 0 -10 10v57q0 10 10 10z" />
    <glyph glyph-name="U" unicode="U" horiz-adv-x="641" 
d="M69 222v409q0 10 10 10h65q10 0 10 -10v-406q0 -85 48 -122q47 -37 119 -37q76 0 121.5 40.5t45.5 118.5v406q0 10 10 10h64q10 0 10 -10v-409q0 -115 -71 -175q-71 -59 -180 -59t-180 58q-72 58 -72 176z" />
    <glyph glyph-name="V" unicode="V" horiz-adv-x="700" 
d="M304 7l-291 622q-5 12 8 12h75q8 0 11 -8l244 -534l244 534q3 8 11 8h73q13 0 8 -12l-289 -622q-3 -7 -11 -7h-72q-8 0 -11 7z" />
    <glyph glyph-name="W" unicode="W" horiz-adv-x="1077" 
d="M772 123l192 510q3 8 11 8h76q13 0 8 -12l-242 -621q-3 -8 -11 -8h-65q-8 0 -11 8l-193 499l-191 -499q-3 -8 -11 -8h-66q-8 0 -11 8l-241 621q-4 12 8 12h77q8 0 11 -8l191 -511l190 494q3 8 11 8h67q8 0 11 -8z" />
    <glyph glyph-name="X" unicode="X" horiz-adv-x="586" 
d="M101 -1h-72q-6 0 -8.5 3.5t1.5 8.5l216 309l-216 309q-4 5 -1.5 8.5t8.5 3.5h74q7 0 12 -6l178 -260l181 260q4 6 12 6h71q6 0 8.5 -3.5t-1.5 -8.5l-216 -309l216 -309q4 -5 1.5 -8.5t-8.5 -3.5h-73q-8 0 -12 6l-179 256l-180 -256q-5 -6 -12 -6z" />
    <glyph glyph-name="Y" unicode="Y" horiz-adv-x="590" 
d="M254 266l-241 363q-7 12 7 12h74q8 0 12 -6l191 -289l190 289q5 6 12 6h73q13 0 6 -12l-239 -363v-256q0 -10 -10 -10h-65q-10 0 -10 10v256z" />
    <glyph glyph-name="Z" unicode="Z" horiz-adv-x="579" 
d="M527 0h-476q-10 0 -10 10v44q0 9 4 13l373 497h-351q-10 0 -10 10v57q0 10 10 10h454q10 0 10 -10v-42q0 -9 -4 -13l-371 -499h371q10 0 10 -10v-57q0 -10 -10 -10z" />
    <glyph glyph-name="bracketleft" unicode="[" horiz-adv-x="247" 
d="M125 -121h107q10 0 10 -10v-46q0 -10 -10 -10h-169q-10 0 -10 10v823q0 10 10 10h169q10 0 10 -10v-46q0 -10 -10 -10h-107v-711z" />
    <glyph glyph-name="backslash" unicode="\" horiz-adv-x="337" 
d="M87 633l245 -621q4 -12 -7 -12h-62q-8 0 -11 8l-247 621q-4 12 7 12h64q8 0 11 -8z" />
    <glyph glyph-name="bracketright" unicode="]" horiz-adv-x="246" 
d="M5 -177v46q0 10 10 10h107v711h-107q-10 0 -10 10v46q0 10 10 10h169q10 0 10 -10v-823q0 -10 -10 -10h-169q-10 0 -10 10z" />
    <glyph glyph-name="asciicircum" unicode="^" horiz-adv-x="431" 
d="M256 634l91 -189q5 -12 -7 -12h-53q-9 0 -12 7l-60 124l-59 -124q-3 -7 -12 -7h-53q-11 0 -7 12l90 189q3 7 12 7h58q9 0 12 -7z" />
    <glyph glyph-name="underscore" unicode="_" horiz-adv-x="365" 
d="M-2 -72v45q0 10 10 10h349q10 0 10 -10v-45q0 -10 -10 -10h-349q-10 0 -10 10z" />
    <glyph glyph-name="grave" unicode="`" horiz-adv-x="249" 
d="M185 705l-13 -12q-7 -7 -14 -1l-135 109q-7 7 -1 14l33 33q7 6 14 -1l116 -128q6 -8 0 -14z" />
    <glyph glyph-name="a" unicode="a" horiz-adv-x="557" 
d="M413 391v40q0 10 10 10h63q10 0 10 -10v-421q0 -10 -10 -10h-63q-10 0 -10 10v41q-53 -63 -153 -63q-98 0 -159 64t-61 168q0 106 61 170t159 64q100 0 153 -63zM276 63q45 0 82.5 20t54.5 53v170q-17 33 -54.5 53t-82.5 20q-68 0 -110 -43.5t-42 -114.5t42 -114.5
t110 -43.5z" />
    <glyph glyph-name="b" unicode="b" horiz-adv-x="566" 
d="M305 454q99 0 160 -64t61 -170q0 -104 -61 -168t-159 -64q-99 0 -153 62v-40q0 -10 -10 -10h-63q-10 0 -10 10v621q0 10 10 10h63q10 0 10 -10v-239q54 62 152 62zM289 63q69 0 110.5 43.5t41.5 114.5t-41.5 114.5t-110.5 43.5q-45 0 -82 -20t-54 -53v-170q17 -33 54 -53
t82 -20z" />
    <glyph glyph-name="c" unicode="c" horiz-adv-x="507" 
d="M40 220q0 104 63 169q63 64 167 64q67 0 119.5 -30t75.5 -81q4 -9 -6 -13l-57 -21q-9 -3 -13 6q-14 30 -46.5 47.5t-75.5 17.5q-65 0 -104 -43.5t-39 -115.5q0 -71 39.5 -114.5t103.5 -43.5q90 0 122 65q4 9 13 6l57 -21q10 -4 6 -13q-23 -52 -75 -81.5t-120 -29.5
q-103 0 -167 64q-63 64 -63 168z" />
    <glyph glyph-name="d" unicode="d" horiz-adv-x="557" 
d="M413 391v240q0 10 10 10h63q10 0 10 -10v-621q0 -10 -10 -10h-63q-10 0 -10 10v41q-53 -63 -153 -63q-98 0 -159 64t-61 168q0 106 61 170t159 64q100 0 153 -63zM276 63q45 0 82.5 20t54.5 53v170q-17 33 -54.5 53t-82.5 20q-68 0 -110 -43.5t-42 -114.5t42 -114.5
t110 -43.5z" />
    <glyph glyph-name="e" unicode="e" horiz-adv-x="510" 
d="M40 222q0 103 62 168q61 64 161 64q93 0 151 -57q58 -55 58 -146q0 -7 -2 -37q-2 -9 -11 -9h-336q-1 -68 40 -107.5t108 -39.5q42 0 77.5 17t54.5 46q6 10 14 2l38 -31q7 -6 2 -14q-28 -42 -78 -66t-111 -24q-106 0 -167 63q-61 64 -61 171zM124 265h266q-1 53 -36 86
t-93 33t-95 -32.5t-42 -86.5z" />
    <glyph glyph-name="f" unicode="f" horiz-adv-x="406" 
d="M228 441h148q10 0 10 -10v-49q0 -10 -10 -10h-148v-362q0 -10 -10 -10h-63q-10 0 -10 10v362h-115q-10 0 -10 10v49q0 10 10 10h115v58q0 76 42.5 115t116.5 39q33 0 62 -8q8 -3 8 -12v-47q0 -11 -11 -8q-22 5 -44 5q-91 0 -91 -95v-47z" />
    <glyph glyph-name="g" unicode="g" horiz-adv-x="546" 
d="M402 397v34q0 10 10 10h63q10 0 10 -10v-429q-1 -99 -62 -155.5t-164 -56.5q-72 0 -125 30.5t-77 85.5q-5 8 5 13l57 21q8 3 13 -5q32 -72 128 -72q68 0 105 36.5t37 100.5v69q-52 -58 -149 -58q-95 0 -154 60q-59 62 -59 161t59 161q58 61 155 61q96 0 148 -57zM268 83
q44 0 80 17.5t54 46.5v169q-18 30 -54 47.5t-80 17.5q-65 0 -104.5 -41t-39.5 -108t39.5 -108t104.5 -41z" />
    <glyph glyph-name="h" unicode="h" horiz-adv-x="543" 
d="M297 454q85 0 134.5 -49.5t49.5 -136.5v-258q0 -10 -10 -10h-63q-10 0 -10 10v245q0 123 -121 123q-81 0 -124 -61v-306q0 -10 -10 -10h-63q-10 0 -10 10v620q0 10 10 10h63q10 0 10 -10v-232q58 55 144 55z" />
    <glyph glyph-name="i" unicode="i" horiz-adv-x="228" 
d="M52 610q0 25 17.5 42t44.5 17t44.5 -17t17.5 -42t-17.5 -43t-44.5 -18t-44.5 17.5t-17.5 43.5zM145 0h-63q-10 0 -10 10v421q0 10 10 10h63q10 0 10 -10v-421q0 -10 -10 -10z" />
    <glyph glyph-name="j" unicode="j" horiz-adv-x="226" 
d="M113 549q-26 0 -43.5 17.5t-17.5 43.5q0 25 17.5 42t43.5 17q27 0 44.5 -17t17.5 -42t-17.5 -43t-44.5 -18zM-74 -209v48q0 11 11 9q18 -5 41 -5q94 0 94 100v488q0 10 10 10h63q10 0 10 -10v-491q0 -84 -42 -126.5t-118 -42.5q-36 0 -61 9q-8 3 -8 11z" />
    <glyph glyph-name="k" unicode="k" horiz-adv-x="516" 
d="M395 441h78q7 0 8.5 -3.5t-3.5 -8.5l-174 -166l178 -251q4 -4 2 -8t-8 -4h-73q-7 0 -12 6l-145 201l-93 -89v-108q0 -10 -10 -10h-63q-10 0 -10 10v621q0 10 10 10h63q10 0 10 -10v-412l230 217q5 5 12 5z" />
    <glyph glyph-name="l" unicode="l" horiz-adv-x="223" 
d="M143 0h-63q-10 0 -10 10v621q0 10 10 10h63q10 0 10 -10v-621q0 -10 -10 -10z" />
    <glyph glyph-name="m" unicode="m" horiz-adv-x="838" 
d="M605 454q80 0 125.5 -49.5t45.5 -136.5v-258q0 -10 -10 -10h-63q-10 0 -10 10v245q0 123 -105 123q-85 0 -127 -66q4 -17 4 -44v-258q0 -10 -10 -10h-63q-10 0 -10 10v245q0 123 -106 123q-81 0 -123 -61v-306q0 -10 -10 -10h-63q-10 0 -10 10v420q0 10 10 10h63
q10 0 10 -10v-32q56 55 142 55q100 0 143 -76q60 76 167 76z" />
    <glyph glyph-name="n" unicode="n" horiz-adv-x="543" 
d="M297 454q85 0 134.5 -49.5t49.5 -136.5v-258q0 -10 -10 -10h-63q-10 0 -10 10v245q0 123 -121 123q-81 0 -124 -61v-307q0 -10 -10 -10h-63q-10 0 -10 10v421q0 10 10 10h63q10 0 10 -10v-32q58 55 144 55z" />
    <glyph glyph-name="o" unicode="o" horiz-adv-x="553" 
d="M40 220q0 100 65 167q66 67 171 67q107 0 171 -67q66 -66 66 -167q0 -100 -66 -166t-171 -66t-171 66q-65 67 -65 166zM124 220q0 -68 42 -113q44 -44 110 -44q68 0 110 44t42 113t-42 113.5t-110 44.5q-66 0 -110 -45q-42 -43 -42 -113z" />
    <glyph glyph-name="p" unicode="p" horiz-adv-x="566" 
d="M305 454q99 0 160 -64t61 -170q0 -104 -61 -168t-159 -64q-99 0 -153 62v-237q0 -10 -10 -10h-63q-10 0 -10 10v618q0 10 10 10h63q10 0 10 -10v-39q54 62 152 62zM289 63q69 0 110.5 43.5t41.5 114.5t-41.5 114.5t-110.5 43.5q-45 0 -82 -20t-54 -53v-170q17 -33 54 -53
t82 -20z" />
    <glyph glyph-name="q" unicode="q" horiz-adv-x="557" 
d="M413 391v40q0 10 10 10h63q10 0 10 -10v-618q0 -10 -10 -10h-63q-10 0 -10 10v238q-53 -63 -153 -63q-98 0 -159 64t-61 168q0 106 61 170t159 64q100 0 153 -63zM276 63q45 0 82.5 20t54.5 53v170q-17 33 -54.5 53t-82.5 20q-68 0 -110 -43.5t-42 -114.5t42 -114.5
t110 -43.5z" />
    <glyph glyph-name="r" unicode="r" horiz-adv-x="346" 
d="M284 448q20 0 36 -3q9 -1 9 -11v-56q0 -11 -11 -8q-15 3 -34 3q-99 0 -135 -85l-1 -278q0 -10 -10 -10h-63q-10 0 -10 10v421q0 10 10 10h64q10 0 10 -10v-50q43 67 135 67z" />
    <glyph glyph-name="s" unicode="s" horiz-adv-x="435" 
d="M214 -12q-106 0 -167 48q-8 5 -3 14l19 43q4 10 14 3q59 -41 137 -41q97 0 97 63q-1 22 -12 35.5t-21.5 18t-28.5 8.5q-2 1 -5 1l-81 19q-114 27 -114 121q0 59 46.5 96t121.5 37q90 0 154 -43q7 -4 3 -13l-19 -44q-4 -10 -14 -3q-51 36 -120 36q-42 0 -65 -17t-23 -45
q2 -19 12 -31t21 -16.5t30 -8.5l87 -20q114 -25 114 -125q0 -63 -49.5 -99.5t-133.5 -36.5z" />
    <glyph glyph-name="t" unicode="t" horiz-adv-x="419" 
d="M391 431v-49q0 -10 -10 -10h-151v-221q0 -90 89 -90q27 0 56 8q11 3 11 -8v-50q0 -9 -8 -11q-39 -11 -76 -11q-75 0 -115 39t-40 116v228h-122q-10 0 -10 10v49q0 10 10 10h122v190q0 10 10 10h63q10 0 10 -10v-190h151q10 0 10 -10z" />
    <glyph glyph-name="u" unicode="u" horiz-adv-x="529" 
d="M381 123v308q0 10 10 10h63q10 0 10 -10v-421q0 -10 -10 -10h-63q-10 0 -10 10v33q-58 -55 -146 -55q-81 0 -125.5 49t-44.5 136v258q0 10 10 10h63q10 0 10 -10v-244q0 -125 110 -125q80 -2 123 61z" />
    <glyph glyph-name="v" unicode="v" horiz-adv-x="533" 
d="M223 7l-212 422q-5 12 7 12h72q9 0 12 -7l166 -341l165 341q3 7 12 7h70q11 0 7 -12l-210 -422q-3 -7 -12 -7h-65q-9 0 -12 7z" />
    <glyph glyph-name="w" unicode="w" horiz-adv-x="791" 
d="M555 107l139 326q3 8 11 8h69q12 0 8 -12l-187 -421q-3 -8 -11 -8h-57q-8 0 -11 8l-121 318l-124 -318q-3 -8 -11 -8h-58q-8 0 -11 8l-183 421q-5 12 8 12h71q8 0 11 -8l136 -324l120 309q3 8 11 8h61q8 0 11 -8z" />
    <glyph glyph-name="x" unicode="x" horiz-adv-x="457" 
d="M95 0h-67q-6 0 -8 4t2 8l158 208l-159 209q-9 12 6 12h69q8 0 13 -6l120 -162l120 162q5 6 13 6h68q15 0 6 -12l-157 -208l158 -209q4 -4 2 -8t-8 -4h-69q-8 0 -13 6l-119 159l-122 -159q-4 -6 -13 -6z" />
    <glyph glyph-name="y" unicode="y" horiz-adv-x="512" 
d="M208 69l-190 360q-4 12 7 12h71q9 0 12 -7l147 -282l148 282q3 7 12 7h72q15 0 8 -12l-335 -619q-3 -7 -12 -7h-69q-15 0 -8 12z" />
    <glyph glyph-name="z" unicode="z" horiz-adv-x="485" 
d="M427 0h-369q-10 0 -10 10v41q0 4 5 12l261 305h-246q-10 0 -10 10v53q0 10 10 10h349q10 0 10 -10v-42q0 -4 -5 -12l-260 -303h265q10 0 10 -10v-54q0 -10 -10 -10z" />
    <glyph glyph-name="braceleft" unicode="{" horiz-adv-x="303" 
d="M200 521v-160q0 -93 -57 -122q57 -31 57 -122v-161q0 -108 98 -93q11 2 11 -9v-39q0 -9 -9 -11q-89 -13 -132 31q-41 44 -41 117v172q0 81 -64 85q-10 1 -10 11v38q0 10 10 10q64 4 64 86v172q0 80 45 120.5t128 26.5q9 -1 9 -11v-39q0 -11 -11 -9q-98 12 -98 -93z" />
    <glyph glyph-name="bar" unicode="|" horiz-adv-x="333" 
d="M133 -70v761q0 10 10 10h47q10 0 10 -10v-761q0 -10 -10 -10h-47q-10 0 -10 10z" />
    <glyph glyph-name="braceright" unicode="}" horiz-adv-x="303" 
d="M176 526v-172q0 -82 63 -86q10 0 10 -10v-38q0 -10 -10 -11q-63 -5 -63 -85v-172q0 -74 -42 -117q-40 -43 -132 -30q-9 0 -9 10v39q0 11 11 9q99 -15 99 93v161q0 91 57 122q-57 29 -57 122v160q0 105 -99 93q-11 -2 -11 9v39q0 10 9 11q83 14 128.5 -26.5t45.5 -120.5z
" />
    <glyph glyph-name="asciitilde" unicode="~" horiz-adv-x="406" 
d="M320 315q0 10 10 10h37q10 0 10 -10q-1 -53 -28.5 -83.5t-70.5 -30.5q-38 0 -85 31q-47 32 -68 32q-36 0 -39 -44q0 -10 -10 -10h-37q-10 0 -10 10q1 51 28 81.5t70 30.5q36 0 85 -32t69 -32q36 0 39 47z" />
    <glyph glyph-name="uni00A0" unicode="&#xa0;" horiz-adv-x="238" 
 />
    <glyph glyph-name="exclamdown" unicode="&#xa1;" horiz-adv-x="284" 
d="M143 652q29 0 49 -19.5t20 -48.5t-20.5 -49t-48.5 -20q-30 0 -50.5 19.5t-20.5 49.5q0 29 20 48.5t51 19.5zM121 421h42q10 0 10 -10l17 -402q0 -10 -10 -10h-76q-10 0 -10 10l17 402q0 10 10 10z" />
    <glyph glyph-name="cent" unicode="&#xa2;" horiz-adv-x="574" 
d="M300 175q89 0 121 65q4 9 13 6l58 -21q10 -4 6 -13q-46 -100 -176 -110v-92q0 -10 -10 -10h-38q-10 0 -10 10v93q-88 12 -140 74t-52 157q0 94 52 156t140 74v78q0 10 10 10h38q10 0 10 -10v-77q62 -5 108.5 -34t67.5 -76q4 -9 -6 -12l-58 -22q-9 -3 -13 6
q-32 65 -121 65q-64 0 -103.5 -43.5t-39.5 -114.5q0 -72 39 -115.5t104 -43.5z" />
    <glyph glyph-name="sterling" unicode="&#xa3;" horiz-adv-x="600" 
d="M467 75v98q0 10 10 10h53q10 0 10 -10v-163q0 -10 -10 -10h-453q-10 0 -10 10v57q0 8 9 11q46 10 72.5 49t26.5 93q0 32 -10 62h-84q-10 0 -10 10v45q0 10 10 10h58q-24 61 -24 105q0 88 59 144q58 57 155 57q87 0 143 -47q57 -47 61 -123q1 -10 -9 -10h-63q-10 0 -11 10
q-4 45 -37.5 70.5t-85.5 25.5q-60 0 -94 -34.5t-34 -94.5q0 -42 27 -103h196q10 0 10 -10v-45q0 -10 -10 -10h-174q6 -24 6 -55q0 -48 -19.5 -90t-56.5 -61z" />
    <glyph glyph-name="currency" unicode="&#xa4;" horiz-adv-x="611" 
d="M524 323q0 -69 -42 -128l67 -57q7 -8 1 -14l-41 -41q-7 -7 -14 1l-59 65q-59 -43 -131 -43t-131 43l-58 -65q-8 -8 -14 -1l-41 41q-7 6 1 14l67 57q-42 58 -42 128t42 130l-67 57q-8 8 -1 14l41 42q6 6 14 -1l58 -66q59 44 131 44q70 0 131 -44l59 66q7 7 14 1l41 -42
q6 -6 -1 -14l-68 -57q43 -58 43 -130zM305 182q58 0 99 41q42 42 42 100q0 59 -42 100q-40 42 -99 42q-58 0 -100 -42t-42 -100q0 -57 42 -99q43 -42 100 -42z" />
    <glyph glyph-name="yen" unicode="&#xa5;" horiz-adv-x="654" 
d="M504 641h75q15 0 7 -12l-185 -299h116q10 0 10 -10v-47q0 -10 -10 -10h-149v-76h149q10 0 10 -10v-46q0 -10 -10 -10h-149v-111q0 -10 -10 -10h-63q-10 0 -10 10v111h-150q-10 0 -10 10v46q0 10 10 10h150v76h-150q-10 0 -10 10v47q0 10 10 10h118l-185 299q-8 12 7 12
h75q8 0 12 -7l165 -289v2l165 287q4 7 12 7z" />
    <glyph glyph-name="brokenbar" unicode="&#xa6;" horiz-adv-x="341" 
d="M133 408v285q0 10 10 10h55q10 0 10 -10v-285q0 -10 -10 -10h-55q-10 0 -10 10zM133 -52v294q0 10 10 10h55q10 0 10 -10v-294q0 -10 -10 -10h-55q-10 0 -10 10z" />
    <glyph glyph-name="section" unicode="&#xa7;" horiz-adv-x="460" 
d="M233 -145q-79 0 -129.5 40t-54.5 108q0 10 10 10h66q10 0 11 -10q4 -38 30.5 -58.5t69.5 -20.5q42 0 67.5 22.5t25.5 58.5q0 65 -86 80l-59 12q-138 29 -138 142q0 48 26.5 83t71.5 48q-101 32 -101 130q0 67 51.5 109.5t133.5 42.5q79 0 130 -40.5t55 -106.5
q0 -10 -10 -10h-67q-10 0 -11 10q-4 37 -31 58t-69 21t-67.5 -22t-25.5 -58q0 -64 86 -81l60 -11q66 -13 101.5 -50t35.5 -93q0 -48 -26 -83t-71 -48q100 -31 100 -131q0 -67 -52 -109q-52 -43 -133 -43zM232 175q48 0 75.5 22t27.5 58q0 37 -29 58t-77 21q-47 0 -74.5 -22
t-27.5 -58t28.5 -57.5t76.5 -21.5z" />
    <glyph glyph-name="dieresis" unicode="&#xa8;" horiz-adv-x="338" 
d="M33 735q0 22 14.5 36.5t36.5 14.5t36.5 -14.5t14.5 -36.5q0 -20 -14.5 -34.5t-36.5 -14.5t-36.5 14.5t-14.5 34.5zM252 686q-22 0 -36.5 14.5t-14.5 34.5q0 22 14.5 36.5t36.5 14.5q21 0 35.5 -14.5t14.5 -36.5q0 -20 -14.5 -34.5t-35.5 -14.5z" />
    <glyph glyph-name="copyright" unicode="&#xa9;" 
d="M723 321q0 -145 -98 -240q-97 -93 -244 -93q-148 0 -245 93q-97 94 -97 240t97 239q97 94 245 94q147 0 244 -94q98 -95 98 -239zM182 124q79 -76 199 -76t199 76q80 77 80 197q0 119 -80 196t-199 77t-199 -77q-79 -76 -79 -196q0 -121 79 -197zM387 493q96 0 139 -76
q4 -8 -4 -13l-39 -18q-8 -5 -13 5q-26 45 -84 45q-46 0 -74 -31.5t-28 -83.5q0 -53 28 -84.5t74 -31.5q60 0 84 46q5 10 13 5l39 -18q8 -5 4 -13q-20 -36 -56.5 -56.5t-82.5 -20.5q-73 0 -120 48q-47 50 -47 125t47 124q47 48 120 48z" />
    <glyph glyph-name="ordfeminine" unicode="&#xaa;" horiz-adv-x="450" 
d="M332 644v31q0 10 10 10h46q10 0 10 -10v-334q0 -10 -10 -10h-46q-10 0 -10 10v32q-40 -52 -123 -52q-78 0 -127 52t-49 135t49 135t128 52q78 0 122 -51zM222 382q37 0 67 17t43 44v129q-14 28 -44 45t-66 17q-54 0 -87 -34.5t-33 -90.5t33 -91.5t87 -35.5z" />
    <glyph glyph-name="guillemotleft" unicode="&#xab;" horiz-adv-x="472" 
d="M184 399h69q15 0 7 -12l-96 -167l96 -167q8 -12 -7 -12h-69q-8 0 -12 7l-95 165q-4 7 0 14l95 165q4 7 12 7zM358 399h68q14 0 7 -12l-95 -167l95 -167q7 -12 -7 -12h-68q-8 0 -12 7l-94 165q-4 7 0 14l94 165q4 7 12 7z" />
    <glyph glyph-name="logicalnot" unicode="&#xac;" horiz-adv-x="547" 
d="M495 326v-188q0 -10 -10 -10h-68q-10 0 -10 10v111h-345q-10 0 -10 10v67q0 10 10 10h423q10 0 10 -10z" />
    <glyph glyph-name="registered" unicode="&#xae;" horiz-adv-x="541" 
d="M272 653q101 0 168 -67q68 -68 68 -166q0 -101 -67 -168q-67 -66 -169 -66q-104 0 -172 66q-68 68 -68 168q0 98 68 166q68 67 172 67zM271 228q81 0 137 53q56 54 56 138q0 83 -56 137t-137 54q-83 0 -139 -54q-54 -52 -54 -137t54 -138q56 -53 139 -53zM294 392l55 -59
q11 -12 -5 -12h-32q-8 0 -12 6l-58 65h-7v-61q0 -10 -10 -10h-23q-10 0 -10 10v176q0 10 10 10h86q33 0 52 -17t19 -45t-17.5 -44.5t-47.5 -18.5zM282 475h-47v-48h47q30 0 30 24t-30 24z" />
    <glyph glyph-name="overscore" unicode="&#xaf;" horiz-adv-x="388" 
d="M75 706v42q0 10 10 10h222q10 0 10 -10v-42q0 -10 -10 -10h-222q-10 0 -10 10z" />
    <glyph glyph-name="degree" unicode="&#xb0;" horiz-adv-x="258" 
d="M17 540q0 48 32 80.5t79 32.5t80 -32.5t33 -80.5q0 -47 -33 -79t-80 -32t-79 32t-32 79zM128 481q26 0 43.5 17.5t17.5 42.5t-17.5 42.5t-43.5 17.5q-25 0 -42 -17.5t-17 -42.5q0 -26 17 -43t42 -17z" />
    <glyph glyph-name="plusminus" unicode="&#xb1;" horiz-adv-x="452" 
d="M262 423v-90h144q10 0 10 -10v-50q0 -10 -10 -10h-144v-91q0 -10 -10 -10h-51q-10 0 -10 10v91h-145q-10 0 -10 10v50q0 10 10 10h145v90q0 10 10 10h51q10 0 10 -10zM406 0h-360q-10 0 -10 10v50q0 10 10 10h360q10 0 10 -10v-50q0 -10 -10 -10z" />
    <glyph glyph-name="uni00B2" unicode="&#xb2;" horiz-adv-x="440" 
d="M309 489l-135 -142h209q10 0 10 -10v-54q0 -10 -10 -10h-320q-10 0 -10 10v41q0 7 5 12l189 195q57 59 57 110q0 37 -24 59t-62 22q-34 0 -57 -16.5t-30 -44.5q-3 -11 -12 -9l-58 9q-11 2 -8 11q11 56 57.5 89.5t111.5 33.5q73 0 117.5 -40.5t44.5 -108.5q0 -78 -75 -157
z" />
    <glyph glyph-name="uni00B3" unicode="&#xb3;" horiz-adv-x="464" 
d="M384 710l-122 -121q68 -5 109 -48t41 -109q0 -74 -52 -120q-52 -47 -131 -47q-73 0 -121 39.5t-56 104.5q-1 10 8 12l59 11q11 2 12 -9q3 -39 31 -62.5t68 -23.5q45 0 73.5 27t28.5 71q0 39 -24.5 64t-65.5 30q-11 0 -24 0.5t-19.5 1t-10.5 0.5h-3q-9 0 -12 8l-12 38
q-3 7 4 14l126 125h-200q-10 0 -10 10v50q0 10 10 10h288q10 0 10 -10v-54q0 -7 -5 -12z" />
    <glyph glyph-name="acute" unicode="&#xb4;" horiz-adv-x="244" 
d="M233 801l-136 -109q-8 -6 -14 1l-12 13q-6 7 -1 14l116 127q8 7 14 1l33 -33q8 -7 0 -14z" />
    <glyph glyph-name="uni00B5" unicode="&#xb5;" horiz-adv-x="594" 
d="M519 59h18q11 2 11 -9v-41q0 -9 -9 -11q-52 -12 -91 4.5t-51 57.5q-16 -32 -52 -51.5t-78 -19.5q-43 0 -76 18.5t-47 50.5v-265q0 -10 -10 -10h-63q-10 0 -10 10v638q0 10 10 10h63q10 0 10 -10v-232q0 -68 31 -102.5t87 -34.5q57 0 89.5 34.5t32.5 94.5v240q0 10 10 10
h63q10 0 10 -10v-296q0 -76 52 -76z" />
    <glyph glyph-name="paragraph" unicode="&#xb6;" horiz-adv-x="551" 
d="M185 642h356q10 0 10 -10v-31q0 -10 -10 -10h-65v-686q0 -10 -10 -10h-32q-10 0 -10 10v686h-98v-684q0 -10 -10 -10h-53q-10 0 -10 10v432h-68q-72 0 -114 41t-42 111q0 69 42 110t114 41z" />
    <glyph glyph-name="middot" unicode="&#xb7;" horiz-adv-x="317" 
d="M72 269q0 35 25.5 60.5t60.5 25.5t61 -25.5t26 -60.5q0 -34 -26 -59t-61 -25t-60.5 25t-25.5 59z" />
    <glyph glyph-name="cedilla" unicode="&#xb8;" horiz-adv-x="252" 
d="M144 -6l-28 -46q33 7 66 -13q32 -21 32 -64q0 -41 -30 -64.5t-67.5 -22t-70.5 15.5q-7 4 -7 12v29q0 13 11 5q26 -18 63 -11t37 38q0 18 -18 29.5t-43 9.5q-8 0 -13 5l-9 11q-5 7 -2 14l40 82q3 7 12 7h20q10 0 10 -10v-14q0 -7 -3 -13z" />
    <glyph glyph-name="uni00B9" unicode="&#xb9;" horiz-adv-x="328" 
d="M161 700l-112 -63q-12 -7 -12 7v52q0 8 7 12l120 74q7 4 13 4h55q10 0 10 -10v-493q0 -10 -10 -10h-61q-10 0 -10 10v417z" />
    <glyph glyph-name="ordmasculine" unicode="&#xba;" horiz-adv-x="444" 
d="M221 695q85 0 137 -54q53 -55 53 -134q0 -80 -53 -133t-137 -53q-83 0 -136 53q-52 52 -52 133t52 134q53 54 136 54zM221 382q54 0 88.5 35.5t34.5 89.5t-34.5 90t-88.5 36q-52 0 -85.5 -36t-33.5 -90t33.5 -89.5t85.5 -35.5z" />
    <glyph glyph-name="guillemotright" unicode="&#xbb;" horiz-adv-x="472" 
d="M46 399h69q8 0 12 -7l95 -165q4 -7 0 -14l-95 -165q-4 -7 -12 -7h-69q-14 0 -7 12l96 167l-96 167q-8 12 7 12zM221 399h68q8 0 12 -7l94 -165q4 -7 0 -14l-94 -165q-4 -7 -12 -7h-68q-15 0 -7 12l95 167l-95 167q-7 12 7 12z" />
    <glyph glyph-name="onequarter" unicode="&#xbc;" horiz-adv-x="925" 
d="M134 -56l523 784q5 8 13 3l31 -20q7 -4 2 -13l-522 -784q-5 -8 -13 -3l-31 20q-8 5 -3 13zM211 205h-60q-10 0 -10 10v385l-106 -60q-12 -8 -12 7v52q0 8 7 12l114 71q7 4 13 4h54q10 0 10 -10v-461q0 -10 -10 -10zM824 471v-272h71q10 0 10 -10v-47q0 -10 -10 -10h-71
v-122q0 -10 -10 -10h-58q-10 0 -10 10v122h-223q-10 0 -10 10v44q0 9 4 13l198 276q5 6 12 6h87q10 0 10 -10zM746 406l-147 -207h147v207z" />
    <glyph glyph-name="onehalf" unicode="&#xbd;" horiz-adv-x="956" 
d="M134 -56l523 784q5 8 13 3l31 -20q7 -4 2 -13l-522 -784q-5 -8 -13 -3l-31 20q-8 5 -3 13zM211 205h-60q-10 0 -10 10v385l-106 -60q-12 -8 -12 7v52q0 8 7 12l114 71q7 4 13 4h54q10 0 10 -10v-461q0 -10 -10 -10zM853 202l-123 -128h190q10 0 10 -10v-54q0 -10 -10 -10
h-301q-10 0 -10 10v41q0 7 5 12l177 182q51 53 51 98q0 34 -21.5 54t-56.5 20q-62 0 -77 -56q-3 -9 -12 -8l-58 8q-11 2 -8 11q10 53 53 85.5t106 32.5q69 0 111.5 -38.5t42.5 -103.5q0 -76 -69 -146z" />
    <glyph glyph-name="threequarters" unicode="&#xbe;" horiz-adv-x="1025" 
d="M234 -56l523 784q5 8 13 3l31 -20q7 -4 2 -13l-522 -784q-5 -8 -13 -3l-31 20q-8 5 -3 13zM370 355q0 -69 -49 -114q-50 -44 -124 -44q-69 0 -115 37t-53 99q-1 10 8 12l59 11q10 2 12 -9q3 -35 28.5 -56.5t61.5 -21.5q40 0 65.5 24.5t25.5 63.5q0 37 -21.5 59t-58.5 26
q-42 2 -52 2h-3q-8 0 -11 8l-12 38q-3 7 4 14l114 112h-183q-10 0 -10 10v50q0 10 10 10h271q10 0 10 -10v-53q0 -7 -5 -12l-110 -110q62 -5 100 -45t38 -101zM923 471v-272h71q10 0 10 -10v-47q0 -10 -10 -10h-71v-122q0 -10 -10 -10h-58q-10 0 -10 10v122h-223
q-10 0 -10 10v44q0 9 4 13l198 276q4 6 12 6h87q10 0 10 -10zM845 406l-147 -207h147v207z" />
    <glyph glyph-name="questiondown" unicode="&#xbf;" horiz-adv-x="410" 
d="M136 474q0 24 18 40.5t44 16.5t43.5 -16.5t17.5 -41.5t-17 -41.5t-43 -16.5t-44.5 17t-18.5 42zM209 339q60 0 96.5 -32t36.5 -85q0 -59 -41 -91q-34 -26 -82 -47q-52 -23 -72 -42t-20 -45q0 -31 20 -48t54 -17q36 0 58.5 17.5t25.5 45.5q0 11 11 9l55 -8q11 -2 9 -11
q-7 -52 -50.5 -84.5t-109.5 -32.5q-69 0 -110.5 34t-41.5 93q0 49 28.5 80t93.5 59l20 9l38 18q38 21 38 58q0 26 -16.5 41t-44.5 15q-30 0 -47.5 -17.5t-18.5 -45.5q-2 -11 -11 -9l-52 8q-9 1 -9 10q4 53 42.5 85.5t99.5 32.5z" />
    <glyph glyph-name="Agrave" unicode="&#xc0;" horiz-adv-x="660" 
d="M233 844l116 -128q6 -8 0 -14l-13 -13q-6 -6 -14 0l-135 109q-7 8 -1 14l33 33q7 7 14 -1zM636 0h-73q-8 0 -11 8l-65 153h-317l-65 -153q-3 -8 -11 -8h-70q-12 0 -8 12l268 621q3 8 11 8h69q8 0 11 -8l269 -621q4 -12 -8 -12zM329 539l-129 -307h258z" />
    <glyph glyph-name="Aacute" unicode="&#xc1;" horiz-adv-x="660" 
d="M439 845l33 -33q8 -7 0 -14l-136 -109q-8 -6 -14 1l-12 13q-6 7 -1 14l116 127q7 8 14 1zM636 0h-73q-8 0 -11 8l-65 153h-317l-65 -153q-3 -8 -11 -8h-70q-12 0 -8 12l268 621q3 8 11 8h69q8 0 11 -8l269 -621q4 -12 -8 -12zM329 539l-129 -307h258z" />
    <glyph glyph-name="Acircumflex" unicode="&#xc2;" horiz-adv-x="660" 
d="M413 688l-84 84l-84 -84q-7 -6 -14 -2l-24 17q-7 6 -2 14l80 105q5 6 13 6h62q8 0 13 -6l80 -105q5 -8 -2 -14l-24 -17q-7 -4 -14 2zM636 0h-73q-8 0 -11 8l-65 153h-317l-65 -153q-3 -8 -11 -8h-70q-12 0 -8 12l268 621q3 8 11 8h69q8 0 11 -8l269 -621q4 -12 -8 -12z
M329 539l-129 -307h258z" />
    <glyph glyph-name="Atilde" unicode="&#xc3;" horiz-adv-x="660" 
d="M251 701q-1 -10 -10 -10h-24q-10 0 -10 9q-6 43 12.5 68.5t52.5 25.5q25 0 58 -21q35 -20 49 -20q26 0 28 32q0 10 10 10h24q9 0 11 -9q5 -41 -14 -66t-55 -25q-25 0 -60 20t-46 20q-26 0 -26 -34zM636 0h-73q-8 0 -11 8l-65 153h-317l-65 -153q-3 -8 -11 -8h-70
q-12 0 -8 12l268 621q3 8 11 8h69q8 0 11 -8l269 -621q4 -12 -8 -12zM329 539l-129 -307h258z" />
    <glyph glyph-name="Adieresis" unicode="&#xc4;" horiz-adv-x="660" 
d="M194 731q0 22 14.5 36.5t36.5 14.5t36.5 -14.5t14.5 -36.5q0 -20 -14.5 -34.5t-36.5 -14.5t-36.5 14.5t-14.5 34.5zM413 682q-22 0 -36.5 14.5t-14.5 34.5q0 22 14.5 36.5t36.5 14.5q21 0 35.5 -14.5t14.5 -36.5q0 -20 -14.5 -34.5t-35.5 -14.5zM636 0h-73q-8 0 -11 8
l-65 153h-317l-65 -153q-3 -8 -11 -8h-70q-12 0 -8 12l268 621q3 8 11 8h69q8 0 11 -8l269 -621q4 -12 -8 -12zM329 539l-129 -307h258z" />
    <glyph glyph-name="Aring" unicode="&#xc5;" horiz-adv-x="660" 
d="M636 0h-73q-8 0 -11 8l-65 153h-317l-65 -153q-3 -8 -11 -8h-70q-12 0 -8 12l255 592q-49 28 -49 87q0 43 30.5 73t77.5 30t77 -29.5t30 -73.5q0 -59 -49 -87l256 -592q4 -12 -8 -12zM282 693q0 -22 14 -36t34 -14q19 0 33.5 14.5t14.5 35.5t-14.5 35t-33.5 14t-33.5 -14
t-14.5 -35zM329 539l-129 -307h258z" />
    <glyph glyph-name="AE" unicode="&#xc6;" horiz-adv-x="822" 
d="M769 630v-62q0 -10 -10 -10l-304 1v-197l273 -1q10 0 10 -10v-58q0 -10 -10 -10h-273v-201h304q10 0 10 -10v-62q0 -10 -10 -10h-377q-10 0 -10 10v163h-199l-63 -165q-3 -8 -11 -8h-76q-11 0 -7 12l243 621q3 8 11 8l489 -1q10 0 10 -10zM201 247h171v312h-53z" />
    <glyph glyph-name="Ccedilla" unicode="&#xc7;" horiz-adv-x="693" 
d="M361 66q72 0 128 33.5t77 88.5q3 9 12 6l66 -24q10 -4 6 -13q-31 -75 -105.5 -120.5t-170.5 -48.5l-23 -39q33 7 66 -13q32 -21 32 -64q0 -41 -30 -64.5t-67.5 -22t-70.5 15.5q-7 4 -7 12v29q0 13 11 5q17 -11 40.5 -13t41.5 8.5t18 31.5q0 18 -18 29.5t-43 9.5
q-8 0 -13 5l-9 11q-5 7 -2 14l23 47q-129 14 -206 103q-78 91 -78 228q0 148 89 240q90 93 234 93q100 0 177.5 -45.5t110.5 -124.5q4 -10 -5 -13l-67 -25q-9 -3 -12 6q-21 55 -77 89.5t-128 34.5q-105 0 -170 -71q-64 -70 -64 -184q0 -115 64 -185t170 -70z" />
    <glyph glyph-name="Egrave" unicode="&#xc8;" horiz-adv-x="523" 
d="M173 844l116 -128q6 -8 0 -14l-13 -13q-6 -6 -14 0l-135 109q-7 8 -1 14l33 33q7 7 14 -1zM471 631v-58q0 -10 -10 -10h-302v-205h271q10 0 10 -10v-53q0 -10 -10 -10h-271v-207h302q10 0 10 -10v-58q0 -10 -10 -10h-375q-10 0 -10 10v621q0 10 10 10h375q10 0 10 -10z
" />
    <glyph glyph-name="Eacute" unicode="&#xc9;" horiz-adv-x="523" 
d="M379 845l33 -33q8 -7 0 -14l-136 -109q-8 -6 -14 1l-12 13q-6 7 -1 14l116 127q7 8 14 1zM471 631v-58q0 -10 -10 -10h-302v-205h271q10 0 10 -10v-53q0 -10 -10 -10h-271v-207h302q10 0 10 -10v-58q0 -10 -10 -10h-375q-10 0 -10 10v621q0 10 10 10h375q10 0 10 -10z
" />
    <glyph glyph-name="Ecircumflex" unicode="&#xca;" horiz-adv-x="523" 
d="M353 688l-84 84l-84 -84q-7 -6 -14 -2l-24 17q-7 6 -2 14l80 105q5 6 13 6h62q8 0 13 -6l80 -105q5 -8 -2 -14l-24 -17q-7 -4 -14 2zM471 631v-58q0 -10 -10 -10h-302v-205h271q10 0 10 -10v-53q0 -10 -10 -10h-271v-207h302q10 0 10 -10v-58q0 -10 -10 -10h-375
q-10 0 -10 10v621q0 10 10 10h375q10 0 10 -10z" />
    <glyph glyph-name="Edieresis" unicode="&#xcb;" horiz-adv-x="523" 
d="M135 731q0 22 14.5 36.5t36.5 14.5t36.5 -14.5t14.5 -36.5q0 -20 -14.5 -34.5t-36.5 -14.5t-36.5 14.5t-14.5 34.5zM354 682q-22 0 -36.5 14.5t-14.5 34.5q0 22 14.5 36.5t36.5 14.5q21 0 35.5 -14.5t14.5 -36.5q0 -20 -14.5 -34.5t-35.5 -14.5zM471 631v-58
q0 -10 -10 -10h-302v-205h271q10 0 10 -10v-53q0 -10 -10 -10h-271v-207h302q10 0 10 -10v-58q0 -10 -10 -10h-375q-10 0 -10 10v621q0 10 10 10h375q10 0 10 -10z" />
    <glyph glyph-name="Igrave" unicode="&#xcc;" horiz-adv-x="235" 
d="M138 702l-13 -12q-7 -7 -14 -1l-135 109q-8 8 -1 14l33 33q6 7 14 -1l116 -128q6 -8 0 -14zM160 631v-621q0 -10 -10 -10h-64q-10 0 -10 10v621q0 10 10 10h64q10 0 10 -10z" />
    <glyph glyph-name="Iacute" unicode="&#xcd;" horiz-adv-x="235" 
d="M261 798l-136 -109q-8 -6 -14 1l-12 13q-6 7 -1 14l116 127q8 8 14 1l33 -33q8 -7 0 -14zM160 631v-621q0 -10 -10 -10h-64q-10 0 -10 10v621q0 10 10 10h64q10 0 10 -10z" />
    <glyph glyph-name="Icircumflex" unicode="&#xce;" horiz-adv-x="235" 
d="M19 686l-24 17q-7 6 -2 14l80 105q5 6 13 6h62q8 0 13 -6l80 -105q5 -8 -2 -14l-24 -17q-7 -4 -14 2l-84 84l-84 -84q-7 -6 -14 -2zM160 631v-621q0 -10 -10 -10h-64q-10 0 -10 10v621q0 10 10 10h64q10 0 10 -10z" />
    <glyph glyph-name="Idieresis" unicode="&#xcf;" horiz-adv-x="235" 
d="M-17 731q0 22 14.5 36.5t36.5 14.5t36.5 -14.5t14.5 -36.5q0 -20 -14.5 -34.5t-36.5 -14.5t-36.5 14.5t-14.5 34.5zM202 682q-22 0 -36.5 14.5t-14.5 34.5q0 22 14.5 36.5t36.5 14.5q21 0 35.5 -14.5t14.5 -36.5q0 -20 -14.5 -34.5t-35.5 -14.5zM160 631v-621
q0 -10 -10 -10h-64q-10 0 -10 10v621q0 10 10 10h64q10 0 10 -10z" />
    <glyph glyph-name="Eth" unicode="&#xd0;" horiz-adv-x="716" 
d="M119 641h201q143 0 233 -90q90 -89 90 -232t-90 -231q-88 -88 -233 -88h-201q-10 0 -10 10v278h-65q-10 0 -10 10v43q0 10 10 10h65v280q0 10 10 10zM193 78h122q109 0 173 66q66 67 66 175q0 109 -66 177q-64 67 -173 67h-122v-212h125q10 0 10 -10v-43q0 -10 -10 -10
h-125v-210z" />
    <glyph glyph-name="Ntilde" unicode="&#xd1;" horiz-adv-x="644" 
d="M247 708q-1 -10 -10 -10h-24q-10 0 -10 9q-6 43 12.5 68.5t52.5 25.5q25 0 58 -21q35 -20 49 -20q26 0 28 32q0 10 10 10h24q9 0 11 -9q5 -41 -14 -66t-55 -25q-25 0 -60 20t-46 20q-26 0 -26 -34zM488 142v489q0 10 10 10h64q10 0 10 -10v-621q0 -10 -10 -10h-64
q-8 0 -12 6l-326 490v-486q0 -10 -10 -10h-64q-10 0 -10 10v621q0 10 10 10h63q7 0 12 -6z" />
    <glyph glyph-name="Ograve" unicode="&#xd2;" horiz-adv-x="739" 
d="M390 714l-13 -12q-7 -7 -14 -1l-135 109q-8 8 -1 14l33 33q6 7 14 -1l116 -128q6 -8 0 -14zM370 -12q-142 0 -237 93q-94 93 -94 239q0 145 94 239q95 95 237 95q140 0 235 -95t95 -239t-95 -239q-94 -93 -235 -93zM611 320q0 112 -69 183t-172 71t-174 -71
q-69 -71 -69 -183q0 -111 69 -183q71 -71 174 -71t172 71q69 72 69 183z" />
    <glyph glyph-name="Oacute" unicode="&#xd3;" horiz-adv-x="739" 
d="M513 810l-136 -109q-8 -6 -14 1l-12 13q-6 7 -1 14l116 127q8 8 14 1l33 -33q8 -7 0 -14zM370 -12q-142 0 -237 93q-94 93 -94 239q0 145 94 239q95 95 237 95q140 0 235 -95t95 -239t-95 -239q-94 -93 -235 -93zM611 320q0 112 -69 183t-172 71t-174 -71
q-69 -71 -69 -183q0 -111 69 -183q71 -71 174 -71t172 71q69 72 69 183z" />
    <glyph glyph-name="Ocircumflex" unicode="&#xd4;" horiz-adv-x="739" 
d="M271 698l-24 17q-7 6 -2 14l80 105q5 6 13 6h62q8 0 13 -6l80 -105q5 -8 -2 -14l-24 -17q-7 -4 -14 2l-84 84l-84 -84q-7 -6 -14 -2zM370 -12q-142 0 -237 93q-94 93 -94 239q0 145 94 239q95 95 237 95q140 0 235 -95t95 -239t-95 -239q-94 -93 -235 -93zM611 320
q0 112 -69 183t-172 71t-174 -71q-69 -71 -69 -183q0 -111 69 -183q71 -71 174 -71t172 71q69 72 69 183z" />
    <glyph glyph-name="Otilde" unicode="&#xd5;" horiz-adv-x="739" 
d="M281 703h-24q-10 0 -10 9q-6 43 12.5 68.5t52.5 25.5q25 0 58 -21q35 -20 49 -20q26 0 28 32q0 10 10 10h24q9 0 11 -9q5 -41 -14 -66t-55 -25q-25 0 -60 20t-46 20q-26 0 -26 -34q-1 -10 -10 -10zM370 -12q-142 0 -237 93q-94 93 -94 239q0 145 94 239q95 95 237 95
q140 0 235 -95t95 -239t-95 -239q-94 -93 -235 -93zM611 320q0 112 -69 183t-172 71t-174 -71q-69 -71 -69 -183q0 -111 69 -183q71 -71 174 -71t172 71q69 72 69 183z" />
    <glyph glyph-name="Odieresis" unicode="&#xd6;" horiz-adv-x="739" 
d="M235 743q0 22 14.5 36.5t36.5 14.5t36.5 -14.5t14.5 -36.5q0 -20 -14.5 -34.5t-36.5 -14.5t-36.5 14.5t-14.5 34.5zM454 694q-22 0 -36.5 14.5t-14.5 34.5q0 22 14.5 36.5t36.5 14.5q21 0 35.5 -14.5t14.5 -36.5q0 -20 -14.5 -34.5t-35.5 -14.5zM370 -12q-142 0 -237 93
q-94 93 -94 239q0 145 94 239q95 95 237 95q140 0 235 -95t95 -239t-95 -239q-94 -93 -235 -93zM611 320q0 112 -69 183t-172 71t-174 -71q-69 -71 -69 -183q0 -111 69 -183q71 -71 174 -71t172 71q69 72 69 183z" />
    <glyph glyph-name="multiply" unicode="&#xd7;" horiz-adv-x="584" 
d="M164 142l-34 34q-7 7 0 14l116 115l-114 114q-7 7 0 14l32 32q7 7 14 0l114 -114l115 115q7 7 14 0l33 -33q7 -7 0 -14l-115 -115l115 -115q7 -7 0 -14l-32 -32q-7 -7 -14 0l-115 115l-115 -116q-7 -7 -14 0z" />
    <glyph glyph-name="Oslash" unicode="&#xd8;" horiz-adv-x="739" 
d="M370 654q141 0 235 -94q95 -95 95 -239q0 -145 -95 -240q-94 -93 -235 -93q-142 0 -237 93q-94 94 -94 239t94 239q95 95 237 95zM370 574q-103 0 -174 -71q-69 -71 -69 -183q0 -56 18 -101l411 269q-71 86 -186 86zM370 67q103 0 172 71q69 70 69 183q0 55 -19 105
l-410 -272q70 -87 188 -87z" />
    <glyph glyph-name="Ugrave" unicode="&#xd9;" horiz-adv-x="641" 
d="M341 702l-13 -12q-7 -7 -14 -1l-135 109q-7 8 -1 14l33 33q7 7 14 -1l116 -128q6 -8 0 -14zM69 222v409q0 10 10 10h65q10 0 10 -10v-406q0 -85 48 -122q47 -37 119 -37q76 0 121.5 40.5t45.5 118.5v406q0 10 10 10h64q10 0 10 -10v-409q0 -115 -71 -175
q-71 -59 -180 -59t-180 58q-72 58 -72 176z" />
    <glyph glyph-name="Uacute" unicode="&#xda;" horiz-adv-x="641" 
d="M464 798l-136 -109q-8 -6 -14 1l-12 13q-6 7 -1 14l116 127q7 8 14 1l33 -33q8 -7 0 -14zM69 222v409q0 10 10 10h65q10 0 10 -10v-406q0 -85 48 -122q47 -37 119 -37q76 0 121.5 40.5t45.5 118.5v406q0 10 10 10h64q10 0 10 -10v-409q0 -115 -71 -175q-71 -59 -180 -59
t-180 58q-72 58 -72 176z" />
    <glyph glyph-name="Ucircumflex" unicode="&#xdb;" horiz-adv-x="641" 
d="M223 686l-24 17q-7 6 -2 14l80 105q5 6 13 6h62q8 0 13 -6l80 -105q5 -8 -2 -14l-24 -17q-8 -4 -14 2l-84 84l-84 -84q-7 -6 -14 -2zM69 222v409q0 10 10 10h65q10 0 10 -10v-406q0 -85 48 -122q47 -37 119 -37q76 0 121.5 40.5t45.5 118.5v406q0 10 10 10h64
q10 0 10 -10v-409q0 -115 -71 -175q-71 -59 -180 -59t-180 58q-72 58 -72 176z" />
    <glyph glyph-name="Udieresis" unicode="&#xdc;" horiz-adv-x="641" 
d="M187 731q0 22 14.5 36.5t36.5 14.5t36.5 -14.5t14.5 -36.5q0 -20 -14.5 -34.5t-36.5 -14.5t-36.5 14.5t-14.5 34.5zM406 682q-22 0 -36.5 14.5t-14.5 34.5q0 22 14.5 36.5t36.5 14.5q21 0 35.5 -14.5t14.5 -36.5q0 -20 -14.5 -34.5t-35.5 -14.5zM69 222v409q0 10 10 10
h65q10 0 10 -10v-406q0 -85 48 -122q47 -37 119 -37q76 0 121.5 40.5t45.5 118.5v406q0 10 10 10h64q10 0 10 -10v-409q0 -115 -71 -175q-71 -59 -180 -59t-180 58q-72 58 -72 176z" />
    <glyph glyph-name="Yacute" unicode="&#xdd;" horiz-adv-x="590" 
d="M440 797l-136 -109q-8 -6 -14 1l-12 13q-6 7 -1 14l116 127q7 7 14 1l33 -33q8 -7 0 -14zM254 266l-241 363q-7 12 7 12h74q8 0 12 -6l191 -289l190 289q5 6 12 6h73q13 0 6 -12l-239 -363v-256q0 -10 -10 -10h-65q-10 0 -10 10v256z" />
    <glyph glyph-name="Thorn" unicode="&#xde;" horiz-adv-x="568" 
d="M163 529h166q96 0 152 -56.5t56 -152.5q0 -92 -57 -151t-153 -59h-164v-100q0 -10 -10 -10h-67q-10 0 -10 10v621q0 10 10 10h67q10 0 10 -10v-102zM163 186h149q63 0 99 37.5t36 98.5q0 58 -35 93t-96 35h-153v-264z" />
    <glyph glyph-name="germandbls" unicode="&#xdf;" horiz-adv-x="511" 
d="M141 0h-61q-10 0 -10 10v440q0 95 54.5 149.5t145.5 54.5q80 0 126 -40q47 -41 47 -107q0 -67 -70 -122l-51 -36q-38 -27 -38 -52q0 -17 14 -28t58 -30q58 -27 84.5 -55.5t26.5 -74.5q0 -55 -39.5 -88t-100.5 -33q-55 0 -89 27.5t-38 74.5q0 10 9 11l43 10q11 2 11 -9
q2 -24 19 -38.5t44 -14.5q30 0 48.5 15.5t18.5 41.5q-3 30 -19 45t-55 32l-17 7l-17 7l-16 8q-7 4 -29 17q-37 30 -37 72q0 47 55 90l54 39q17 13 30 27q17 20 17 50q0 37 -26 59t-67 22q-53 0 -84 -34t-31 -90v-447q0 -10 -10 -10z" />
    <glyph glyph-name="agrave" unicode="&#xe0;" horiz-adv-x="557" 
d="M150 656l116 -128q6 -8 0 -14l-13 -13q-6 -6 -14 0l-135 109q-8 8 -1 14l33 33q6 7 14 -1zM413 391v40q0 10 10 10h63q10 0 10 -10v-421q0 -10 -10 -10h-63q-10 0 -10 10v41q-53 -63 -153 -63q-98 0 -159 64t-61 168q0 106 61 170t159 64q100 0 153 -63zM276 63
q45 0 82.5 20t54.5 53v170q-17 33 -54.5 53t-82.5 20q-68 0 -110 -43.5t-42 -114.5t42 -114.5t110 -43.5z" />
    <glyph glyph-name="aacute" unicode="&#xe1;" horiz-adv-x="557" 
d="M356 657l33 -33q8 -7 0 -14l-136 -109q-7 -6 -14 1l-12 12q-6 6 0 14l115 128q8 8 14 1zM413 391v40q0 10 10 10h63q10 0 10 -10v-421q0 -10 -10 -10h-63q-10 0 -10 10v41q-53 -63 -153 -63q-98 0 -159 64t-61 168q0 106 61 170t159 64q100 0 153 -63zM276 63
q45 0 82.5 20t54.5 53v170q-17 33 -54.5 53t-82.5 20q-68 0 -110 -43.5t-42 -114.5t42 -114.5t110 -43.5z" />
    <glyph glyph-name="acircumflex" unicode="&#xe2;" horiz-adv-x="557" 
d="M329 500l-84 84l-84 -84q-6 -7 -14 -2l-24 17q-7 6 -2 14l80 105q5 6 13 6h62q8 0 13 -6l79 -105q5 -8 -2 -14l-23 -17q-8 -5 -14 2zM413 391v40q0 10 10 10h63q10 0 10 -10v-421q0 -10 -10 -10h-63q-10 0 -10 10v41q-53 -63 -153 -63q-98 0 -159 64t-61 168
q0 106 61 170t159 64q100 0 153 -63zM276 63q45 0 82.5 20t54.5 53v170q-17 33 -54.5 53t-82.5 20q-68 0 -110 -43.5t-42 -114.5t42 -114.5t110 -43.5z" />
    <glyph glyph-name="atilde" unicode="&#xe3;" horiz-adv-x="557" 
d="M167 513q-1 -10 -10 -10h-24q-10 0 -10 9q-6 43 12.5 68.5t52.5 25.5q25 0 58 -21q35 -20 49 -20q26 0 28 32q0 10 10 10h24q9 0 11 -9q5 -41 -14 -66t-55 -25q-25 0 -60 20t-46 20q-26 0 -26 -34zM413 391v40q0 10 10 10h63q10 0 10 -10v-421q0 -10 -10 -10h-63
q-10 0 -10 10v41q-53 -63 -153 -63q-98 0 -159 64t-61 168q0 106 61 170t159 64q100 0 153 -63zM276 63q45 0 82.5 20t54.5 53v170q-17 33 -54.5 53t-82.5 20q-68 0 -110 -43.5t-42 -114.5t42 -114.5t110 -43.5z" />
    <glyph glyph-name="adieresis" unicode="&#xe4;" horiz-adv-x="557" 
d="M111 551q0 22 14.5 36.5t36.5 14.5t36.5 -14.5t14.5 -36.5q0 -21 -14.5 -35t-36.5 -14t-36.5 14t-14.5 35zM330 502q-22 0 -36.5 14t-14.5 35q0 22 14.5 36.5t36.5 14.5q21 0 35.5 -14.5t14.5 -36.5q0 -21 -14.5 -35t-35.5 -14zM413 391v40q0 10 10 10h63q10 0 10 -10
v-421q0 -10 -10 -10h-63q-10 0 -10 10v41q-53 -63 -153 -63q-98 0 -159 64t-61 168q0 106 61 170t159 64q100 0 153 -63zM276 63q45 0 82.5 20t54.5 53v170q-17 33 -54.5 53t-82.5 20q-68 0 -110 -43.5t-42 -114.5t42 -114.5t110 -43.5z" />
    <glyph glyph-name="aring" unicode="&#xe5;" horiz-adv-x="557" 
d="M353 580q0 -43 -30 -72.5t-77 -29.5t-77.5 29.5t-30.5 72.5t30.5 73t77.5 30t77 -29.5t30 -73.5zM198 582q0 -22 14 -36t34 -14q19 0 33.5 14.5t14.5 35.5t-14.5 35t-33.5 14t-33.5 -14t-14.5 -35zM413 391v40q0 10 10 10h63q10 0 10 -10v-421q0 -10 -10 -10h-63
q-10 0 -10 10v41q-53 -63 -153 -63q-98 0 -159 64t-61 168q0 106 61 170t159 64q100 0 153 -63zM276 63q45 0 82.5 20t54.5 53v170q-17 33 -54.5 53t-82.5 20q-68 0 -110 -43.5t-42 -114.5t42 -114.5t110 -43.5z" />
    <glyph glyph-name="ae" unicode="&#xe6;" horiz-adv-x="897" 
d="M857 216q0 -9 -10 -9h-337q-1 -68 40 -108.5t108 -40.5q43 0 78.5 17t54.5 46q5 10 13 2l39 -31q7 -6 2 -14q-28 -42 -78.5 -66t-111.5 -24q-105 0 -166 63v-41q0 -10 -10 -10h-56q-10 0 -10 10v41q-53 -63 -153 -63q-98 0 -159 64t-61 168q0 106 61 170t159 64
q100 0 153 -63v40q0 10 10 10h56q10 0 10 -10v-41q61 64 161 64q94 0 152 -57q58 -55 58 -146q0 -20 -3 -35zM511 265h266q0 53 -35.5 86t-93.5 33t-95 -32.5t-42 -86.5zM276 63q45 0 82.5 20t54.5 53v170q-17 33 -54.5 53t-82.5 20q-68 0 -110 -43.5t-42 -114.5t42 -114.5
t110 -43.5z" />
    <glyph glyph-name="ccedilla" unicode="&#xe7;" horiz-adv-x="507" 
d="M267 62q90 0 122 65q4 9 13 6l57 -21q10 -4 6 -13q-21 -47 -66.5 -76t-105.5 -34l-22 -37q33 7 66 -13q32 -21 32 -64q0 -41 -30 -64.5t-67.5 -22t-70.5 15.5q-7 4 -7 12v29q0 13 11 5q17 -11 40.5 -13t41.5 8.5t18 31.5q0 18 -18 29.5t-43 9.5q-8 0 -13 5l-9 11
q-5 7 -2 14l21 43q-91 9 -147 71q-54 63 -54 160q0 104 63 169q63 64 167 64q67 0 119.5 -30t75.5 -81q4 -9 -6 -13l-57 -21q-9 -3 -13 6q-14 30 -46.5 47.5t-75.5 17.5q-65 0 -104 -43.5t-39 -115.5q0 -71 39.5 -114.5t103.5 -43.5z" />
    <glyph glyph-name="egrave" unicode="&#xe8;" horiz-adv-x="510" 
d="M283 514l-13 -12q-7 -7 -14 -1l-135 109q-7 8 -1 14l33 33q7 7 14 -1l116 -128q6 -8 0 -14zM40 222q0 103 62 168q61 64 161 64q93 0 151 -57q58 -55 58 -146q0 -7 -2 -37q-2 -9 -11 -9h-336q-1 -68 40 -107.5t108 -39.5q42 0 77.5 17t54.5 46q6 10 14 2l38 -31
q7 -6 2 -14q-28 -42 -78 -66t-111 -24q-106 0 -167 63q-61 64 -61 171zM124 265h266q-1 53 -36 86t-93 33t-95 -32.5t-42 -86.5z" />
    <glyph glyph-name="eacute" unicode="&#xe9;" horiz-adv-x="510" 
d="M406 610l-136 -109q-8 -6 -14 1l-12 13q-6 7 -1 14l116 127q7 8 14 1l33 -33q8 -7 0 -14zM40 222q0 103 62 168q61 64 161 64q93 0 151 -57q58 -55 58 -146q0 -7 -2 -37q-2 -9 -11 -9h-336q-1 -68 40 -107.5t108 -39.5q42 0 77.5 17t54.5 46q6 10 14 2l38 -31q7 -6 2 -14
q-28 -42 -78 -66t-111 -24q-106 0 -167 63q-61 64 -61 171zM124 265h266q-1 53 -36 86t-93 33t-95 -32.5t-42 -86.5z" />
    <glyph glyph-name="ecircumflex" unicode="&#xea;" horiz-adv-x="510" 
d="M164 498l-24 17q-7 6 -2 14l80 105q4 6 13 6h62q9 0 13 -6l80 -105q5 -8 -2 -14l-24 -17q-8 -5 -14 2l-84 84l-84 -84q-7 -7 -14 -2zM40 222q0 103 62 168q61 64 161 64q93 0 151 -57q58 -55 58 -146q0 -7 -2 -37q-2 -9 -11 -9h-336q-1 -68 40 -107.5t108 -39.5
q42 0 77.5 17t54.5 46q6 10 14 2l38 -31q7 -6 2 -14q-28 -42 -78 -66t-111 -24q-106 0 -167 63q-61 64 -61 171zM124 265h266q-1 53 -36 86t-93 33t-95 -32.5t-42 -86.5z" />
    <glyph glyph-name="edieresis" unicode="&#xeb;" horiz-adv-x="510" 
d="M128 551q0 22 14.5 36.5t36.5 14.5t36.5 -14.5t14.5 -36.5q0 -21 -14.5 -35t-36.5 -14t-36.5 14t-14.5 35zM347 502q-22 0 -36.5 14t-14.5 35q0 22 14.5 36.5t36.5 14.5q21 0 35.5 -14.5t14.5 -36.5q0 -21 -14.5 -35t-35.5 -14zM40 222q0 103 62 168q61 64 161 64
q93 0 151 -57q58 -55 58 -146q0 -7 -2 -37q-2 -9 -11 -9h-336q-1 -68 40 -107.5t108 -39.5q42 0 77.5 17t54.5 46q6 10 14 2l38 -31q7 -6 2 -14q-28 -42 -78 -66t-111 -24q-106 0 -167 63q-61 64 -61 171zM124 265h266q-1 53 -36 86t-93 33t-95 -32.5t-42 -86.5z" />
    <glyph glyph-name="igrave" unicode="&#xec;" horiz-adv-x="223" 
d="M131 512l-13 -12q-7 -7 -14 -1l-135 109q-7 8 -1 14l33 33q7 7 14 -1l116 -128q6 -8 0 -14zM70 10v421q0 10 10 10h63q10 0 10 -10v-421q0 -10 -10 -10h-63q-10 0 -10 10z" />
    <glyph glyph-name="iacute" unicode="&#xed;" horiz-adv-x="223" 
d="M254 608l-136 -109q-8 -6 -14 1l-12 13q-6 7 -1 14l116 127q7 8 14 1l33 -33q8 -7 0 -14zM70 10v421q0 10 10 10h63q10 0 10 -10v-421q0 -10 -10 -10h-63q-10 0 -10 10z" />
    <glyph glyph-name="icircumflex" unicode="&#xee;" horiz-adv-x="223" 
d="M13 496l-24 17q-7 6 -2 14l80 105q5 6 13 6h62q8 0 13 -6l80 -105q5 -8 -2 -14l-24 -17q-8 -4 -14 2l-84 84l-84 -84q-6 -6 -14 -2zM70 10v421q0 10 10 10h63q10 0 10 -10v-421q0 -10 -10 -10h-63q-10 0 -10 10z" />
    <glyph glyph-name="idieresis" unicode="&#xef;" horiz-adv-x="223" 
d="M-23 541q0 22 14.5 36.5t36.5 14.5t36.5 -14.5t14.5 -36.5q0 -20 -14.5 -34.5t-36.5 -14.5t-36.5 14.5t-14.5 34.5zM196 492q-22 0 -36.5 14.5t-14.5 34.5q0 22 14.5 36.5t36.5 14.5q21 0 35.5 -14.5t14.5 -36.5q0 -20 -14.5 -34.5t-35.5 -14.5zM70 10v421q0 10 10 10h63
q10 0 10 -10v-421q0 -10 -10 -10h-63q-10 0 -10 10z" />
    <glyph glyph-name="eth" unicode="&#xf0;" horiz-adv-x="543" 
d="M302 539l97 -105q5 -5 12 -14l15 -17q20 -20 31 -39q47 -70 46 -149q0 -102 -65 -165q-65 -62 -168 -62q-105 0 -167 61q-63 61 -63 160q0 97 63 159q64 62 164 62q6 0 32 -2l-70 77l-108 -50q-8 -5 -13 5l-16 32q-5 8 5 13l93 44l-73 80q-9 12 6 12h78q7 0 12 -5l49 -54
l98 46q8 5 13 -5l15 -33q5 -8 -5 -13zM420 213q0 76 -57 145q-42 11 -90 11q-67 -1 -108 -45q-40 -43 -40 -111q0 -69 40 -110q41 -41 107 -41t107 42t41 109z" />
    <glyph glyph-name="ntilde" unicode="&#xf1;" horiz-adv-x="543" 
d="M188 513q-1 -10 -10 -10h-24q-10 0 -10 9q-6 43 12.5 68.5t52.5 25.5q25 0 58 -21q35 -20 49 -20q26 0 28 32q0 10 10 10h24q10 0 11 -9q5 -41 -14 -66t-55 -25q-25 0 -60 20t-46 20q-26 0 -26 -34zM297 454q85 0 134.5 -49.5t49.5 -136.5v-258q0 -10 -10 -10h-63
q-10 0 -10 10v245q0 123 -121 123q-81 0 -124 -61v-307q0 -10 -10 -10h-63q-10 0 -10 10v421q0 10 10 10h63q10 0 10 -10v-32q58 55 144 55z" />
    <glyph glyph-name="ograve" unicode="&#xf2;" horiz-adv-x="553" 
d="M296 514l-13 -12q-7 -7 -14 -1l-135 109q-8 8 -1 14l33 33q6 7 14 -1l116 -128q6 -8 0 -14zM40 220q0 100 65 167q66 67 171 67q107 0 171 -67q66 -66 66 -167q0 -100 -66 -166t-171 -66t-171 66q-65 67 -65 166zM124 220q0 -68 42 -113q44 -44 110 -44q68 0 110 44
t42 113t-42 113.5t-110 44.5q-66 0 -110 -45q-42 -43 -42 -113z" />
    <glyph glyph-name="oacute" unicode="&#xf3;" horiz-adv-x="553" 
d="M419 610l-136 -109q-8 -6 -14 1l-12 13q-6 7 -1 14l116 127q8 8 14 1l33 -33q8 -7 0 -14zM40 220q0 100 65 167q66 67 171 67q107 0 171 -67q66 -66 66 -167q0 -100 -66 -166t-171 -66t-171 66q-65 67 -65 166zM124 220q0 -68 42 -113q44 -44 110 -44q68 0 110 44t42 113
t-42 113.5t-110 44.5q-66 0 -110 -45q-42 -43 -42 -113z" />
    <glyph glyph-name="ocircumflex" unicode="&#xf4;" horiz-adv-x="553" 
d="M177 498l-24 17q-7 6 -2 14l80 105q5 6 13 6h62q8 0 13 -6l80 -105q5 -8 -2 -14l-24 -17q-8 -5 -14 2l-84 84l-84 -84q-6 -7 -14 -2zM40 220q0 100 65 167q66 67 171 67q107 0 171 -67q66 -66 66 -167q0 -100 -66 -166t-171 -66t-171 66q-65 67 -65 166zM124 220
q0 -68 42 -113q44 -44 110 -44q68 0 110 44t42 113t-42 113.5t-110 44.5q-66 0 -110 -45q-42 -43 -42 -113z" />
    <glyph glyph-name="otilde" unicode="&#xf5;" horiz-adv-x="553" 
d="M187 503h-24q-10 0 -10 9q-6 43 12.5 68.5t52.5 25.5q25 0 58 -21q35 -20 49 -20q26 0 28 32q0 10 10 10h24q9 0 11 -9q5 -41 -14 -66t-55 -25q-25 0 -60 20t-46 20q-26 0 -26 -34q-1 -10 -10 -10zM40 220q0 100 65 167q66 67 171 67q107 0 171 -67q66 -66 66 -167
q0 -100 -66 -166t-171 -66t-171 66q-65 67 -65 166zM124 220q0 -68 42 -113q44 -44 110 -44q68 0 110 44t42 113t-42 113.5t-110 44.5q-66 0 -110 -45q-42 -43 -42 -113z" />
    <glyph glyph-name="odieresis" unicode="&#xf6;" horiz-adv-x="553" 
d="M141 544q0 22 14.5 36.5t36.5 14.5t36.5 -14.5t14.5 -36.5q0 -20 -14.5 -34.5t-36.5 -14.5t-36.5 14.5t-14.5 34.5zM360 495q-22 0 -36.5 14.5t-14.5 34.5q0 22 14.5 36.5t36.5 14.5q21 0 35.5 -14.5t14.5 -36.5q0 -20 -14.5 -34.5t-35.5 -14.5zM40 220q0 100 65 167
q66 67 171 67q107 0 171 -67q66 -66 66 -167q0 -100 -66 -166t-171 -66t-171 66q-65 67 -65 166zM124 220q0 -68 42 -113q44 -44 110 -44q68 0 110 44t42 113t-42 113.5t-110 44.5q-66 0 -110 -45q-42 -43 -42 -113z" />
    <glyph glyph-name="divide" unicode="&#xf7;" horiz-adv-x="592" 
d="M296 527q25 0 42.5 -18t17.5 -42t-18 -41.5t-42 -17.5t-42.5 17.5t-18.5 41.5t18.5 42t42.5 18zM123 271v50q0 10 10 10h326q10 0 10 -10v-50q0 -10 -10 -10h-326q-10 0 -10 10zM296 66q-24 0 -42.5 17.5t-18.5 40.5q0 24 18.5 42t42.5 18t42 -18t18 -42
q0 -23 -17.5 -40.5t-42.5 -17.5z" />
    <glyph glyph-name="oslash" unicode="&#xf8;" horiz-adv-x="553" 
d="M458 446l-28 -43q83 -68 83 -183q0 -100 -66 -166t-171 -66q-49 0 -95 17l-29 -47q-5 -9 -14 -3l-35 22q-8 5 -3 13l28 45q-88 66 -88 185q0 100 65 167q66 67 171 67q54 0 102 -20l27 44q5 8 14 3l35 -21q9 -6 4 -14zM124 220q0 -73 47 -117l165 264q-30 11 -60 11
q-66 0 -110 -45q-42 -43 -42 -113zM276 63q68 0 110 44t42 113q0 70 -42 113l-163 -261q24 -9 53 -9z" />
    <glyph glyph-name="ugrave" unicode="&#xf9;" horiz-adv-x="529" 
d="M168 644l116 -128q6 -8 0 -14l-13 -13q-6 -6 -14 0l-135 109q-8 8 -1 14l33 33q6 7 14 -1zM381 123v308q0 10 10 10h63q10 0 10 -10v-421q0 -10 -10 -10h-63q-10 0 -10 10v33q-58 -55 -146 -55q-81 0 -125.5 49t-44.5 136v258q0 10 10 10h63q10 0 10 -10v-244
q0 -125 110 -125q80 -2 123 61z" />
    <glyph glyph-name="uacute" unicode="&#xfa;" horiz-adv-x="529" 
d="M374 645l33 -33q8 -7 0 -14l-136 -109q-8 -6 -14 1l-12 13q-6 7 -1 14l116 127q8 8 14 1zM381 123v308q0 10 10 10h63q10 0 10 -10v-421q0 -10 -10 -10h-63q-10 0 -10 10v33q-58 -55 -146 -55q-81 0 -125.5 49t-44.5 136v258q0 10 10 10h63q10 0 10 -10v-244
q0 -125 110 -125q80 -2 123 61z" />
    <glyph glyph-name="ucircumflex" unicode="&#xfb;" horiz-adv-x="529" 
d="M348 488l-84 84l-84 -84q-6 -7 -14 -2l-24 17q-7 6 -2 14l80 105q4 6 13 6h62q9 0 13 -6l80 -105q5 -8 -2 -14l-24 -17q-8 -5 -14 2zM381 123v308q0 10 10 10h63q10 0 10 -10v-421q0 -10 -10 -10h-63q-10 0 -10 10v33q-58 -55 -146 -55q-81 0 -125.5 49t-44.5 136v258
q0 10 10 10h63q10 0 10 -10v-244q0 -125 110 -125q80 -2 123 61z" />
    <glyph glyph-name="udieresis" unicode="&#xfc;" horiz-adv-x="529" 
d="M129 531q0 22 14.5 36.5t36.5 14.5t36.5 -14.5t14.5 -36.5q0 -20 -14.5 -34.5t-36.5 -14.5t-36.5 14.5t-14.5 34.5zM348 482q-22 0 -36.5 14.5t-14.5 34.5q0 22 14.5 36.5t36.5 14.5q21 0 35.5 -14.5t14.5 -36.5q0 -20 -14.5 -34.5t-35.5 -14.5zM381 123v308q0 10 10 10
h63q10 0 10 -10v-421q0 -10 -10 -10h-63q-10 0 -10 10v33q-58 -55 -146 -55q-81 0 -125.5 49t-44.5 136v258q0 10 10 10h63q10 0 10 -10v-244q0 -125 110 -125q80 -2 123 61z" />
    <glyph glyph-name="yacute" unicode="&#xfd;" horiz-adv-x="512" 
d="M382 598l-136 -109q-8 -6 -14 1l-12 13q-6 7 -1 14l116 127q7 8 14 1l33 -33q8 -7 0 -14zM208 69l-190 360q-4 12 7 12h71q9 0 12 -7l147 -282l148 282q3 7 12 7h72q15 0 8 -12l-335 -619q-3 -7 -12 -7h-69q-15 0 -8 12z" />
    <glyph glyph-name="thorn" unicode="&#xfe;" horiz-adv-x="567" 
d="M306 454q99 0 160 -64t61 -170q0 -105 -61 -169q-62 -63 -160 -63q-102 0 -155 66v-241q0 -10 -10 -10h-61q-10 0 -10 10v833q0 10 10 10h61q10 0 10 -10v-258q53 66 155 66zM290 63q68 0 110 43.5t42 114.5t-42 114.5t-110 43.5q-47 0 -84.5 -21.5t-54.5 -57.5v-159
q16 -35 54 -56.5t85 -21.5z" />
    <glyph glyph-name="ydieresis" unicode="&#xff;" horiz-adv-x="512" 
d="M105 531q0 22 14.5 36.5t36.5 14.5t36.5 -14.5t14.5 -36.5q0 -20 -14.5 -34.5t-36.5 -14.5t-36.5 14.5t-14.5 34.5zM324 482q-22 0 -36.5 14.5t-14.5 34.5q0 22 14.5 36.5t36.5 14.5q21 0 35.5 -14.5t14.5 -36.5q0 -20 -14.5 -34.5t-35.5 -14.5zM208 69l-190 360
q-4 12 7 12h71q9 0 12 -7l147 -282l148 282q3 7 12 7h72q15 0 8 -12l-335 -619q-3 -7 -12 -7h-69q-15 0 -8 12z" />
    <glyph glyph-name="Amacron" unicode="&#x100;" horiz-adv-x="660" 
d="M218 755h222q10 0 10 -10v-42q0 -10 -10 -10h-222q-10 0 -10 10v42q0 10 10 10zM636 0h-73q-8 0 -11 8l-65 153h-317l-65 -153q-3 -8 -11 -8h-70q-12 0 -8 12l268 621q3 8 11 8h69q8 0 11 -8l269 -621q4 -12 -8 -12zM329 539l-129 -307h258z" />
    <glyph glyph-name="amacron" unicode="&#x101;" horiz-adv-x="557" 
d="M135 567h222q10 0 10 -10v-42q0 -10 -10 -10h-222q-10 0 -10 10v42q0 10 10 10zM413 391v40q0 10 10 10h63q10 0 10 -10v-421q0 -10 -10 -10h-63q-10 0 -10 10v41q-53 -63 -153 -63q-98 0 -159 64t-61 168q0 106 61 170t159 64q100 0 153 -63zM276 63q45 0 82.5 20
t54.5 53v170q-17 33 -54.5 53t-82.5 20q-68 0 -110 -43.5t-42 -114.5t42 -114.5t110 -43.5z" />
    <glyph glyph-name="Abreve" unicode="&#x102;" horiz-adv-x="660" 
d="M330 683q-55 0 -92 30.5t-45 80.5q-2 11 10 11h43q8 0 10 -9q13 -53 74 -53q28 0 47 14.5t24 38.5q3 9 11 9h43q12 0 10 -11q-9 -51 -46 -81t-89 -30zM636 0h-73q-8 0 -11 8l-65 153h-317l-65 -153q-3 -8 -11 -8h-70q-12 0 -8 12l268 621q3 8 11 8h69q8 0 11 -8l269 -621
q4 -12 -8 -12zM329 539l-129 -307h258z" />
    <glyph glyph-name="abreve" unicode="&#x103;" horiz-adv-x="557" 
d="M247 495q-55 0 -92 30.5t-45 80.5q-2 11 10 11h43q9 0 10 -9q13 -53 74 -53q28 0 47 14.5t24 38.5q3 9 11 9h43q12 0 10 -11q-9 -51 -46 -81t-89 -30zM413 391v40q0 10 10 10h63q10 0 10 -10v-421q0 -10 -10 -10h-63q-10 0 -10 10v41q-53 -63 -153 -63q-98 0 -159 64
t-61 168q0 106 61 170t159 64q100 0 153 -63zM276 63q45 0 82.5 20t54.5 53v170q-17 33 -54.5 53t-82.5 20q-68 0 -110 -43.5t-42 -114.5t42 -114.5t110 -43.5z" />
    <glyph glyph-name="Aogonek" unicode="&#x104;" horiz-adv-x="660" 
d="M645 -102q11 4 12 -6l5 -27q1 -9 -7 -13q-24 -8 -45 -8q-38 0 -60 20.5t-22 54.5q0 48 43 81h-8q-8 0 -11 8l-65 153h-317l-65 -153q-3 -8 -11 -8h-70q-12 0 -8 12l268 621q3 8 11 8h69q8 0 11 -8l269 -621q2 -8 2.5 -8.5t-1.5 -3.5h-4q-58 -24 -58 -68q0 -37 40 -37
q11 0 22 3zM329 539l-129 -307h258z" />
    <glyph glyph-name="aogonek" unicode="&#x105;" horiz-adv-x="557" 
d="M496 -102q10 4 12 -6l5 -27q1 -9 -7 -13q-24 -8 -45 -8q-38 0 -60 20.5t-22 54.5q0 48 43 81q-9 0 -9 10v41q-53 -63 -153 -63q-98 0 -159 64t-61 168q0 106 61 170t159 64q100 0 153 -63v40q0 10 10 10h63q10 0 10 -10v-421q0 -10 -2 -10h-2q-58 -24 -58 -68
q0 -37 40 -37q11 0 22 3zM276 63q45 0 82.5 20t54.5 53v170q-17 33 -54.5 53t-82.5 20q-68 0 -110 -43.5t-42 -114.5t42 -114.5t110 -43.5z" />
    <glyph glyph-name="Cacute" unicode="&#x106;" horiz-adv-x="693" 
d="M505 810l-136 -109q-7 -6 -14 1l-12 12q-6 6 0 14l115 128q8 8 14 1l33 -33q8 -7 0 -14zM362 654q100 0 177.5 -45.5t110.5 -124.5q4 -10 -5 -13l-67 -25q-9 -3 -12 6q-21 55 -77 89.5t-128 34.5q-105 0 -170 -71q-64 -70 -64 -184q0 -115 64 -185t170 -70q72 0 128 33.5
t77 88.5q3 9 12 6l66 -24q10 -4 6 -13q-33 -78 -110.5 -123.5t-177.5 -45.5q-144 0 -234 92q-89 94 -89 241q0 148 89 240q90 93 234 93z" />
    <glyph glyph-name="cacute" unicode="&#x107;" horiz-adv-x="507" 
d="M413 610l-136 -109q-7 -6 -14 1l-12 12q-6 6 0 14l115 128q8 8 14 1l33 -33q8 -7 0 -14zM40 220q0 104 63 169q63 64 167 64q67 0 119.5 -30t75.5 -81q4 -9 -6 -13l-57 -21q-9 -3 -13 6q-14 30 -46.5 47.5t-75.5 17.5q-65 0 -104 -43.5t-39 -115.5q0 -71 39.5 -114.5
t103.5 -43.5q90 0 122 65q4 9 13 6l57 -21q10 -4 6 -13q-23 -52 -75 -81.5t-120 -29.5q-103 0 -167 64q-63 64 -63 168z" />
    <glyph glyph-name="Ccircumflex" unicode="&#x108;" horiz-adv-x="693" 
d="M264 698l-24 17q-7 6 -2 14l80 105q4 6 13 6h62q8 0 13 -6l79 -105q5 -8 -2 -14l-23 -17q-8 -4 -14 2l-84 84l-84 -84q-7 -6 -14 -2zM362 654q100 0 177.5 -45.5t110.5 -124.5q4 -10 -5 -13l-67 -25q-9 -3 -12 6q-21 55 -77 89.5t-128 34.5q-105 0 -170 -71
q-64 -70 -64 -184q0 -115 64 -185t170 -70q72 0 128 33.5t77 88.5q3 9 12 6l66 -24q10 -4 6 -13q-33 -78 -110.5 -123.5t-177.5 -45.5q-144 0 -234 92q-89 94 -89 241q0 148 89 240q90 93 234 93z" />
    <glyph glyph-name="ccircumflex" unicode="&#x109;" horiz-adv-x="507" 
d="M171 498l-24 17q-7 6 -2 14l80 105q5 6 13 6h62q8 0 13 -6l79 -105q5 -8 -2 -14l-23 -17q-7 -5 -14 2l-84 84l-84 -84q-7 -7 -14 -2zM40 220q0 104 63 169q63 64 167 64q67 0 119.5 -30t75.5 -81q4 -9 -6 -13l-57 -21q-9 -3 -13 6q-14 30 -46.5 47.5t-75.5 17.5
q-65 0 -104 -43.5t-39 -115.5q0 -71 39.5 -114.5t103.5 -43.5q90 0 122 65q4 9 13 6l57 -21q10 -4 6 -13q-23 -52 -75 -81.5t-120 -29.5q-103 0 -167 64q-63 64 -63 168z" />
    <glyph glyph-name="Cdotaccent" unicode="&#x10a;" horiz-adv-x="693" 
d="M311 751q0 22 14.5 36.5t36.5 14.5t36.5 -14.5t14.5 -36.5q0 -21 -14.5 -35t-36.5 -14t-36.5 14t-14.5 35zM362 654q100 0 177.5 -45.5t110.5 -124.5q4 -10 -5 -13l-67 -25q-9 -3 -12 6q-21 55 -77 89.5t-128 34.5q-105 0 -170 -71q-64 -70 -64 -184q0 -115 64 -185
t170 -70q72 0 128 33.5t77 88.5q3 9 12 6l66 -24q10 -4 6 -13q-33 -78 -110.5 -123.5t-177.5 -45.5q-144 0 -234 92q-89 94 -89 241q0 148 89 240q90 93 234 93z" />
    <glyph glyph-name="cdotaccent" unicode="&#x10b;" horiz-adv-x="507" 
d="M219 551q0 22 14.5 36.5t36.5 14.5t36.5 -14.5t14.5 -36.5q0 -21 -14.5 -35t-36.5 -14t-36.5 14t-14.5 35zM40 220q0 104 63 169q63 64 167 64q67 0 119.5 -30t75.5 -81q4 -9 -6 -13l-57 -21q-9 -3 -13 6q-14 30 -46.5 47.5t-75.5 17.5q-65 0 -104 -43.5t-39 -115.5
q0 -71 39.5 -114.5t103.5 -43.5q90 0 122 65q4 9 13 6l57 -21q10 -4 6 -13q-23 -52 -75 -81.5t-120 -29.5q-103 0 -167 64q-63 64 -63 168z" />
    <glyph glyph-name="Ccaron" unicode="&#x10c;" horiz-adv-x="693" 
d="M318 704l-80 105q-5 8 2 14l24 18q7 5 14 -2l84 -85l83 85q7 7 15 2l24 -18q8 -6 2 -14l-80 -105q-5 -6 -13 -6h-62q-9 0 -13 6zM362 654q100 0 177.5 -45.5t110.5 -124.5q4 -10 -5 -13l-67 -25q-9 -3 -12 6q-21 55 -77 89.5t-128 34.5q-105 0 -170 -71q-64 -70 -64 -184
q0 -115 64 -185t170 -70q72 0 128 33.5t77 88.5q3 9 12 6l66 -24q10 -4 6 -13q-33 -78 -110.5 -123.5t-177.5 -45.5q-144 0 -234 92q-89 94 -89 241q0 148 89 240q90 93 234 93z" />
    <glyph glyph-name="ccaron" unicode="&#x10d;" horiz-adv-x="507" 
d="M226 504l-80 105q-5 8 2 14l24 18q8 5 14 -2l84 -85l83 85q7 7 15 2l24 -18q8 -6 2 -14l-80 -105q-4 -6 -13 -6h-62q-9 0 -13 6zM40 220q0 104 63 169q63 64 167 64q67 0 119.5 -30t75.5 -81q4 -9 -6 -13l-57 -21q-9 -3 -13 6q-14 30 -46.5 47.5t-75.5 17.5
q-65 0 -104 -43.5t-39 -115.5q0 -71 39.5 -114.5t103.5 -43.5q90 0 122 65q4 9 13 6l57 -21q10 -4 6 -13q-23 -52 -75 -81.5t-120 -29.5q-103 0 -167 64q-63 64 -63 168z" />
    <glyph glyph-name="Dcaron" unicode="&#x10e;" horiz-adv-x="650" 
d="M387 796l-80 -105q-5 -6 -13 -6h-62q-8 0 -13 6l-80 105q-5 8 2 14l24 18q7 4 14 -2l84 -85l83 85q7 7 15 2l24 -18q7 -6 2 -14zM86 641h201q143 0 233 -90q90 -89 90 -232t-90 -231q-88 -88 -233 -88h-201q-10 0 -10 10v621q0 10 10 10zM160 78h122q108 0 173 66
q66 67 66 175q0 109 -66 177q-64 67 -173 67h-122v-485z" />
    <glyph glyph-name="dcaron" unicode="&#x10f;" horiz-adv-x="646" 
d="M412 392v239q0 10 10 10h63q10 0 10 -10v-621q0 -10 -10 -10h-63q-10 0 -10 10v40q-54 -62 -153 -62q-98 0 -159 64t-61 168q0 106 61 170t160 64q98 0 152 -62zM566 449v182q0 10 10 10h49q9 0 9 -10l-13 -182q0 -10 -11 -10h-34q-10 0 -10 10zM276 63q45 0 82 20t54 53
v170q-17 33 -54 53t-82 20q-68 0 -110 -43.5t-42 -114.5t42 -114.5t110 -43.5z" />
    <glyph glyph-name="Dcroat" unicode="&#x110;" horiz-adv-x="727" 
d="M129 641h202q143 0 233 -90q90 -89 90 -232t-90 -231q-88 -88 -233 -88h-202q-10 0 -10 10v278h-65q-10 0 -10 10v43q0 10 10 10h65v280q0 10 10 10zM203 78h123q108 0 173 66q66 67 66 175q0 109 -66 176q-66 68 -173 68h-123v-212h125q10 0 10 -10v-43q0 -10 -10 -10
h-125v-210z" />
    <glyph glyph-name="dslash" unicode="&#x111;" horiz-adv-x="557" 
d="M496 573h52q10 0 10 -10v-42q0 -10 -10 -10h-52v-501q0 -10 -10 -10h-63q-10 0 -10 10v41q-53 -63 -153 -63q-98 0 -159 64t-61 168q0 106 61 170t159 64q100 0 153 -63v120h-115q-10 0 -10 10v42q0 10 10 10h115v58q0 10 10 10h63q10 0 10 -10v-58zM276 63q45 0 82.5 20
t54.5 53v170q-17 33 -54.5 53t-82.5 20q-68 0 -110 -43.5t-42 -114.5t42 -114.5t110 -43.5z" />
    <glyph glyph-name="Emacron" unicode="&#x112;" horiz-adv-x="523" 
d="M158 755h222q10 0 10 -10v-42q0 -10 -10 -10h-222q-10 0 -10 10v42q0 10 10 10zM471 631v-58q0 -10 -10 -10h-302v-205h271q10 0 10 -10v-53q0 -10 -10 -10h-271v-207h302q10 0 10 -10v-58q0 -10 -10 -10h-375q-10 0 -10 10v621q0 10 10 10h375q10 0 10 -10z" />
    <glyph glyph-name="emacron" unicode="&#x113;" horiz-adv-x="510" 
d="M142 515v42q0 10 10 10h222q10 0 10 -10v-42q0 -10 -10 -10h-222q-10 0 -10 10zM40 222q0 103 62 168q61 64 161 64q93 0 151 -57q58 -55 58 -146q0 -7 -2 -37q-2 -9 -11 -9h-336q-1 -68 40 -107.5t108 -39.5q42 0 77.5 17t54.5 46q6 10 14 2l38 -31q7 -6 2 -14
q-28 -42 -78 -66t-111 -24q-106 0 -167 63q-61 64 -61 171zM124 265h266q-1 53 -36 86t-93 33t-95 -32.5t-42 -86.5z" />
    <glyph glyph-name="Ebreve" unicode="&#x114;" horiz-adv-x="523" 
d="M270 683q-55 0 -92 30.5t-45 80.5q-2 11 10 11h43q8 0 10 -9q13 -53 74 -53q28 0 47 14.5t24 38.5q3 9 11 9h43q12 0 10 -11q-9 -51 -46 -81t-89 -30zM471 631v-58q0 -10 -10 -10h-302v-205h271q10 0 10 -10v-53q0 -10 -10 -10h-271v-207h302q10 0 10 -10v-58
q0 -10 -10 -10h-375q-10 0 -10 10v621q0 10 10 10h375q10 0 10 -10z" />
    <glyph glyph-name="ebreve" unicode="&#x115;" horiz-adv-x="510" 
d="M345 617h43q12 0 10 -11q-8 -51 -45.5 -81t-89.5 -30q-55 0 -92 30.5t-45 80.5q-2 11 10 11h43q9 0 10 -9q13 -53 74 -53q28 0 47 14.5t24 38.5q3 9 11 9zM40 222q0 103 62 168q61 64 161 64q93 0 151 -57q58 -55 58 -146q0 -7 -2 -37q-2 -9 -11 -9h-336
q-1 -68 40 -107.5t108 -39.5q42 0 77.5 17t54.5 46q6 10 14 2l38 -31q7 -6 2 -14q-28 -42 -78 -66t-111 -24q-106 0 -167 63q-61 64 -61 171zM124 265h266q-1 53 -36 86t-93 33t-95 -32.5t-42 -86.5z" />
    <glyph glyph-name="Edotaccent" unicode="&#x116;" horiz-adv-x="523" 
d="M218 739q0 22 14.5 36.5t36.5 14.5t36.5 -14.5t14.5 -36.5q0 -21 -14.5 -35t-36.5 -14t-36.5 14t-14.5 35zM471 631v-58q0 -10 -10 -10h-302v-205h271q10 0 10 -10v-53q0 -10 -10 -10h-271v-207h302q10 0 10 -10v-58q0 -10 -10 -10h-375q-10 0 -10 10v621q0 10 10 10h375
q10 0 10 -10z" />
    <glyph glyph-name="edotaccent" unicode="&#x117;" horiz-adv-x="510" 
d="M211 551q0 22 14.5 36.5t36.5 14.5t36.5 -14.5t14.5 -36.5q0 -21 -14.5 -35t-36.5 -14t-36.5 14t-14.5 35zM40 222q0 103 62 168q61 64 161 64q93 0 151 -57q58 -55 58 -146q0 -7 -2 -37q-2 -9 -11 -9h-336q-1 -68 40 -107.5t108 -39.5q42 0 77.5 17t54.5 46q6 10 14 2
l38 -31q7 -6 2 -14q-28 -42 -78 -66t-111 -24q-106 0 -167 63q-61 64 -61 171zM124 265h266q-1 53 -36 86t-93 33t-95 -32.5t-42 -86.5z" />
    <glyph glyph-name="Eogonek" unicode="&#x118;" horiz-adv-x="523" 
d="M472 -102q10 4 12 -6l5 -27q1 -9 -7 -13q-24 -8 -45 -8q-38 0 -60 20.5t-22 54.5q0 48 43 81h-312q-10 0 -10 10v621q0 10 10 10h375q10 0 10 -10v-58q0 -10 -10 -10h-302v-205h271q10 0 10 -10v-53q0 -10 -10 -10h-271v-207h302q10 0 10 -10v-58q0 -10 -1 -10h-2
q-58 -24 -58 -68q0 -37 40 -37q12 0 22 3z" />
    <glyph glyph-name="eogonek" unicode="&#x119;" horiz-adv-x="510" 
d="M470 214q-2 -9 -11 -9h-336q-1 -68 40 -107.5t108 -39.5q42 0 77.5 17t54.5 46q6 10 14 2l38 -31q7 -6 2 -14q-26 -39 -72 -63t-102 -27q-36 -22 -36 -56q0 -37 40 -37q11 0 22 3q11 4 12 -6l5 -27q1 -9 -7 -13q-24 -8 -45 -8q-38 0 -60 20.5t-22 54.5q0 40 32 72
q-87 13 -135.5 74t-48.5 157q0 103 62 168q61 64 161 64q93 0 151 -57q58 -55 58 -146q0 -7 -2 -37zM124 265h266q-1 53 -36 86t-93 33t-95 -32.5t-42 -86.5z" />
    <glyph glyph-name="Ecaron" unicode="&#x11a;" horiz-adv-x="523" 
d="M393 797l-80 -105q-5 -6 -13 -6h-62q-8 0 -13 6l-80 105q-5 8 2 14l24 18q7 5 14 -2l84 -85l83 85q7 7 15 2l24 -18q7 -6 2 -14zM471 631v-58q0 -10 -10 -10h-302v-205h271q10 0 10 -10v-53q0 -10 -10 -10h-271v-207h302q10 0 10 -10v-58q0 -10 -10 -10h-375
q-10 0 -10 10v621q0 10 10 10h375q10 0 10 -10z" />
    <glyph glyph-name="ecaron" unicode="&#x11b;" horiz-adv-x="510" 
d="M219 504l-80 105q-5 8 2 14l24 18q7 5 14 -2l84 -85l83 85q7 7 15 2l24 -18q8 -6 2 -14l-80 -105q-5 -6 -13 -6h-62q-8 0 -13 6zM40 222q0 103 62 168q61 64 161 64q93 0 151 -57q58 -55 58 -146q0 -7 -2 -37q-2 -9 -11 -9h-336q-1 -68 40 -107.5t108 -39.5q42 0 77.5 17
t54.5 46q6 10 14 2l38 -31q7 -6 2 -14q-28 -42 -78 -66t-111 -24q-106 0 -167 63q-61 64 -61 171zM124 265h266q-1 53 -36 86t-93 33t-95 -32.5t-42 -86.5z" />
    <glyph glyph-name="Gcircumflex" unicode="&#x11c;" horiz-adv-x="712" 
d="M446 700l-84 84l-84 -84q-7 -6 -14 -2l-24 17q-7 6 -2 14l80 105q4 6 13 6h62q8 0 13 -6l79 -105q5 -8 -2 -14l-23 -17q-8 -4 -14 2zM244 278v53q0 10 10 10h409q10 0 10 -10v-42q0 -135 -87 -218q-88 -83 -227 -83q-143 0 -232 90q-88 89 -88 239q0 151 90 244t233 93
q98 0 174 -46q76 -45 108 -122q4 -9 -6 -12l-62 -23q-9 -3 -13 6q-23 56 -78 87.5t-125 31.5q-105 0 -170 -71q-64 -70 -64 -187q0 -116 63 -184q65 -68 173 -68q96 0 157 54.5t67 147.5h-332q-10 0 -10 10z" />
    <glyph glyph-name="gcircumflex" unicode="&#x11d;" horiz-adv-x="558" 
d="M382 509l-84 80l-83 -80q-7 -7 -14 -1l-23 16q-7 6 -2 14l78 98q4 6 13 6h63q8 0 12 -6l79 -98q6 -8 -2 -14l-23 -16q-7 -6 -14 1zM402 397v34q0 10 10 10h63q10 0 10 -10v-429q-1 -99 -62 -155.5t-164 -56.5q-72 0 -125 30.5t-77 85.5q-5 8 5 13l57 21q8 3 13 -5
q32 -72 128 -72q68 0 105 36.5t37 100.5v69q-52 -58 -149 -58q-95 0 -154 60q-59 62 -59 161t59 161q58 61 155 61q96 0 148 -57zM268 83q44 0 80 17.5t54 46.5v169q-18 30 -54 47.5t-80 17.5q-65 0 -104.5 -41t-39.5 -108t39.5 -108t104.5 -41z" />
    <glyph glyph-name="Gbreve" unicode="&#x11e;" horiz-adv-x="712" 
d="M363 695q-55 0 -92 30.5t-45 80.5q-2 11 10 11h43q9 0 10 -9q13 -53 74 -53q28 0 47 14.5t24 38.5q3 9 11 9h43q12 0 10 -11q-9 -51 -46 -81t-89 -30zM244 278v53q0 10 10 10h409q10 0 10 -10v-42q0 -135 -87 -218q-88 -83 -227 -83q-143 0 -232 90q-88 89 -88 239
q0 151 90 244t233 93q98 0 174 -46q76 -45 108 -122q4 -9 -6 -12l-62 -23q-9 -3 -13 6q-23 56 -78 87.5t-125 31.5q-105 0 -170 -71q-64 -70 -64 -187q0 -116 63 -184q65 -68 173 -68q96 0 157 54.5t67 147.5h-332q-10 0 -10 10z" />
    <glyph glyph-name="gbreve" unicode="&#x11f;" horiz-adv-x="546" 
d="M244 495q-55 0 -92 30.5t-45 80.5q-2 11 10 11h43q8 0 10 -9q13 -53 74 -53q28 0 47 14.5t24 38.5q3 9 11 9h43q12 0 10 -11q-9 -51 -46 -81t-89 -30zM402 397v34q0 10 10 10h63q10 0 10 -10v-429q-1 -99 -62 -155.5t-164 -56.5q-72 0 -125 30.5t-77 85.5q-5 8 5 13
l57 21q8 3 13 -5q32 -72 128 -72q68 0 105 36.5t37 100.5v69q-52 -58 -149 -58q-95 0 -154 60q-59 62 -59 161t59 161q58 61 155 61q96 0 148 -57zM268 83q44 0 80 17.5t54 46.5v169q-18 30 -54 47.5t-80 17.5q-65 0 -104.5 -41t-39.5 -108t39.5 -108t104.5 -41z" />
    <glyph glyph-name="Gdotaccent" unicode="&#x120;" horiz-adv-x="712" 
d="M311 751q0 22 14.5 36.5t36.5 14.5t36.5 -14.5t14.5 -36.5q0 -21 -14.5 -35t-36.5 -14t-36.5 14t-14.5 35zM244 278v53q0 10 10 10h409q10 0 10 -10v-42q0 -135 -87 -218q-88 -83 -227 -83q-143 0 -232 90q-88 89 -88 239q0 151 90 244t233 93q98 0 174 -46
q76 -45 108 -122q4 -9 -6 -12l-62 -23q-9 -3 -13 6q-23 56 -78 87.5t-125 31.5q-105 0 -170 -71q-64 -70 -64 -187q0 -116 63 -184q65 -68 173 -68q96 0 157 54.5t67 147.5h-332q-10 0 -10 10z" />
    <glyph glyph-name="gdotaccent" unicode="&#x121;" horiz-adv-x="546" 
d="M192 551q0 22 14.5 36.5t36.5 14.5t36.5 -14.5t14.5 -36.5q0 -21 -14.5 -35t-36.5 -14t-36.5 14t-14.5 35zM402 397v34q0 10 10 10h63q10 0 10 -10v-429q-1 -99 -62 -155.5t-164 -56.5q-72 0 -125 30.5t-77 85.5q-5 8 5 13l57 21q8 3 13 -5q32 -72 128 -72q68 0 105 36.5
t37 100.5v69q-52 -58 -149 -58q-95 0 -154 60q-59 62 -59 161t59 161q58 61 155 61q96 0 148 -57zM268 83q44 0 80 17.5t54 46.5v169q-18 30 -54 47.5t-80 17.5q-65 0 -104.5 -41t-39.5 -108t39.5 -108t104.5 -41z" />
    <glyph glyph-name="uni0122" unicode="&#x122;" horiz-adv-x="712" 
d="M244 278v53q0 10 10 10h409q10 0 10 -10v-42q0 -135 -87 -218q-88 -83 -227 -83q-143 0 -232 90q-88 89 -88 239q0 151 90 244t233 93q98 0 174 -46q76 -45 108 -122q4 -9 -6 -12l-62 -23q-9 -3 -13 6q-23 56 -78 87.5t-125 31.5q-105 0 -170 -71q-64 -70 -64 -187
q0 -116 63 -184q65 -68 173 -68q96 0 157 54.5t67 147.5h-332q-10 0 -10 10zM378 -64q23 0 38 -14t15 -37q0 -22 -25 -60l-44 -67q-5 -8 -13 -3l-12 8q-8 5 -3 13l49 69q-10 -2 -12 -2q-19 0 -31.5 12t-12.5 32q0 21 14.5 35t36.5 14z" />
    <glyph glyph-name="uni0123" unicode="&#x123;" horiz-adv-x="546" 
d="M354 657l33 -33q8 -7 0 -14l-136 -109q-8 -6 -14 1l-12 13q-6 7 -1 14l116 127q8 8 14 1zM402 397v34q0 10 10 10h63q10 0 10 -10v-429q-1 -99 -62 -155.5t-164 -56.5q-72 0 -125 30.5t-77 85.5q-5 8 5 13l57 21q8 3 13 -5q32 -72 128 -72q68 0 105 36.5t37 100.5v69
q-52 -58 -149 -58q-95 0 -154 60q-59 62 -59 161t59 161q58 61 155 61q96 0 148 -57zM268 83q44 0 80 17.5t54 46.5v169q-18 30 -54 47.5t-80 17.5q-65 0 -104.5 -41t-39.5 -108t39.5 -108t104.5 -41z" />
    <glyph glyph-name="Hbar" unicode="&#x126;" horiz-adv-x="639" 
d="M568 530h62q10 0 10 -10v-48q0 -10 -10 -10h-62v-452q0 -10 -10 -10h-65q-10 0 -10 10v278h-323v-278q0 -10 -10 -10h-64q-10 0 -10 10v452h-65q-10 0 -10 10v48q0 10 10 10h65v101q0 10 10 10h64q10 0 10 -10v-101h323v101q0 10 10 10h65q10 0 10 -10v-101zM160 361
l323 -1v102h-323v-101z" />
    <glyph glyph-name="hbar" unicode="&#x127;" horiz-adv-x="543" 
d="M297 454q85 0 134.5 -49.5t49.5 -136.5v-258q0 -10 -10 -10h-63q-10 0 -10 10v245q0 123 -121 123q-81 0 -124 -61v-306q0 -10 -10 -10h-63q-10 0 -10 10v500h-60q-10 0 -10 10v42q0 10 10 10h60v58q0 10 10 10h63q10 0 10 -10v-58h107q10 0 10 -10v-42q0 -10 -10 -10
h-107v-112q58 55 144 55z" />
    <glyph glyph-name="Itilde" unicode="&#x128;" horiz-adv-x="235" 
d="M29 691h-24q-10 0 -10 9q-6 43 12.5 68.5t52.5 25.5q25 0 58 -21q35 -20 49 -20q26 0 28 32q0 10 10 10h24q9 0 11 -9q5 -41 -14 -66t-55 -25q-25 0 -60 20t-46 20q-26 0 -26 -34q-1 -10 -10 -10zM160 631v-621q0 -10 -10 -10h-64q-10 0 -10 10v621q0 10 10 10h64
q10 0 10 -10z" />
    <glyph glyph-name="itilde" unicode="&#x129;" horiz-adv-x="223" 
d="M23 501h-24q-10 0 -10 9q-6 43 12.5 68.5t52.5 25.5q25 0 58 -21q35 -20 49 -20q26 0 28 32q0 10 10 10h24q9 0 11 -9q5 -41 -14 -66t-55 -25q-25 0 -60 20t-46 20q-26 0 -26 -34q-1 -10 -10 -10zM70 10v421q0 10 10 10h63q10 0 10 -10v-421q0 -10 -10 -10h-63
q-10 0 -10 10z" />
    <glyph glyph-name="Imacron" unicode="&#x12a;" horiz-adv-x="235" 
d="M-3 703v42q0 10 10 10h222q10 0 10 -10v-42q0 -10 -10 -10h-222q-10 0 -10 10zM160 631v-621q0 -10 -10 -10h-64q-10 0 -10 10v621q0 10 10 10h64q10 0 10 -10z" />
    <glyph glyph-name="imacron" unicode="&#x12b;" horiz-adv-x="223" 
d="M-10 513v42q0 10 10 10h222q10 0 10 -10v-42q0 -10 -10 -10h-222q-10 0 -10 10zM70 10v421q0 10 10 10h63q10 0 10 -10v-421q0 -10 -10 -10h-63q-10 0 -10 10z" />
    <glyph glyph-name="Iogonek" unicode="&#x12e;" horiz-adv-x="235" 
d="M160 -102q10 4 12 -6l5 -27q1 -9 -7 -13q-24 -8 -45 -8q-38 0 -60 20.5t-22 54.5q0 48 43 81q-10 0 -10 10v621q0 10 10 10h64q10 0 10 -10v-621q0 -10 -2 -10h-2q-58 -24 -58 -68q0 -37 40 -37q12 0 22 3z" />
    <glyph glyph-name="iogonek" unicode="&#x12f;" horiz-adv-x="223" 
d="M60 549q0 22 14.5 36.5t36.5 14.5t36.5 -14.5t14.5 -36.5q0 -21 -14.5 -35t-36.5 -14t-36.5 14t-14.5 35zM153 -102q11 4 12 -6l5 -27q1 -9 -7 -13q-24 -8 -45 -8q-38 0 -60 20.5t-22 54.5q0 48 43 81q-9 0 -9 10v421q0 10 10 10h63q10 0 10 -10v-421q0 -10 -2 -10h-2
q-58 -24 -58 -68q0 -37 40 -37q11 0 22 3z" />
    <glyph glyph-name="Idot" unicode="&#x130;" horiz-adv-x="235" 
d="M66 739q0 22 14.5 36.5t36.5 14.5t36.5 -14.5t14.5 -36.5q0 -21 -14.5 -35t-36.5 -14t-36.5 14t-14.5 35zM160 631v-621q0 -10 -10 -10h-64q-10 0 -10 10v621q0 10 10 10h64q10 0 10 -10z" />
    <glyph glyph-name="dotlessi" unicode="&#x131;" horiz-adv-x="223" 
d="M70 10v421q0 10 10 10h63q10 0 10 -10v-421q0 -10 -10 -10h-63q-10 0 -10 10z" />
    <glyph glyph-name="Jcircumflex" unicode="&#x134;" horiz-adv-x="515" 
d="M302 685l-24 17q-7 6 -2 14l80 105q4 6 13 6h62q9 0 13 -6l79 -105q5 -8 -2 -14l-23 -17q-8 -5 -14 2l-84 84l-84 -84q-6 -7 -14 -2zM47 179v117q0 10 10 10h61q10 0 10 -10v-115q0 -57 30 -87.5t84 -30.5q56 0 86 31.5t30 86.5v450q0 10 10 10h64q10 0 10 -10v-452
q0 -89 -55 -140.5t-146 -50.5q-89 0 -141.5 52t-52.5 139z" />
    <glyph glyph-name="jcircumflex" unicode="&#x135;" horiz-adv-x="235" 
d="M27 496l-24 17q-7 6 -2 14l80 105q5 6 13 6h62q8 0 13 -6l79 -105q5 -8 -2 -14l-23 -17q-8 -4 -14 2l-84 84l-84 -84q-6 -6 -14 -2zM157 -197h-63q-10 0 -10 10v618q0 10 10 10h63q10 0 10 -10v-618q0 -10 -10 -10z" />
    <glyph glyph-name="uni0136" unicode="&#x136;" horiz-adv-x="614" 
d="M503 641h80q15 0 6 -12l-237 -262l236 -355q3 -4 1 -8t-8 -4h-81q-8 0 -12 6l-197 293l-131 -144v-145q0 -10 -10 -10h-64q-10 0 -10 10v621q0 10 10 10h64q10 0 10 -10v-360l331 365q5 5 12 5zM329 -52q23 0 38 -14t15 -37q0 -22 -25 -60l-44 -67q-5 -8 -13 -3l-12 8
q-8 5 -3 13l49 69q-10 -2 -12 -2q-19 0 -31.5 12t-12.5 32q0 21 14.5 35t36.5 14z" />
    <glyph glyph-name="uni0137" unicode="&#x137;" horiz-adv-x="516" 
d="M395 441h78q7 0 8.5 -3.5t-3.5 -8.5l-174 -166l178 -251q4 -4 2 -8t-8 -4h-73q-7 0 -12 6l-145 201l-93 -89v-108q0 -10 -10 -10h-63q-10 0 -10 10v621q0 10 10 10h63q10 0 10 -10v-412l230 217q5 5 12 5zM275 -51q23 0 38 -14t15 -37q0 -22 -25 -60l-44 -67
q-5 -8 -13 -3l-12 8q-8 5 -3 13l49 69q-10 -2 -12 -2q-19 0 -31.5 12t-12.5 32q0 21 14.5 35t36.5 14z" />
    <glyph glyph-name="Lacute" unicode="&#x139;" horiz-adv-x="450" 
d="M227 844l33 -33q8 -7 0 -14l-136 -109q-7 -6 -14 1l-12 12q-6 6 0 14l115 128q7 7 14 1zM160 631v-555h257q10 0 10 -10v-56q0 -10 -10 -10h-331q-10 0 -10 10v621q0 10 10 10h64q10 0 10 -10z" />
    <glyph glyph-name="lacute" unicode="&#x13a;" horiz-adv-x="223" 
d="M255 843l-136 -109q-8 -6 -14 1l-12 13q-6 7 -1 14l116 127q8 7 14 1l33 -33q8 -7 0 -14zM143 0h-63q-10 0 -10 10v621q0 10 10 10h63q10 0 10 -10v-621q0 -10 -10 -10z" />
    <glyph glyph-name="uni013B" unicode="&#x13b;" horiz-adv-x="450" 
d="M160 631v-555h257q10 0 10 -10v-56q0 -10 -10 -10h-331q-10 0 -10 10v621q0 10 10 10h64q10 0 10 -10zM246 -52q23 0 38 -14t15 -37q0 -22 -25 -60l-44 -67q-5 -8 -13 -3l-12 8q-8 5 -3 13l49 69q-10 -2 -12 -2q-19 0 -31.5 12t-12.5 32q0 21 14.5 35t36.5 14z" />
    <glyph glyph-name="uni013C" unicode="&#x13c;" horiz-adv-x="223" 
d="M80 641h63q10 0 10 -10v-621q0 -10 -10 -10h-63q-10 0 -10 10v621q0 10 10 10zM111 -52q23 0 38 -14t15 -37q0 -22 -25 -60l-44 -67q-5 -8 -13 -3l-12 8q-8 5 -3 13l49 69q-10 -2 -12 -2q-19 0 -31.5 12t-12.5 32q0 21 14.5 35t36.5 14z" />
    <glyph glyph-name="Lcaron" unicode="&#x13d;" horiz-adv-x="470" 
d="M160 631v-555h257q10 0 10 -10v-56q0 -10 -10 -10h-331q-10 0 -10 10v621q0 10 10 10h64q10 0 10 -10zM302 533q-19 0 -31.5 12t-12.5 32q0 21 14.5 35t36.5 14q23 0 38 -14t15 -37q0 -22 -25 -60l-44 -67q-5 -8 -13 -3l-12 8q-8 5 -3 13l50 69q-3 0 -6 -0.5t-4.5 -1
t-2.5 -0.5z" />
    <glyph glyph-name="lcaron" unicode="&#x13e;" horiz-adv-x="223" 
d="M143 0h-63q-10 0 -10 10v621q0 10 10 10h63q10 0 10 -10v-621q0 -10 -10 -10z" />
    <glyph glyph-name="Ldot" unicode="&#x13f;" horiz-adv-x="470" 
d="M160 631v-555h257q10 0 10 -10v-56q0 -10 -10 -10h-331q-10 0 -10 10v621q0 10 10 10h64q10 0 10 -10zM278 366q0 20 14 33.5t33 13.5t33.5 -14t14.5 -33t-14.5 -33t-33.5 -14t-33 14t-14 33z" />
    <glyph glyph-name="ldot" unicode="&#x140;" horiz-adv-x="376" 
d="M143 0h-63q-10 0 -10 10v621q0 10 10 10h63q10 0 10 -10v-621q0 -10 -10 -10zM329 277q-15 -15 -35 -15t-35 15t-15 35t15 34q15 15 35 15t35 -15q15 -14 15 -34t-15 -35z" />
    <glyph glyph-name="Lslash" unicode="&#x141;" horiz-adv-x="450" 
d="M160 334v-258h257q10 0 10 -10v-56q0 -10 -10 -10h-331q-10 0 -10 10v284l-58 -27q-12 -5 -12 7v51q0 7 7 11l63 30v265q0 10 10 10h64q10 0 10 -10v-225l112 53q12 5 12 -7v-51q0 -8 -7 -12z" />
    <glyph glyph-name="lslash" unicode="&#x142;" horiz-adv-x="276" 
d="M180 423l63 25q12 4 12 -7v-50q0 -8 -8 -11l-67 -27v-343q0 -10 -10 -10h-63q-10 0 -10 10v309l-63 -25q-12 -4 -12 7v51q0 8 8 11l67 27v241q0 10 10 10h63q10 0 10 -10v-208z" />
    <glyph glyph-name="Nacute" unicode="&#x143;" horiz-adv-x="644" 
d="M435 852l33 -33q8 -7 0 -14l-136 -109q-7 -6 -14 1l-12 12q-6 6 0 14l115 128q7 7 14 1zM488 142v489q0 10 10 10h64q10 0 10 -10v-621q0 -10 -10 -10h-64q-8 0 -12 6l-326 490v-486q0 -10 -10 -10h-64q-10 0 -10 10v621q0 10 10 10h63q7 0 12 -6z" />
    <glyph glyph-name="nacute" unicode="&#x144;" horiz-adv-x="543" 
d="M377 657l33 -33q8 -7 0 -14l-136 -109q-7 -6 -14 1l-12 12q-6 6 0 14l115 128q7 8 14 1zM297 454q85 0 134.5 -49.5t49.5 -136.5v-258q0 -10 -10 -10h-63q-10 0 -10 10v245q0 123 -121 123q-81 0 -124 -61v-307q0 -10 -10 -10h-63q-10 0 -10 10v421q0 10 10 10h63
q10 0 10 -10v-32q58 55 144 55z" />
    <glyph glyph-name="uni0145" unicode="&#x145;" horiz-adv-x="644" 
d="M488 142v489q0 10 10 10h64q10 0 10 -10v-621q0 -10 -10 -10h-64q-8 0 -12 6l-326 490v-486q0 -10 -10 -10h-64q-10 0 -10 10v621q0 10 10 10h63q7 0 12 -6zM323 -52q23 0 38 -14t15 -37q0 -22 -25 -60l-44 -67q-5 -8 -13 -3l-12 8q-8 5 -3 13l49 69q-10 -2 -12 -2
q-19 0 -31.5 12t-12.5 32q0 21 14.5 35t36.5 14z" />
    <glyph glyph-name="uni0146" unicode="&#x146;" horiz-adv-x="543" 
d="M297 454q85 0 134.5 -49.5t49.5 -136.5v-258q0 -10 -10 -10h-63q-10 0 -10 10v245q0 123 -121 123q-81 0 -124 -61v-307q0 -10 -10 -10h-63q-10 0 -10 10v421q0 10 10 10h63q10 0 10 -10v-32q58 55 144 55zM269 -52q23 0 38 -14t15 -37q0 -22 -25 -60l-44 -67
q-5 -8 -13 -3l-12 8q-8 5 -3 13l49 69q-10 -2 -12 -2q-19 0 -31.5 12t-12.5 32q0 21 14.5 35t36.5 14z" />
    <glyph glyph-name="Ncaron" unicode="&#x147;" horiz-adv-x="644" 
d="M450 804l-80 -105q-4 -6 -13 -6h-62q-9 0 -13 6l-80 105q-5 8 2 14l24 18q7 4 14 -2l84 -85l83 85q7 7 15 2l24 -18q7 -6 2 -14zM488 142v489q0 10 10 10h64q10 0 10 -10v-621q0 -10 -10 -10h-64q-8 0 -12 6l-326 490v-486q0 -10 -10 -10h-64q-10 0 -10 10v621
q0 10 10 10h63q7 0 12 -6z" />
    <glyph glyph-name="ncaron" unicode="&#x148;" horiz-adv-x="543" 
d="M391 609l-80 -105q-5 -6 -13 -6h-62q-8 0 -13 6l-80 105q-5 8 2 14l24 18q7 5 14 -2l84 -85l83 85q7 7 15 2l24 -18q7 -6 2 -14zM297 454q85 0 134.5 -49.5t49.5 -136.5v-258q0 -10 -10 -10h-63q-10 0 -10 10v245q0 123 -121 123q-81 0 -124 -61v-307q0 -10 -10 -10h-63
q-10 0 -10 10v421q0 10 10 10h63q10 0 10 -10v-32q58 55 144 55z" />
    <glyph glyph-name="Eng" unicode="&#x14a;" horiz-adv-x="654" 
d="M152 0h-66q-10 0 -10 10v621q0 10 10 10h68q8 0 12 -6l327 -492v488q0 10 10 10h66q10 0 10 -10v-679q0 -72 -51 -103t-118 -21q-9 2 -9 11v47q0 10 10 10h32q57 0 57 70v34q-6 0 -11 6l-327 490v-486q0 -10 -10 -10z" />
    <glyph glyph-name="eng" unicode="&#x14b;" horiz-adv-x="543" 
d="M297 454q85 0 134.5 -49.5t49.5 -136.5v-306q0 -71 -47 -100t-104 -16q-9 2 -9 11v43q0 10 11 10q66 -8 66 62v283q0 123 -121 123q-81 0 -124 -61v-307q0 -10 -10 -10h-63q-10 0 -10 10v421q0 10 10 10h63q10 0 10 -10v-32q58 55 144 55z" />
    <glyph glyph-name="Omacron" unicode="&#x14c;" horiz-adv-x="739" 
d="M249 715v42q0 10 10 10h222q10 0 10 -10v-42q0 -10 -10 -10h-222q-10 0 -10 10zM370 -12q-142 0 -237 93q-94 93 -94 239q0 145 94 239q95 95 237 95q140 0 235 -95t95 -239t-95 -239q-94 -93 -235 -93zM611 320q0 112 -69 183t-172 71t-174 -71q-69 -71 -69 -183
q0 -111 69 -183q71 -71 174 -71t172 71q69 72 69 183z" />
    <glyph glyph-name="omacron" unicode="&#x14d;" horiz-adv-x="553" 
d="M155 515v42q0 10 10 10h222q10 0 10 -10v-42q0 -10 -10 -10h-222q-10 0 -10 10zM40 220q0 100 65 167q66 67 171 67q107 0 171 -67q66 -66 66 -167q0 -100 -66 -166t-171 -66t-171 66q-65 67 -65 166zM124 220q0 -68 42 -113q44 -44 110 -44q68 0 110 44t42 113
t-42 113.5t-110 44.5q-66 0 -110 -45q-42 -43 -42 -113z" />
    <glyph glyph-name="Ohungarumlaut" unicode="&#x150;" horiz-adv-x="739" 
d="M438 810l-136 -109q-7 -6 -14 1l-12 12q-6 6 0 14l115 128q7 8 14 1l33 -33q8 -7 0 -14zM588 810l-135 -109q-7 -6 -14 1l-12 12q-6 6 0 14l115 128q8 8 14 1l33 -33q7 -6 -1 -14zM370 -12q-142 0 -237 93q-94 93 -94 239q0 145 94 239q95 95 237 95q140 0 235 -95
t95 -239t-95 -239q-94 -93 -235 -93zM611 320q0 112 -69 183t-172 71t-174 -71q-69 -71 -69 -183q0 -111 69 -183q71 -71 174 -71t172 71q69 72 69 183z" />
    <glyph glyph-name="ohungarumlaut" unicode="&#x151;" horiz-adv-x="553" 
d="M344 610l-136 -109q-7 -6 -14 1l-12 12q-6 6 0 14l115 128q7 8 14 1l33 -33q8 -7 0 -14zM494 610l-135 -109q-7 -6 -14 1l-12 12q-6 6 0 14l115 128q8 8 14 1l33 -33q7 -6 -1 -14zM40 220q0 100 65 167q66 67 171 67q107 0 171 -67q66 -66 66 -167q0 -100 -66 -166
t-171 -66t-171 66q-65 67 -65 166zM124 220q0 -68 42 -113q44 -44 110 -44q68 0 110 44t42 113t-42 113.5t-110 44.5q-66 0 -110 -45q-42 -43 -42 -113z" />
    <glyph glyph-name="OE" unicode="&#x152;" horiz-adv-x="1116" 
d="M1063 665v-63q0 -10 -10 -10h-319v-214h287q10 0 10 -10v-58q0 -10 -10 -10h-287v-218h319q10 0 10 -10v-62q0 -10 -10 -10h-394q-10 0 -10 10v104q-38 -59 -108 -93t-155 -34q-155 0 -251 99t-96 251q0 153 96 252q96 100 248 100q88 0 159 -34.5t107 -92.5v103
q0 10 10 10h394q10 0 10 -10zM390 72q114 0 186 74t72 192t-72 192q-72 75 -188 75q-115 0 -187 -75q-72 -74 -72 -191q0 -116 73 -192q73 -75 188 -75z" />
    <glyph glyph-name="oe" unicode="&#x153;" horiz-adv-x="922" 
d="M883 251q0 -20 -3 -37q0 -9 -10 -9h-337q0 -68 40.5 -107.5t107.5 -39.5q43 0 78.5 17t54.5 46q5 10 13 2l39 -31q7 -6 2 -14q-28 -42 -78.5 -66t-111.5 -24q-141 0 -198 107q-31 -51 -84 -79t-120 -28q-105 0 -171 66q-65 67 -65 166q0 100 65 167q66 67 171 67
q139 0 204 -108q28 51 78.5 79.5t114.5 28.5q93 0 152 -57q58 -55 58 -146zM534 265h266q0 53 -35.5 86t-93.5 33t-95 -32.5t-42 -86.5zM276 63q68 0 110 44t42 113t-42 113.5t-110 44.5q-66 0 -110 -45q-42 -43 -42 -113q0 -68 42 -113q44 -44 110 -44z" />
    <glyph glyph-name="Racute" unicode="&#x154;" horiz-adv-x="576" 
d="M379 846l33 -33q8 -7 0 -14l-136 -109q-7 -6 -14 1l-12 12q-6 6 0 14l115 128q7 7 14 1zM346 309h-16l206 -297q3 -4 1 -8t-8 -4h-78q-7 0 -12 6l-204 303h-75v-299q0 -10 -10 -10h-64q-10 0 -10 10v621q0 10 10 10h258q86 0 135.5 -44t49.5 -120q0 -78 -49.5 -123
t-133.5 -45zM160 568v-194h174q51 0 79 26t28 72q0 45 -28.5 70.5t-79.5 25.5h-173z" />
    <glyph glyph-name="racute" unicode="&#x155;" horiz-adv-x="346" 
d="M233 644l33 -33q8 -7 0 -14l-136 -109q-7 -6 -14 1l-12 12q-6 6 0 14l115 128q7 7 14 1zM284 448q20 0 36 -3q9 -1 9 -11v-56q0 -11 -11 -8q-15 3 -34 3q-99 0 -135 -85l-1 -278q0 -10 -10 -10h-63q-10 0 -10 10v421q0 10 10 10h64q10 0 10 -10v-50q43 67 135 67z" />
    <glyph glyph-name="uni0156" unicode="&#x156;" horiz-adv-x="576" 
d="M346 309h-16l206 -297q3 -4 1 -8t-8 -4h-78q-7 0 -12 6l-204 303h-75v-299q0 -10 -10 -10h-64q-10 0 -10 10v621q0 10 10 10h258q86 0 135.5 -44t49.5 -120q0 -78 -49.5 -123t-133.5 -45zM160 568v-194h174q51 0 79 26t28 72q0 45 -28.5 70.5t-79.5 25.5h-173zM304 -51
q23 0 38 -14t15 -37q0 -22 -25 -60l-44 -67q-5 -8 -13 -3l-12 8q-8 5 -3 13l49 69q-10 -2 -12 -2q-19 0 -31.5 12t-12.5 32q0 21 14.5 35t36.5 14z" />
    <glyph glyph-name="uni0157" unicode="&#x157;" horiz-adv-x="346" 
d="M284 448q20 0 36 -3q9 -1 9 -11v-56q0 -11 -11 -8q-15 3 -34 3q-99 0 -135 -85l-1 -278q0 -10 -10 -10h-63q-10 0 -10 10v421q0 10 10 10h64q10 0 10 -10v-50q43 67 135 67zM106 -52q23 0 38 -14t15 -37q0 -22 -25 -60l-44 -67q-5 -8 -13 -3l-12 8q-8 5 -3 13l49 69
q-10 -2 -12 -2q-19 0 -31.5 12t-12.5 32q0 21 14.5 35t36.5 14z" />
    <glyph glyph-name="Rcaron" unicode="&#x158;" horiz-adv-x="576" 
d="M393 798l-80 -105q-5 -6 -13 -6h-62q-8 0 -13 6l-80 105q-5 8 2 14l24 18q7 4 14 -2l84 -85l83 85q7 7 15 2l24 -18q7 -6 2 -14zM346 309h-16l206 -297q3 -4 1 -8t-8 -4h-78q-7 0 -12 6l-204 303h-75v-299q0 -10 -10 -10h-64q-10 0 -10 10v621q0 10 10 10h258
q86 0 135.5 -44t49.5 -120q0 -78 -49.5 -123t-133.5 -45zM160 568v-194h174q51 0 79 26t28 72q0 45 -28.5 70.5t-79.5 25.5h-173z" />
    <glyph glyph-name="rcaron" unicode="&#x159;" horiz-adv-x="346" 
d="M247 596l-80 -105q-5 -6 -13 -6h-62q-8 0 -13 6l-80 105q-5 8 2 14l24 18q7 4 14 -2l84 -85l83 85q7 7 15 2l24 -18q7 -6 2 -14zM284 448q20 0 36 -3q9 -1 9 -11v-56q0 -11 -11 -8q-15 3 -34 3q-99 0 -135 -85l-1 -278q0 -10 -10 -10h-63q-10 0 -10 10v421q0 10 10 10h64
q10 0 10 -10v-50q43 67 135 67z" />
    <glyph glyph-name="Sacute" unicode="&#x15a;" horiz-adv-x="544" 
d="M400 810l-136 -109q-7 -6 -14 1l-12 12q-6 6 0 14l115 128q7 8 14 1l33 -33q8 -7 0 -14zM271 -12q-139 0 -227 67q-8 6 -3 14l24 47q4 10 14 3q75 -60 190 -60q71 0 109.5 28.5t38.5 79.5q0 57 -43 82q-28 17 -35 19q-23 8 -38 13l-62 17l-50 15q-19 7 -48 21
q-80 41 -85 140q0 83 60 131.5t160 48.5q118 0 206 -60q8 -5 3 -13l-23 -48q-4 -10 -14 -4q-74 53 -170 53q-63 0 -99 -28.5t-36 -76.5t37 -72q29 -17 86 -33l63 -17q65 -18 111 -48q67 -42 67 -136q0 -85 -62.5 -134t-173.5 -49z" />
    <glyph glyph-name="sacute" unicode="&#x15b;" horiz-adv-x="435" 
d="M358 610l-136 -109q-7 -6 -14 1l-12 12q-6 6 0 14l115 128q7 8 14 1l33 -33q8 -7 0 -14zM214 -12q-106 0 -167 48q-8 5 -3 14l19 43q4 10 14 3q59 -41 137 -41q97 0 97 63q-1 22 -12 35.5t-21.5 18t-28.5 8.5q-2 1 -5 1l-81 19q-114 27 -114 121q0 59 46.5 96t121.5 37
q90 0 154 -43q7 -4 3 -13l-19 -44q-4 -10 -14 -3q-51 36 -120 36q-42 0 -65 -17t-23 -45q2 -19 12 -31t21 -16.5t30 -8.5l87 -20q114 -25 114 -125q0 -63 -49.5 -99.5t-133.5 -36.5z" />
    <glyph glyph-name="Scircumflex" unicode="&#x15c;" horiz-adv-x="544" 
d="M158 698l-24 17q-7 6 -2 14l80 105q4 6 13 6h62q9 0 13 -6l79 -105q5 -8 -2 -14l-23 -17q-8 -4 -14 2l-84 84l-84 -84q-7 -6 -14 -2zM271 -12q-139 0 -227 67q-8 6 -3 14l24 47q4 10 14 3q75 -60 190 -60q71 0 109.5 28.5t38.5 79.5q0 57 -43 82q-28 17 -35 19
q-23 8 -38 13l-62 17l-50 15q-19 7 -48 21q-80 41 -85 140q0 83 60 131.5t160 48.5q118 0 206 -60q8 -5 3 -13l-23 -48q-4 -10 -14 -4q-74 53 -170 53q-63 0 -99 -28.5t-36 -76.5t37 -72q29 -17 86 -33l63 -17q65 -18 111 -48q67 -42 67 -136q0 -85 -62.5 -134t-173.5 -49z
" />
    <glyph glyph-name="scircumflex" unicode="&#x15d;" horiz-adv-x="435" 
d="M117 498l-24 17q-7 6 -2 14l80 105q5 6 13 6h62q8 0 13 -6l79 -105q5 -8 -2 -14l-23 -17q-8 -5 -14 2l-84 84l-84 -84q-6 -7 -14 -2zM214 -12q-106 0 -167 48q-8 5 -3 14l19 43q4 10 14 3q59 -41 137 -41q97 0 97 63q-1 22 -12 35.5t-21.5 18t-28.5 8.5q-2 1 -5 1l-81 19
q-114 27 -114 121q0 59 46.5 96t121.5 37q90 0 154 -43q7 -4 3 -13l-19 -44q-4 -10 -14 -3q-51 36 -120 36q-42 0 -65 -17t-23 -45q2 -19 12 -31t21 -16.5t30 -8.5l87 -20q114 -25 114 -125q0 -63 -49.5 -99.5t-133.5 -36.5z" />
    <glyph glyph-name="Scedilla" unicode="&#x15e;" horiz-adv-x="544" 
d="M507 171q0 -81 -58 -130t-162 -53l-21 -32q37 6 66 -14t29 -60t-30 -64t-66.5 -23t-67.5 15q-7 4 -7 12v27q0 12 11 6q24 -19 62 -11q37 7 37 40q0 21 -18 32t-45 4q-9 -1 -14 4l-10 11q-5 8 -1 14l26 40q-118 9 -194 66q-8 6 -3 14l24 47q4 10 14 3q75 -60 190 -60
q71 0 109.5 28.5t38.5 79.5q0 57 -43 82q-28 17 -35 19q-23 8 -38 13l-62 17l-50 15q-19 7 -48 21q-80 41 -85 140q0 83 60 131.5t160 48.5q118 0 206 -60q8 -5 3 -13l-23 -48q-4 -10 -14 -4q-74 53 -170 53q-63 0 -99 -28.5t-36 -76.5t37 -72q29 -17 86 -33l63 -17
q65 -18 111 -48q67 -42 67 -136z" />
    <glyph glyph-name="scedilla" unicode="&#x15f;" horiz-adv-x="435" 
d="M397 124q0 -58 -42.5 -94t-116.5 -41l-23 -35q37 6 66 -14t29 -60t-30 -64t-66.5 -23t-67.5 15q-7 4 -7 12v27q0 12 11 6q25 -19 62 -11q37 7 37 40q0 21 -18 32t-45 4q-9 -1 -14 4l-10 11q-5 8 -1 14l27 42q-88 6 -141 47q-8 5 -3 14l19 43q4 10 14 3q59 -41 137 -41
q97 0 97 63q-1 22 -12 35.5t-21.5 18t-28.5 8.5q-2 1 -5 1l-81 19q-114 27 -114 121q0 59 46.5 96t121.5 37q90 0 154 -43q7 -4 3 -13l-19 -44q-4 -10 -14 -3q-51 36 -120 36q-42 0 -65 -17t-23 -45q2 -19 12 -31t21 -16.5t30 -8.5l87 -20q114 -25 114 -125z" />
    <glyph glyph-name="Scaron" unicode="&#x160;" horiz-adv-x="544" 
d="M213 704l-80 105q-5 8 2 14l24 18q7 5 14 -2l84 -85l83 85q7 7 15 2l24 -18q8 -6 2 -14l-80 -105q-5 -6 -13 -6h-62q-8 0 -13 6zM271 -12q-139 0 -227 67q-8 6 -3 14l24 47q4 10 14 3q75 -60 190 -60q71 0 109.5 28.5t38.5 79.5q0 57 -43 82q-28 17 -35 19q-23 8 -38 13
l-62 17l-50 15q-19 7 -48 21q-80 41 -85 140q0 83 60 131.5t160 48.5q118 0 206 -60q8 -5 3 -13l-23 -48q-4 -10 -14 -4q-74 53 -170 53q-63 0 -99 -28.5t-36 -76.5t37 -72q29 -17 86 -33l63 -17q65 -18 111 -48q67 -42 67 -136q0 -85 -62.5 -134t-173.5 -49z" />
    <glyph glyph-name="scaron" unicode="&#x161;" horiz-adv-x="435" 
d="M171 504l-80 105q-5 8 2 14l24 18q8 5 14 -2l84 -85l83 85q7 7 15 2l24 -18q8 -6 2 -14l-80 -105q-5 -6 -13 -6h-62q-8 0 -13 6zM214 -12q-106 0 -167 48q-8 5 -3 14l19 43q4 10 14 3q59 -41 137 -41q97 0 97 63q-1 22 -12 35.5t-21.5 18t-28.5 8.5q-2 1 -5 1l-81 19
q-114 27 -114 121q0 59 46.5 96t121.5 37q90 0 154 -43q7 -4 3 -13l-19 -44q-4 -10 -14 -3q-51 36 -120 36q-42 0 -65 -17t-23 -45q2 -19 12 -31t21 -16.5t30 -8.5l87 -20q114 -25 114 -125q0 -63 -49.5 -99.5t-133.5 -36.5z" />
    <glyph glyph-name="uni0162" unicode="&#x162;" horiz-adv-x="509" 
d="M298 564v-557q0 -7 -1 -7l-29 -44q37 6 66 -14t29 -60t-30 -64t-66.5 -23t-67.5 15q-7 4 -7 12v27q0 12 11 6q24 -19 62 -11q37 7 37 40q0 21 -18 32t-45 4q-9 -1 -14 4l-10 11q-5 8 -1 14l33 51h-23q-10 0 -10 10v554h-190q-10 0 -10 10v57q0 10 10 10h461q10 0 10 -10
v-57q0 -10 -10 -10h-187z" />
    <glyph glyph-name="uni0163" unicode="&#x163;" horiz-adv-x="419" 
d="M391 431v-49q0 -10 -10 -10h-151v-221q0 -90 89 -90q27 0 56 8q11 3 11 -8v-50q0 -9 -8 -11q-35 -10 -68 -11l-26 -40q37 6 66 -14t29 -60t-30 -64t-66.5 -23t-67.5 15q-7 4 -7 12v27q0 12 11 6q24 -19 62 -11q37 7 37 40q0 21 -18 32t-45 4q-9 -1 -14 4l-10 11
q-5 8 -1 14l32 50q-115 21 -115 152v228h-122q-10 0 -10 10v49q0 10 10 10h122v190q0 10 10 10h63q10 0 10 -10v-190h151q10 0 10 -10z" />
    <glyph glyph-name="Tcaron" unicode="&#x164;" horiz-adv-x="509" 
d="M379 797l-80 -105q-5 -6 -13 -6h-62q-8 0 -13 6l-80 105q-5 8 2 14l24 18q8 5 14 -2l84 -85l83 85q7 7 15 2l24 -18q7 -6 2 -14zM24 641h461q10 0 10 -10v-57q0 -10 -10 -10h-187v-554q0 -10 -10 -10h-64q-10 0 -10 10v554h-190q-10 0 -10 10v57q0 10 10 10z" />
    <glyph glyph-name="tcaron" unicode="&#x165;" horiz-adv-x="395" 
d="M301 664h44q12 0 10 -11l-18 -148q-1 -9 -10 -9h-26q-10 0 -10 10v148q0 10 10 10zM391 431v-49q0 -10 -10 -10h-151v-221q0 -90 89 -90q27 0 56 8q11 3 11 -8v-50q0 -9 -8 -11q-39 -11 -76 -11q-75 0 -115 39t-40 116v228h-122q-10 0 -10 10v49q0 10 10 10h122v190
q0 10 10 10h63q10 0 10 -10v-190h151q10 0 10 -10z" />
    <glyph glyph-name="Tbar" unicode="&#x166;" horiz-adv-x="509" 
d="M495 631v-57q0 -10 -10 -10h-187v-193h128q10 0 10 -10v-51q0 -10 -10 -10h-128v-290q0 -10 -10 -10h-64q-10 0 -10 10v290h-127q-10 0 -10 10v51q0 10 10 10h127v193h-190q-10 0 -10 10v57q0 10 10 10h461q10 0 10 -10z" />
    <glyph glyph-name="tbar" unicode="&#x167;" horiz-adv-x="424" 
d="M391 431v-49q0 -10 -10 -10h-151v-97h151q10 0 10 -10v-42q0 -10 -10 -10h-151v-62q0 -90 89 -90q27 0 56 8q11 3 11 -8v-50q0 -9 -8 -11q-39 -11 -76 -11q-75 0 -115 39t-40 116v69h-121q-10 0 -10 10v42q0 10 10 10h121v97h-122q-10 0 -10 10v49q0 10 10 10h122v190
q0 10 10 10h63q10 0 10 -10v-190h151q10 0 10 -10z" />
    <glyph glyph-name="Utilde" unicode="&#x168;" horiz-adv-x="641" 
d="M233 691h-24q-10 0 -10 9q-6 43 12.5 68.5t52.5 25.5q25 0 58 -21q35 -20 49 -20q26 0 28 32q0 10 10 10h24q9 0 11 -9q5 -41 -14 -66t-55 -25q-25 0 -60 20t-46 20q-26 0 -26 -34q-1 -10 -10 -10zM69 222v409q0 10 10 10h65q10 0 10 -10v-406q0 -85 48 -122
q47 -37 119 -37q76 0 121.5 40.5t45.5 118.5v406q0 10 10 10h64q10 0 10 -10v-409q0 -115 -71 -175q-71 -59 -180 -59t-180 58q-72 58 -72 176z" />
    <glyph glyph-name="utilde" unicode="&#x169;" horiz-adv-x="529" 
d="M186 501q-1 -10 -10 -10h-24q-10 0 -10 9q-6 43 12.5 68.5t52.5 25.5q25 0 58 -21q35 -20 49 -20q26 0 28 32q0 10 10 10h24q10 0 11 -9q5 -41 -14 -66t-55 -25q-25 0 -60 20t-46 20q-26 0 -26 -34zM381 123v308q0 10 10 10h63q10 0 10 -10v-421q0 -10 -10 -10h-63
q-10 0 -10 10v33q-58 -55 -146 -55q-81 0 -125.5 49t-44.5 136v258q0 10 10 10h63q10 0 10 -10v-244q0 -125 110 -125q80 -2 123 61z" />
    <glyph glyph-name="Umacron" unicode="&#x16a;" horiz-adv-x="641" 
d="M200 703v42q0 10 10 10h222q10 0 10 -10v-42q0 -10 -10 -10h-222q-10 0 -10 10zM69 222v409q0 10 10 10h65q10 0 10 -10v-406q0 -85 48 -122q47 -37 119 -37q76 0 121.5 40.5t45.5 118.5v406q0 10 10 10h64q10 0 10 -10v-409q0 -115 -71 -175q-71 -59 -180 -59t-180 58
q-72 58 -72 176z" />
    <glyph glyph-name="umacron" unicode="&#x16b;" horiz-adv-x="529" 
d="M153 555h222q10 0 10 -10v-42q0 -10 -10 -10h-222q-10 0 -10 10v42q0 10 10 10zM381 123v308q0 10 10 10h63q10 0 10 -10v-421q0 -10 -10 -10h-63q-10 0 -10 10v33q-58 -55 -146 -55q-81 0 -125.5 49t-44.5 136v258q0 10 10 10h63q10 0 10 -10v-244q0 -125 110 -125
q80 -2 123 61z" />
    <glyph glyph-name="Uring" unicode="&#x16e;" horiz-adv-x="641" 
d="M321 666q-35 -2 -62 16.5t-38 46.5t-6 59.5t28 52.5q30 30 78 30q47 0 77 -29.5t30 -73.5q0 -43 -30 -72.5t-77 -29.5zM321 720q19 0 33.5 14.5t14.5 35.5t-14.5 35t-33.5 14t-33.5 -14t-14.5 -35q0 -22 14 -36t34 -14zM69 222v409q0 10 10 10h65q10 0 10 -10v-406
q0 -85 48 -122q47 -37 119 -37q76 0 121.5 40.5t45.5 118.5v406q0 10 10 10h64q10 0 10 -10v-409q0 -115 -71 -175q-71 -59 -180 -59t-180 58q-72 58 -72 176z" />
    <glyph glyph-name="uring" unicode="&#x16f;" horiz-adv-x="529" 
d="M371 568q0 -43 -30 -72.5t-77 -29.5t-77.5 29.5t-30.5 72.5t30.5 73t77.5 30t77 -29.5t30 -73.5zM216 570q0 -22 14 -36t34 -14q19 0 33.5 14.5t14.5 35.5t-14.5 35t-33.5 14t-33.5 -14t-14.5 -35zM381 123v308q0 10 10 10h63q10 0 10 -10v-421q0 -10 -10 -10h-63
q-10 0 -10 10v33q-58 -55 -146 -55q-81 0 -125.5 49t-44.5 136v258q0 10 10 10h63q10 0 10 -10v-244q0 -125 110 -125q80 -2 123 61z" />
    <glyph glyph-name="Uhungarumlaut" unicode="&#x170;" horiz-adv-x="641" 
d="M389 798l-136 -109q-8 -6 -14 1l-12 13q-6 7 -1 14l116 127q8 8 14 1l33 -33q8 -7 0 -14zM539 798l-135 -109q-8 -6 -14 1l-12 13q-6 7 -1 14l116 127q7 8 14 1l33 -33q6 -6 -1 -14zM69 222v409q0 10 10 10h65q10 0 10 -10v-406q0 -85 48 -122q47 -37 119 -37
q76 0 121.5 40.5t45.5 118.5v406q0 10 10 10h64q10 0 10 -10v-409q0 -115 -71 -175q-71 -59 -180 -59t-180 58q-72 58 -72 176z" />
    <glyph glyph-name="uhungarumlaut" unicode="&#x171;" horiz-adv-x="529" 
d="M299 645l33 -33q8 -7 0 -14l-136 -109q-8 -6 -14 1l-12 13q-6 7 -1 14l116 127q7 8 14 1zM482 598l-135 -109q-8 -6 -14 1l-12 13q-6 7 -1 14l116 127q8 8 14 1l33 -33q7 -6 -1 -14zM381 123v308q0 10 10 10h63q10 0 10 -10v-421q0 -10 -10 -10h-63q-10 0 -10 10v33
q-58 -55 -146 -55q-81 0 -125.5 49t-44.5 136v258q0 10 10 10h63q10 0 10 -10v-244q0 -125 110 -125q80 -2 123 61z" />
    <glyph glyph-name="Uogonek" unicode="&#x172;" horiz-adv-x="641" 
d="M488 225v406q0 10 10 10h64q10 0 10 -10v-409q0 -107 -62 -166q-63 -60 -159 -67q-37 -22 -37 -57q0 -37 40 -37q12 0 22 3q10 4 12 -6l5 -27q1 -9 -7 -13q-24 -8 -45 -8q-38 0 -60 20.5t-22 54.5q0 40 30 70q-101 9 -160.5 68.5t-59.5 164.5v409q0 10 10 10h65
q10 0 10 -10v-406q0 -85 48 -122q47 -37 119 -37q76 0 121.5 40.5t45.5 118.5z" />
    <glyph glyph-name="uogonek" unicode="&#x173;" horiz-adv-x="529" 
d="M464 -102q10 4 12 -6l5 -27q1 -9 -7 -13q-24 -8 -45 -8q-38 0 -60 20.5t-22 54.5q0 48 43 81q-9 0 -9 10v33q-58 -55 -146 -55q-81 0 -125.5 49t-44.5 136v258q0 10 10 10h63q10 0 10 -10v-244q0 -125 110 -125q80 -2 123 61v308q0 10 10 10h63q10 0 10 -10v-421
q0 -10 -2 -10h-2q-58 -24 -58 -68q0 -37 40 -37q11 0 22 3z" />
    <glyph glyph-name="Wcircumflex" unicode="&#x174;" horiz-adv-x="1077" 
d="M623 688l-84 84l-84 -84q-7 -6 -14 -2l-24 17q-7 6 -2 14l80 105q5 6 13 6h62q8 0 13 -6l80 -105q5 -8 -2 -14l-24 -17q-7 -4 -14 2zM772 123l192 510q3 8 11 8h76q13 0 8 -12l-242 -621q-3 -8 -11 -8h-65q-8 0 -11 8l-193 499l-191 -499q-3 -8 -11 -8h-66q-8 0 -11 8
l-241 621q-4 12 8 12h77q8 0 11 -8l191 -511l190 494q3 8 11 8h67q8 0 11 -8z" />
    <glyph glyph-name="wcircumflex" unicode="&#x175;" horiz-adv-x="791" 
d="M480 488l-84 84l-84 -84q-7 -7 -14 -2l-24 17q-7 6 -2 14l80 105q4 6 13 6h62q9 0 13 -6l80 -105q5 -8 -2 -14l-24 -17q-8 -5 -14 2zM555 107l139 326q3 8 11 8h69q12 0 8 -12l-187 -421q-3 -8 -11 -8h-57q-8 0 -11 8l-121 318l-124 -318q-3 -8 -11 -8h-58q-8 0 -11 8
l-183 421q-5 12 8 12h71q8 0 11 -8l136 -324l120 309q3 8 11 8h61q8 0 11 -8z" />
    <glyph glyph-name="Ycircumflex" unicode="&#x176;" horiz-adv-x="590" 
d="M199 685l-24 17q-7 6 -2 14l80 105q5 6 13 6h62q8 0 13 -6l80 -105q5 -8 -2 -14l-24 -17q-7 -5 -14 2l-84 84l-84 -84q-7 -7 -14 -2zM254 266l-241 363q-7 12 7 12h74q8 0 12 -6l191 -289l190 289q5 6 12 6h73q13 0 6 -12l-239 -363v-256q0 -10 -10 -10h-65q-10 0 -10 10
v256z" />
    <glyph glyph-name="ycircumflex" unicode="&#x177;" horiz-adv-x="512" 
d="M141 486l-24 17q-7 6 -2 14l80 105q5 6 13 6h62q8 0 13 -6l80 -105q5 -8 -2 -14l-24 -17q-7 -5 -14 2l-84 84l-84 -84q-7 -7 -14 -2zM208 69l-190 360q-4 12 7 12h71q9 0 12 -7l147 -282l148 282q3 7 12 7h72q15 0 8 -12l-335 -619q-3 -7 -12 -7h-69q-15 0 -8 12z" />
    <glyph glyph-name="Ydieresis" unicode="&#x178;" horiz-adv-x="590" 
d="M163 731q0 22 14.5 36.5t36.5 14.5t36.5 -14.5t14.5 -36.5q0 -20 -14.5 -34.5t-36.5 -14.5t-36.5 14.5t-14.5 34.5zM382 682q-22 0 -36.5 14.5t-14.5 34.5q0 22 14.5 36.5t36.5 14.5q21 0 35.5 -14.5t14.5 -36.5q0 -20 -14.5 -34.5t-35.5 -14.5zM254 266l-241 363
q-7 12 7 12h74q8 0 12 -6l191 -289l190 289q5 6 12 6h73q13 0 6 -12l-239 -363v-256q0 -10 -10 -10h-65q-10 0 -10 10v256z" />
    <glyph glyph-name="Zacute" unicode="&#x179;" horiz-adv-x="579" 
d="M424 798l-136 -109q-7 -6 -14 1l-12 12q-6 6 0 14l115 128q7 8 14 1l33 -33q8 -7 0 -14zM527 0h-476q-10 0 -10 10v44q0 9 4 13l373 497h-351q-10 0 -10 10v57q0 10 10 10h454q10 0 10 -10v-42q0 -9 -4 -13l-371 -499h371q10 0 10 -10v-57q0 -10 -10 -10z" />
    <glyph glyph-name="zacute" unicode="&#x17a;" horiz-adv-x="485" 
d="M379 598l-136 -109q-7 -6 -14 1l-12 12q-6 6 0 14l115 128q8 8 14 1l33 -33q8 -7 0 -14zM427 0h-369q-10 0 -10 10v41q0 4 5 12l261 305h-246q-10 0 -10 10v53q0 10 10 10h349q10 0 10 -10v-42q0 -4 -5 -12l-260 -303h265q10 0 10 -10v-54q0 -10 -10 -10z" />
    <glyph glyph-name="Zdotaccent" unicode="&#x17b;" horiz-adv-x="579" 
d="M230 739q0 22 14.5 36.5t36.5 14.5t36.5 -14.5t14.5 -36.5q0 -21 -14.5 -35t-36.5 -14t-36.5 14t-14.5 35zM527 0h-476q-10 0 -10 10v44q0 9 4 13l373 497h-351q-10 0 -10 10v57q0 10 10 10h454q10 0 10 -10v-42q0 -9 -4 -13l-371 -499h371q10 0 10 -10v-57
q0 -10 -10 -10z" />
    <glyph glyph-name="zdotaccent" unicode="&#x17c;" horiz-adv-x="485" 
d="M185 539q0 22 14.5 36.5t36.5 14.5t36.5 -14.5t14.5 -36.5q0 -21 -14.5 -35t-36.5 -14t-36.5 14t-14.5 35zM427 0h-369q-10 0 -10 10v41q0 4 5 12l261 305h-246q-10 0 -10 10v53q0 10 10 10h349q10 0 10 -10v-42q0 -4 -5 -12l-260 -303h265q10 0 10 -10v-54
q0 -10 -10 -10z" />
    <glyph glyph-name="Zcaron" unicode="&#x17d;" horiz-adv-x="579" 
d="M237 692l-80 105q-5 8 2 14l24 18q7 5 14 -2l84 -85l83 85q7 7 15 2l24 -18q8 -6 2 -14l-80 -105q-5 -6 -13 -6h-62q-8 0 -13 6zM527 0h-476q-10 0 -10 10v44q0 9 4 13l373 497h-351q-10 0 -10 10v57q0 10 10 10h454q10 0 10 -10v-42q0 -9 -4 -13l-371 -499h371
q10 0 10 -10v-57q0 -10 -10 -10z" />
    <glyph glyph-name="zcaron" unicode="&#x17e;" horiz-adv-x="485" 
d="M192 492l-80 105q-5 8 2 14l24 18q7 5 14 -2l84 -85l83 85q7 7 15 2l24 -18q8 -6 2 -14l-80 -105q-4 -6 -13 -6h-62q-9 0 -13 6zM427 0h-369q-10 0 -10 10v41q0 4 5 12l261 305h-246q-10 0 -10 10v53q0 10 10 10h349q10 0 10 -10v-42q0 -4 -5 -12l-260 -303h265
q10 0 10 -10v-54q0 -10 -10 -10z" />
    <glyph glyph-name="florin" unicode="&#x192;" horiz-adv-x="577" 
d="M501 566h-53q-47 0 -70.5 -20.5t-30.5 -65.5l-8 -52h162q10 0 10 -10v-46q0 -10 -10 -10h-172l-33 -212q-12 -80 -56 -115t-127 -35h-60q-10 0 -10 10l-1 54q0 10 10 10h60q47 0 71 23.5t33 80.5l29 184h-117q-10 0 -10 10v46q0 10 10 10h127l12 75q21 138 178 138h56
q10 0 10 -10v-55q0 -10 -10 -10z" />
    <glyph glyph-name="Aringacute" unicode="&#x1fa;" horiz-adv-x="660" 
d="M413 892l15 -42q3 -10 -6 -13l-168 -42q-9 -1 -12 7l-6 17q-3 8 5 13l159 66q10 3 13 -6zM636 0h-73q-8 0 -11 8l-65 153h-317l-65 -153q-3 -8 -11 -8h-70q-12 0 -8 12l259 602q-42 26 -42 79q0 42 27.5 69t71.5 27t71.5 -27.5t27.5 -68.5q0 -54 -47 -81l260 -600
q4 -12 -8 -12zM288 696q0 -29 22 -41t44 0t22 41q1 27 -21.5 38t-45 0t-21.5 -38zM329 539l-129 -307h258z" />
    <glyph glyph-name="aringacute" unicode="&#x1fb;" horiz-adv-x="564" 
d="M353 701l15 -42q3 -10 -6 -13l-169 -42q-9 -3 -12 7l-6 17q-3 9 6 13l159 66q10 3 13 -6zM413 391v40q0 10 10 10h63q10 0 10 -10v-421q0 -10 -10 -10h-63q-10 0 -10 10v41q-53 -63 -153 -63q-98 0 -159 64t-61 168q0 84 39.5 143.5t108.5 79.5q-20 26 -20 59
q0 42 27.5 69t71.5 27q43 0 71 -28t28 -68q0 -35 -24 -62q43 -16 71 -49zM223 505q0 -20 13 -33.5t31 -13.5q19 0 31.5 13t12.5 34q1 27 -21.5 38t-45 0t-21.5 -38zM276 63q45 0 82.5 20t54.5 53v170q-17 33 -54.5 53t-82.5 20q-68 0 -110 -43.5t-42 -114.5t42 -114.5
t110 -43.5z" />
    <glyph glyph-name="AEacute" unicode="&#x1fc;" horiz-adv-x="822" 
d="M611 852l33 -33q8 -7 0 -14l-136 -109q-7 -6 -14 1l-12 12q-6 6 0 14l115 128q7 7 14 1zM769 630v-62q0 -10 -10 -10l-304 1v-197l273 -1q10 0 10 -10v-58q0 -10 -10 -10h-273v-201h304q10 0 10 -10v-62q0 -10 -10 -10h-377q-10 0 -10 10v163h-199l-63 -165q-3 -8 -11 -8
h-76q-11 0 -7 12l243 621q3 8 11 8l489 -1q10 0 10 -10zM201 247h171v312h-53z" />
    <glyph glyph-name="aeacute" unicode="&#x1fd;" horiz-adv-x="897" 
d="M565 645l33 -33q8 -7 0 -14l-136 -109q-7 -6 -14 1l-12 12q-6 6 0 14l115 128q7 8 14 1zM857 216q0 -9 -10 -9h-337q-1 -68 40 -108.5t108 -40.5q43 0 78.5 17t54.5 46q5 10 13 2l39 -31q7 -6 2 -14q-28 -42 -78.5 -66t-111.5 -24q-105 0 -166 63v-41q0 -10 -10 -10h-56
q-10 0 -10 10v41q-53 -63 -153 -63q-98 0 -159 64t-61 168q0 106 61 170t159 64q100 0 153 -63v40q0 10 10 10h56q10 0 10 -10v-41q61 64 161 64q94 0 152 -57q58 -55 58 -146q0 -20 -3 -35zM511 265h266q0 53 -35.5 86t-93.5 33t-95 -32.5t-42 -86.5zM276 63q45 0 82.5 20
t54.5 53v170q-17 33 -54.5 53t-82.5 20q-68 0 -110 -43.5t-42 -114.5t42 -114.5t110 -43.5z" />
    <glyph glyph-name="Oslashacute" unicode="&#x1fe;" horiz-adv-x="739" 
d="M480 844l33 -33q8 -7 0 -14l-136 -109q-7 -6 -14 1l-12 12q-6 6 0 14l115 128q8 7 14 1zM370 654q141 0 235 -94q95 -95 95 -239q0 -145 -95 -240q-94 -93 -235 -93q-142 0 -237 93q-94 94 -94 239t94 239q95 95 237 95zM370 574q-103 0 -174 -71q-69 -71 -69 -183
q0 -56 18 -101l411 269q-71 86 -186 86zM370 67q103 0 172 71q69 70 69 183q0 55 -19 105l-410 -272q70 -87 188 -87z" />
    <glyph glyph-name="oslashacute" unicode="&#x1ff;" horiz-adv-x="553" 
d="M386 657l33 -33q8 -7 0 -14l-136 -109q-7 -6 -14 1l-12 12q-6 6 0 14l115 128q8 8 14 1zM458 446l-28 -43q83 -68 83 -183q0 -100 -66 -166t-171 -66q-49 0 -95 17l-29 -47q-5 -9 -14 -3l-35 22q-8 5 -3 13l28 45q-88 66 -88 185q0 100 65 167q66 67 171 67q54 0 102 -20
l27 44q5 8 14 3l35 -21q9 -6 4 -14zM124 220q0 -73 47 -117l165 264q-30 11 -60 11q-66 0 -110 -45q-42 -43 -42 -113zM276 63q68 0 110 44t42 113q0 70 -42 113l-163 -261q24 -9 53 -9z" />
    <glyph glyph-name="uni0218" unicode="&#x218;" horiz-adv-x="544" 
d="M266 372l63 -17q65 -18 111 -48q67 -42 67 -136q0 -85 -62.5 -134t-173.5 -49q-139 0 -227 67q-8 6 -3 14l24 47q4 10 14 3q75 -60 190 -60q71 0 109.5 28.5t38.5 79.5q0 57 -43 82q-28 17 -35 19q-23 8 -38 13l-62 17l-50 15q-19 7 -48 21q-80 41 -85 140q0 83 60 131.5
t160 48.5q118 0 206 -60q8 -5 3 -13l-23 -48q-4 -10 -14 -4q-74 53 -170 53q-63 0 -99 -28.5t-36 -76.5t37 -72q29 -17 86 -33zM271 -52q23 0 38 -14t15 -37q0 -22 -25 -60l-44 -67q-5 -8 -13 -3l-12 8q-8 5 -3 13l49 69q-10 -2 -12 -2q-19 0 -31.5 12t-12.5 32
q0 21 14.5 35t36.5 14z" />
    <glyph glyph-name="uni0219" unicode="&#x219;" horiz-adv-x="444" 
d="M196 269l87 -20q114 -25 114 -125q0 -63 -49.5 -99.5t-133.5 -36.5q-106 0 -167 48q-8 5 -3 14l19 43q4 10 14 3q59 -41 137 -41q97 0 97 63q-1 22 -12 35.5t-21.5 18t-28.5 8.5q-2 1 -5 1l-81 19q-114 27 -114 121q0 59 46.5 96t121.5 37q90 0 154 -43q7 -4 3 -13
l-19 -44q-4 -10 -14 -3q-51 36 -120 36q-42 0 -65 -17t-23 -45q2 -19 12 -31t21 -16.5t30 -8.5zM283 -136q0 -22 -25 -60l-44 -67q-5 -9 -14 -3l-11 7q-9 5 -3 14l48 69q-8 -2 -11 -2q-29 -4 -40.5 26.5t10.5 52.5q23 23 56.5 10t33.5 -47z" />
    <glyph glyph-name="uni021A" unicode="&#x21a;" horiz-adv-x="509" 
d="M14 574v57q0 10 10 10h461q10 0 10 -10v-57q0 -10 -10 -10h-187v-554q0 -10 -10 -10h-64q-10 0 -10 10v554h-190q-10 0 -10 10zM258 -89q23 0 38 -14t15 -37q0 -22 -25 -60l-44 -67q-5 -8 -13 -3l-12 8q-8 5 -3 13l50 69q-3 0 -6 -0.5t-4.5 -1t-2.5 -0.5q-19 0 -31.5 12
t-12.5 32q0 21 14.5 35t36.5 14z" />
    <glyph glyph-name="uni021B" unicode="&#x21b;" horiz-adv-x="419" 
d="M391 431v-49q0 -10 -10 -10h-151v-221q0 -90 89 -90q27 0 56 8q11 3 11 -8v-50q0 -9 -8 -11q-39 -11 -76 -11q-75 0 -115 39t-40 116v228h-122q-10 0 -10 10v49q0 10 10 10h122v190q0 10 10 10h63q10 0 10 -10v-190h151q10 0 10 -10zM289 -58q24 0 38.5 -14t14.5 -38
q0 -22 -25 -60l-44 -67q-5 -8 -13 -3l-12 8q-8 5 -3 13l49 69q-10 -2 -12 -2q-19 0 -31.5 12t-12.5 32q0 22 14.5 36t36.5 14z" />
    <glyph glyph-name="uni0237" unicode="&#x237;" horiz-adv-x="235" 
d="M157 -197h-63q-10 0 -10 10v618q0 10 10 10h63q10 0 10 -10v-618q0 -10 -10 -10z" />
    <glyph glyph-name="uni0243" unicode="&#x243;" horiz-adv-x="600" 
d="M430 324q50 -18 79 -59.5t29 -96.5q0 -77 -57 -122.5t-151 -45.5h-244q-10 0 -10 10v148h-58q-10 0 -10 10v37q0 10 10 10h58v416q0 10 10 10h239q95 0 151 -47t56 -123q0 -108 -102 -147zM324 566h-165v-208h166q57 0 89.5 28.5t32.5 74.5q0 47 -33 76t-90 29zM159 76
h173q57 0 90 29t33 78t-34 78t-89 29h-173v-75h89q10 0 10 -10v-37q0 -10 -10 -10h-89v-82z" />
    <glyph glyph-name="circumflex" unicode="&#x2c6;" horiz-adv-x="369" 
d="M86 689l-24 17q-7 6 -2 14l80 105q4 6 13 6h62q9 0 13 -6l80 -105q5 -8 -2 -14l-24 -17q-8 -5 -14 2l-84 84l-84 -84q-6 -7 -14 -2z" />
    <glyph glyph-name="caron" unicode="&#x2c7;" horiz-adv-x="369" 
d="M140 695l-80 105q-5 8 2 14l24 18q8 4 14 -2l84 -85l83 85q7 7 15 2l24 -18q8 -6 2 -14l-80 -105q-4 -6 -13 -6h-62q-9 0 -13 6z" />
    <glyph glyph-name="breve" unicode="&#x2d8;" horiz-adv-x="400" 
d="M283 808h43q12 0 10 -11q-8 -51 -45.5 -81t-89.5 -30q-55 0 -92 30.5t-45 80.5q-2 11 10 11h43q9 0 10 -9q13 -53 74 -53q28 0 47 14.5t24 38.5q3 9 11 9z" />
    <glyph glyph-name="dotaccent" unicode="&#x2d9;" horiz-adv-x="169" 
d="M33 735q0 22 14.5 36.5t36.5 14.5t36.5 -14.5t14.5 -36.5q0 -20 -14.5 -34.5t-36.5 -14.5t-36.5 14.5t-14.5 34.5z" />
    <glyph glyph-name="ring" unicode="&#x2da;" horiz-adv-x="329" 
d="M241 688q-29 -29 -77 -29q-47 0 -78 29q-30 30 -30 73t30 73t78 30t77 -30q30 -30 30 -73t-30 -73zM164 713q19 0 33.5 14.5t14.5 35.5t-14.5 35t-33.5 14t-33.5 -14t-14.5 -35q0 -22 14 -36t34 -14z" />
    <glyph glyph-name="ogonek" unicode="&#x2db;" horiz-adv-x="222" 
d="M135 -156q-38 0 -60 20.5t-22 54.5q0 63 64 94q8 3 13 2l30 -4q9 -1 9 -5q0 -5 -8 -8q-53 -24 -53 -66q0 -37 40 -37q12 0 22 3q10 4 12 -6l5 -27q1 -9 -7 -13q-22 -8 -45 -8z" />
    <glyph glyph-name="tilde" unicode="&#x2dc;" horiz-adv-x="420" 
d="M113 694h-24q-10 0 -10 9q-6 43 12.5 68.5t52.5 25.5q25 0 58 -21q35 -20 49 -20q26 0 28 32q0 10 10 10h24q9 0 11 -9q5 -41 -14 -66t-55 -25q-25 0 -60 20t-46 20q-26 0 -26 -34q-1 -10 -10 -10z" />
    <glyph glyph-name="hungarumlaut" unicode="&#x2dd;" horiz-adv-x="412" 
d="M233 801l-136 -109q-8 -6 -14 1l-12 13q-6 7 -1 14l116 127q8 7 14 1l33 -33q8 -7 0 -14zM383 801l-135 -109q-8 -6 -14 1l-12 13q-6 7 -1 14l116 127q7 7 14 1l33 -33q6 -7 -1 -14z" />
    <glyph glyph-name="gravecomb" unicode="&#x300;" horiz-adv-x="0" 
d="M-64 705l-13 -12q-7 -7 -14 -1l-135 109q-8 7 -1 14l33 33q6 6 14 -1l116 -128q6 -8 0 -14z" />
    <glyph glyph-name="acutecomb" unicode="&#x301;" horiz-adv-x="0" 
d="M-11 801l-136 -109q-7 -6 -14 1l-12 12q-6 6 0 14l115 128q8 7 14 1l33 -33q8 -7 0 -14z" />
    <glyph glyph-name="uni0302" unicode="&#x302;" horiz-adv-x="0" 
d="M-283 689l-24 17q-7 6 -2 14l80 105q5 6 13 6h62q8 0 13 -6l79 -105q5 -8 -2 -14l-23 -17q-8 -5 -14 2l-84 84l-84 -84q-6 -7 -14 -2z" />
    <glyph glyph-name="tildecomb" unicode="&#x303;" horiz-adv-x="0" 
d="M-307 694h-24q-10 0 -10 9q-6 43 12.5 68.5t52.5 25.5q25 0 59 -21q34 -20 48 -20q26 0 28 32q0 10 10 10h24q9 0 11 -9q5 -41 -14 -66t-55 -25q-25 0 -60 20t-46 20q-25 0 -26 -34q-1 -10 -10 -10z" />
    <glyph glyph-name="uni0304" unicode="&#x304;" horiz-adv-x="0" 
d="M-313 706v42q0 10 10 10h222q10 0 10 -10v-42q0 -10 -10 -10h-222q-10 0 -10 10z" />
    <glyph glyph-name="uni0306" unicode="&#x306;" horiz-adv-x="0" 
d="M-117 808h43q12 0 10 -11q-8 -51 -45.5 -81t-89.5 -30q-55 0 -92 30.5t-45 80.5q-2 11 10 11h43q8 0 11 -9q11 -53 73 -53q28 0 47 14.5t24 38.5q3 9 11 9z" />
    <glyph glyph-name="uni0307" unicode="&#x307;" horiz-adv-x="0" 
d="M-157 742q0 22 14.5 36.5t36.5 14.5t36.5 -14.5t14.5 -36.5q0 -21 -14.5 -35t-36.5 -14t-36.5 14t-14.5 35z" />
    <glyph glyph-name="uni0308" unicode="&#x308;" horiz-adv-x="0" 
d="M-305 742q0 22 14.5 36.5t36.5 14.5t36.5 -14.5t14.5 -36.5q0 -21 -14.5 -35t-36.5 -14t-36.5 14t-14.5 35zM-86 693q-22 0 -36.5 14t-14.5 35q0 22 14.5 36.5t36.5 14.5q21 0 35.5 -14.5t14.5 -36.5q0 -21 -14.5 -35t-35.5 -14z" />
    <glyph glyph-name="uni030A" unicode="&#x30a;" horiz-adv-x="0" 
d="M-165 669q-47 0 -77.5 29.5t-30.5 72.5t30.5 73t77.5 30t77 -29.5t30 -73.5q0 -43 -30 -72.5t-77 -29.5zM-165 723q19 0 33.5 14.5t14.5 35.5t-14.5 35t-33.5 14t-33.5 -14t-14.5 -35q0 -22 14 -36t34 -14z" />
    <glyph glyph-name="uni030B" unicode="&#x30b;" horiz-adv-x="0" 
d="M-166 801l-136 -109q-7 -6 -14 1l-12 12q-6 6 0 14l115 128q7 7 14 1l33 -33q8 -7 0 -14zM-16 801l-135 -109q-7 -6 -14 1l-12 12q-6 6 0 14l115 128q8 7 14 1l33 -33q7 -7 -1 -14z" />
    <glyph glyph-name="uni030C" unicode="&#x30c;" horiz-adv-x="0" 
d="M-229 695l-80 105q-5 8 2 14l24 18q8 4 14 -2l84 -85l83 85q7 7 15 2l24 -18q8 -6 2 -14l-80 -105q-5 -6 -13 -6h-62q-8 0 -13 6z" />
    <glyph glyph-name="uni0312" unicode="&#x312;" horiz-adv-x="0" 
d="M-77 775q18 0 30 -12.5t12 -31.5q0 -22 -14.5 -36t-36.5 -14q-24 0 -39.5 17.5t-15.5 46.5q0 42 26 69.5t66 29.5q10 0 10 -10v-3q0 -9 -10 -10q-47 -11 -48 -51q8 5 20 5z" />
    <glyph glyph-name="uni0326" unicode="&#x326;" horiz-adv-x="0" 
d="M-88 -52q23 0 38 -14t15 -37q0 -22 -25 -60l-44 -67q-5 -8 -13 -3l-12 8q-8 5 -3 13l49 69q-10 -2 -12 -2q-19 0 -31.5 12t-12.5 32q0 21 14.5 35t36.5 14z" />
    <glyph glyph-name="uni0327" unicode="&#x327;" horiz-adv-x="0" 
d="M-116 -13l-25 -38q37 6 66 -14t29 -60t-30 -64t-66.5 -23t-67.5 15q-7 4 -7 12v27q0 12 12 6q24 -19 62 -11q36 7 36 40q0 21 -18 32t-45 4q-9 -1 -14 4l-10 11q-5 8 -1 14l48 74q4 7 12 7h13q10 0 10 -10v-13q0 -6 -4 -13z" />
    <glyph glyph-name="uni0338" unicode="&#x338;" horiz-adv-x="0" 
d="M-114 474l-334 -533q-5 -8 -13 -3l-40 25q-8 5 -4 14l333 532q5 8 14 3l40 -24q8 -7 4 -14z" />
    <glyph glyph-name="uni03A9" unicode="&#x3a9;" horiz-adv-x="753" 
d="M701 336q0 -90 -43.5 -160t-122.5 -108h146q10 0 10 -10v-48q0 -10 -10 -10h-244q-10 0 -10 10v69q0 9 8 12q79 25 126 87.5t47 143.5q0 99 -65 159t-166 60q-100 0 -167 -62q-65 -62 -65 -160q0 -80 45 -143q47 -63 120 -85q8 -3 8 -12v-69q0 -10 -10 -10h-243
q-10 0 -10 10v48q0 10 10 10h151q-79 38 -121.5 108t-42.5 158q0 133 91 215q92 83 233 83t233 -83t92 -213z" />
    <glyph glyph-name="pi" unicode="&#x3c0;" horiz-adv-x="560" 
d="M100 420h-70q-10 0 -10 10v51q0 10 10 10h463q10 0 10 -10v-51q0 -10 -10 -10h-71v-290q0 -38 12.5 -51t47.5 -13h11q10 0 10 -10v-47q0 -9 -9 -11q-21 -3 -43 -3q-36 0 -60 11t-34.5 31t-14 39t-3.5 46v298h-156v-410q0 -10 -10 -10h-63q-10 0 -10 10v410z" />
    <glyph glyph-name="uni0E3F" unicode="&#xe3f;" horiz-adv-x="576" 
d="M422 323q54 -14 84 -55t30 -98q0 -81 -52.5 -125.5t-145.5 -44.5h-44v-89q0 -10 -10 -10h-36q-10 0 -10 10v89h-152q-10 0 -10 10v621q0 10 10 10h152v79q0 10 10 10h36q10 0 10 -10v-79h39q86 0 136.5 -46t50.5 -122q0 -51 -26 -90.5t-72 -59.5zM316 567h-160v-214h153
q59 0 92 28.5t33 77.5q0 51 -32 79.5t-86 28.5zM156 74h172q59 0 91 28.5t32 77.5q0 52 -33 80t-92 28h-170v-214z" />
    <glyph glyph-name="Wgrave" unicode="&#x1e80;" horiz-adv-x="1077" 
d="M444 844l116 -128q6 -8 0 -14l-13 -13q-6 -6 -14 0l-135 109q-8 8 -1 14l33 33q6 7 14 -1zM772 123l192 510q3 8 11 8h76q13 0 8 -12l-242 -621q-3 -8 -11 -8h-65q-8 0 -11 8l-193 499l-191 -499q-3 -8 -11 -8h-66q-8 0 -11 8l-241 621q-4 12 8 12h77q8 0 11 -8l191 -511
l190 494q3 8 11 8h67q8 0 11 -8z" />
    <glyph glyph-name="wgrave" unicode="&#x1e81;" horiz-adv-x="791" 
d="M300 644l116 -128q6 -8 0 -14l-13 -13q-6 -6 -14 0l-135 109q-8 8 -1 14l33 33q6 7 14 -1zM555 107l139 326q3 8 11 8h69q12 0 8 -12l-187 -421q-3 -8 -11 -8h-57q-8 0 -11 8l-121 318l-124 -318q-3 -8 -11 -8h-58q-8 0 -11 8l-183 421q-5 12 8 12h71q8 0 11 -8l136 -324
l120 309q3 8 11 8h61q8 0 11 -8z" />
    <glyph glyph-name="Wacute" unicode="&#x1e82;" horiz-adv-x="1077" 
d="M650 845l33 -33q8 -7 0 -14l-136 -109q-8 -6 -14 1l-12 13q-6 7 -1 14l116 127q8 8 14 1zM772 123l192 510q3 8 11 8h76q13 0 8 -12l-242 -621q-3 -8 -11 -8h-65q-8 0 -11 8l-193 499l-191 -499q-3 -8 -11 -8h-66q-8 0 -11 8l-241 621q-4 12 8 12h77q8 0 11 -8l191 -511
l190 494q3 8 11 8h67q8 0 11 -8z" />
    <glyph glyph-name="wacute" unicode="&#x1e83;" horiz-adv-x="791" 
d="M506 645l33 -33q8 -7 0 -14l-136 -109q-8 -6 -14 1l-12 13q-6 7 -1 14l116 127q8 8 14 1zM555 107l139 326q3 8 11 8h69q12 0 8 -12l-187 -421q-3 -8 -11 -8h-57q-8 0 -11 8l-121 318l-124 -318q-3 -8 -11 -8h-58q-8 0 -11 8l-183 421q-5 12 8 12h71q8 0 11 -8l136 -324
l120 309q3 8 11 8h61q8 0 11 -8z" />
    <glyph glyph-name="Wdieresis" unicode="&#x1e84;" horiz-adv-x="1077" 
d="M405 731q0 22 14.5 36.5t36.5 14.5t36.5 -14.5t14.5 -36.5q0 -20 -14.5 -34.5t-36.5 -14.5t-36.5 14.5t-14.5 34.5zM624 682q-22 0 -36.5 14.5t-14.5 34.5q0 22 14.5 36.5t36.5 14.5q21 0 35.5 -14.5t14.5 -36.5q0 -20 -14.5 -34.5t-35.5 -14.5zM772 123l192 510
q3 8 11 8h76q13 0 8 -12l-242 -621q-3 -8 -11 -8h-65q-8 0 -11 8l-193 499l-191 -499q-3 -8 -11 -8h-66q-8 0 -11 8l-241 621q-4 12 8 12h77q8 0 11 -8l191 -511l190 494q3 8 11 8h67q8 0 11 -8z" />
    <glyph glyph-name="wdieresis" unicode="&#x1e85;" horiz-adv-x="791" 
d="M261 531q0 22 14.5 36.5t36.5 14.5t36.5 -14.5t14.5 -36.5q0 -20 -14.5 -34.5t-36.5 -14.5t-36.5 14.5t-14.5 34.5zM480 482q-22 0 -36.5 14.5t-14.5 34.5q0 22 14.5 36.5t36.5 14.5q21 0 35.5 -14.5t14.5 -36.5q0 -20 -14.5 -34.5t-35.5 -14.5zM555 107l139 326
q3 8 11 8h69q12 0 8 -12l-187 -421q-3 -8 -11 -8h-57q-8 0 -11 8l-121 318l-124 -318q-3 -8 -11 -8h-58q-8 0 -11 8l-183 421q-5 12 8 12h71q8 0 11 -8l136 -324l120 309q3 8 11 8h61q8 0 11 -8z" />
    <glyph glyph-name="Ygrave" unicode="&#x1ef2;" horiz-adv-x="590" 
d="M317 701l-13 -12q-7 -7 -14 -1l-135 109q-7 7 -1 14l33 33q7 6 14 -1l116 -128q6 -8 0 -14zM254 266l-241 363q-7 12 7 12h74q8 0 12 -6l191 -289l190 289q5 6 12 6h73q13 0 6 -12l-239 -363v-256q0 -10 -10 -10h-65q-10 0 -10 10v256z" />
    <glyph glyph-name="ygrave" unicode="&#x1ef3;" horiz-adv-x="512" 
d="M259 502l-13 -12q-7 -7 -14 -1l-135 109q-7 8 -1 14l33 33q7 7 14 -1l116 -128q6 -8 0 -14zM208 69l-190 360q-4 12 7 12h71q9 0 12 -7l147 -282l148 282q3 7 12 7h72q15 0 8 -12l-335 -619q-3 -7 -12 -7h-69q-15 0 -8 12z" />
    <glyph glyph-name="endash" unicode="&#x2013;" horiz-adv-x="870" 
d="M67 209v56q0 10 10 10h716q10 0 10 -10v-56q0 -10 -10 -10h-716q-10 0 -10 10z" />
    <glyph glyph-name="emdash" unicode="&#x2014;" horiz-adv-x="1069" 
d="M67 209v56q0 10 10 10h915q10 0 10 -10v-56q0 -10 -10 -10h-915q-10 0 -10 10z" />
    <glyph glyph-name="quoteleft" unicode="&#x2018;" horiz-adv-x="223" 
d="M121 555q25 0 42.5 -16.5t17.5 -42.5q0 -29 -19.5 -48.5t-50.5 -19.5t-51 19.5t-20 51.5q0 28 35 81l61 95q5 8 13 2l22 -14q9 -5 3 -14l-69 -96q14 2 16 2z" />
    <glyph glyph-name="quoteright" unicode="&#x2019;" horiz-adv-x="223" 
d="M111 664q31 0 51.5 -19t20.5 -51q0 -26 -35 -82l-61 -94q-5 -8 -13 -3l-23 15q-8 5 -3 13l68 96q-14 -2 -15 -2q-25 0 -42 16.5t-17 43.5q0 29 19.5 48t49.5 19z" />
    <glyph glyph-name="quotesinglbase" unicode="&#x201a;" horiz-adv-x="225" 
d="M13 -94l38 188q1 9 11 9h76q12 0 8 -12l-84 -188q-3 -8 -11 -8h-29q-11 0 -9 11z" />
    <glyph glyph-name="quotedblleft" unicode="&#x201c;" horiz-adv-x="401" 
d="M121 555q25 0 42.5 -16.5t17.5 -42.5q0 -29 -19.5 -48.5t-50.5 -19.5t-51 19.5t-20 51.5q0 28 35 81l61 95q5 8 13 2l22 -14q9 -5 3 -14l-69 -96q14 2 16 2zM306 555q25 0 42 -16.5t17 -42.5q0 -29 -19.5 -48.5t-49.5 -19.5q-31 0 -51.5 19.5t-20.5 51.5q0 28 35 81
l61 95q5 8 13 2l22 -14q9 -5 3 -14l-69 -97q8 3 17 3z" />
    <glyph glyph-name="quotedblright" unicode="&#x201d;" horiz-adv-x="407" 
d="M111 664q31 0 51.5 -19t20.5 -51q0 -26 -35 -82l-61 -94q-5 -8 -13 -3l-23 15q-8 5 -3 13l68 96q-14 -2 -15 -2q-25 0 -42 16.5t-17 43.5q0 29 19.5 48t49.5 19zM295 664q31 0 51.5 -19t20.5 -51q0 -26 -35 -82l-61 -94q-5 -10 -13 -3l-22 14q-9 5 -3 14l69 96
q-16 -2 -17 -2q-25 0 -42 16.5t-17 43.5q0 29 19.5 48t49.5 19z" />
    <glyph glyph-name="quotedblbase" unicode="&#x201e;" horiz-adv-x="392" 
d="M19 -94l65 189q3 8 12 8h71q13 0 8 -12l-79 -188q-3 -8 -11 -8h-58q-11 0 -8 11zM162 -93l81 188q3 8 11 8h73q11 0 7 -12l-95 -189q-3 -7 -12 -7h-57q-12 0 -8 12z" />
    <glyph glyph-name="dagger" unicode="&#x2020;" horiz-adv-x="381" 
d="M220 328h104q10 0 10 -10v-31q0 -10 -10 -10h-104v-136q0 -10 -10 -10h-38q-10 0 -10 10v136h-105q-10 0 -10 10v31q0 10 10 10h105v303q0 10 10 10h38q10 0 10 -10v-303z" />
    <glyph glyph-name="daggerdbl" unicode="&#x2021;" horiz-adv-x="368" 
d="M213 329h95q10 0 10 -10v-31q0 -10 -10 -10h-95v-130q0 -10 -10 -10h-38q-10 0 -10 10v130h-94q-10 0 -10 10v31q0 10 10 10h94v121h-95q-10 0 -10 10v30q0 10 10 10h95v131q0 10 10 10h38q10 0 10 -10v-131h94q10 0 10 -10v-30q0 -10 -10 -10h-94v-121z" />
    <glyph glyph-name="bullet" unicode="&#x2022;" horiz-adv-x="493" 
d="M247 105q-73 0 -126 50q-51 51 -51 123q0 74 51 125t126 51q74 0 125 -52q51 -51 51 -124q0 -71 -51 -122q-50 -51 -125 -51z" />
    <glyph glyph-name="ellipsis" unicode="&#x2026;" horiz-adv-x="674" 
d="M125 -13q-26 0 -44.5 19t-18.5 44t18.5 44.5t44.5 19.5q25 0 44.5 -19.5t19.5 -44.5t-19.5 -44t-44.5 -19zM337 -13q-26 0 -45 19t-19 44t19 44.5t45 19.5q25 0 44 -19.5t19 -44.5t-19 -44t-44 -19zM547 -13q-25 0 -44.5 19t-19.5 44t19.5 44.5t44.5 19.5t45 -19.5
t20 -44.5t-19.5 -44t-45.5 -19z" />
    <glyph glyph-name="perthousand" unicode="&#x2030;" horiz-adv-x="1079" 
d="M218 390q-60 0 -99 37t-39 95t39 95t99 37t98 -37q39 -37 39 -95t-39 -95q-38 -37 -98 -37zM609 615l-413 -619q-5 -8 -13 -3l-30 19q-8 5 -3 13l412 621q6 11 14 3l31 -20q7 -6 2 -14zM295 521q0 35 -21.5 56t-55.5 21q-35 0 -56.5 -21t-21.5 -56q0 -34 21.5 -54.5
t56.5 -20.5t56 20.5t21 54.5zM541 -12q-60 0 -98 37q-39 37 -39 95t39 95q38 37 98 37t99 -37t39 -95t-39 -95t-99 -37zM861 -12q-60 0 -98 37q-39 37 -39 95t39 95q38 37 98 37t99 -37t39 -95t-39 -95t-99 -37zM619 119q0 35 -21.5 56t-56.5 21t-56 -21t-21 -56
q0 -34 21 -54.5t56 -20.5t56.5 20.5t21.5 54.5zM939 119q0 35 -21.5 56t-56.5 21t-56 -21t-21 -56q0 -34 21 -54.5t56 -20.5t56.5 20.5t21.5 54.5z" />
    <glyph glyph-name="uni2031" unicode="&#x2031;" horiz-adv-x="1399" 
d="M218 390q-60 0 -99 37t-39 95t39 95t99 37t98 -37q39 -37 39 -95t-39 -95q-38 -37 -98 -37zM609 615l-413 -619q-5 -8 -13 -3l-30 19q-8 5 -3 13l412 621q6 11 14 3l31 -20q7 -6 2 -14zM295 521q0 35 -21.5 56t-55.5 21q-35 0 -56.5 -21t-21.5 -56q0 -34 21.5 -54.5
t56.5 -20.5t56 20.5t21 54.5zM541 -12q-60 0 -98 37q-39 37 -39 95t39 95q38 37 98 37t99 -37t39 -95t-39 -95t-99 -37zM861 -12q-60 0 -98 37q-39 37 -39 95t39 95q38 37 98 37t99 -37t39 -95t-39 -95t-99 -37zM1181 -12q-60 0 -98 37q-39 37 -39 95t39 95q38 37 98 37
t99 -37t39 -95t-39 -95t-99 -37zM619 119q0 35 -21.5 56t-56.5 21t-56 -21t-21 -56q0 -34 21 -54.5t56 -20.5t56.5 20.5t21.5 54.5zM939 119q0 35 -21.5 56t-56.5 21t-56 -21t-21 -56q0 -34 21 -54.5t56 -20.5t56.5 20.5t21.5 54.5zM1259 119q0 35 -21.5 56t-56.5 21
t-56 -21t-21 -56q0 -34 21 -54.5t56 -20.5t56.5 20.5t21.5 54.5z" />
    <glyph glyph-name="minute" unicode="&#x2032;" horiz-adv-x="177" 
d="M37 599q0 24 14.5 39.5t37.5 15.5q22 0 37 -15.5t15 -39.5q0 -6 -3 -15l-34 -172q-2 -9 -11 -9h-10q-9 0 -11 9l-33 170q-2 14 -2 17z" />
    <glyph glyph-name="guilsinglleft" unicode="&#x2039;" horiz-adv-x="293" 
d="M184 399h68q14 0 7 -12l-92 -167l92 -167q7 -12 -7 -12h-68q-8 0 -12 7l-95 165q-4 7 0 14l95 165q4 7 12 7z" />
    <glyph glyph-name="guilsinglright" unicode="&#x203a;" horiz-adv-x="295" 
d="M43 399h67q8 0 12 -7l95 -165q4 -7 0 -14l-95 -165q-4 -7 -12 -7h-67q-5 0 -7.5 3.5t0.5 8.5l91 167l-91 167q-3 5 -0.5 8.5t7.5 3.5z" />
    <glyph glyph-name="uni2042" unicode="&#x2042;" horiz-adv-x="820" 
d="M525 432l-41 25q-34 19 -61 43q7 -32 7 -74v-49q0 -10 -10 -10h-26q-10 0 -10 10v49q0 37 8 74q-24 -21 -61 -43l-41 -25q-8 -6 -14 4l-14 23q-4 9 4 14l42 24q39 22 68 30q-37 12 -68 31l-42 24q-8 5 -4 14l14 23q5 9 14 3l41 -25q42 -26 61 -43q-8 37 -8 74v49
q0 10 10 10h26q10 0 10 -10v-49q0 -42 -7 -74q27 23 61 43l41 25q8 6 14 -4l13 -22q5 -10 -4 -14l-41 -24q-25 -14 -68 -31q31 -9 68 -30l41 -24q9 -4 4 -14l-13 -23q-6 -10 -14 -4zM326 246l13 -22q5 -10 -4 -14l-42 -24q-32 -20 -67 -30q41 -15 67 -31l42 -24q9 -4 4 -14
l-13 -22q-4 -9 -14 -4l-42 24q-49 32 -61 44q8 -37 8 -74v-49q0 -10 -10 -10h-27q-10 0 -10 10v49q0 29 8 74q-15 -15 -61 -44l-41 -24q-10 -5 -14 4l-13 22q-5 10 4 14l41 24q31 18 69 31q-35 10 -69 30l-41 24q-9 4 -4 14l13 22q4 9 14 4l41 -24q35 -20 61 -44
q-8 45 -8 75v49q0 10 10 10h27q10 0 10 -10v-49q0 -38 -8 -75q25 23 61 44l42 24q10 5 14 -4zM652 156q40 -15 68 -31l41 -24q9 -4 4 -14l-13 -22q-4 -9 -14 -4l-41 24q-49 32 -61 44q7 -27 7 -74v-49q0 -10 -10 -10h-26q-10 0 -10 10v49q0 29 8 74q-15 -15 -61 -44l-41 -24
q-10 -5 -14 4l-13 22q-5 10 4 14l41 24q31 18 69 31q-34 10 -69 30l-41 24q-9 4 -4 14l13 22q4 9 14 4l41 -24q35 -20 61 -44q-8 45 -8 75v49q0 10 10 10h26q10 0 10 -10v-49q0 -48 -7 -75q25 23 61 44l41 24q10 5 14 -4l13 -22q5 -10 -4 -14l-41 -24q-31 -19 -68 -30z" />
    <glyph glyph-name="fraction" unicode="&#x2044;" horiz-adv-x="658" 
d="M613 698l-522 -784q-5 -8 -13 -3l-31 20q-8 5 -3 13l523 784q5 8 13 3l31 -20q7 -4 2 -13z" />
    <glyph glyph-name="uni2070" unicode="&#x2070;" horiz-adv-x="483" 
d="M241 265q-90 0 -141 70.5t-51 193.5q0 124 51 195.5t141 71.5t141.5 -71.5t51.5 -195.5q0 -123 -51 -193.5t-142 -70.5zM352 529q0 93 -28 143t-82 50t-82.5 -50t-28.5 -143t28.5 -142.5t82.5 -49.5t82 50t28 142z" />
    <glyph glyph-name="uni2074" unicode="&#x2074;" horiz-adv-x="493" 
d="M366 776v-292h78q10 0 10 -10v-48q0 -10 -10 -10h-78v-133q0 -10 -10 -10h-57q-10 0 -10 10v133h-240q-10 0 -10 10v45q0 9 4 13l214 296q5 6 12 6h87q10 0 10 -10zM289 712l-164 -228h164v228z" />
    <glyph glyph-name="uni2075" unicode="&#x2075;" horiz-adv-x="472" 
d="M247 607q73 0 123 -48q49 -48 49 -122q0 -76 -53 -124q-52 -48 -133 -48q-69 0 -118 38t-60 98q-1 11 9 12l58 12q10 2 11 -8q6 -37 33.5 -58.5t66.5 -21.5q46 0 75 28t29 74q0 44 -28.5 72t-74.5 28q-58 0 -89 -37q-6 -6 -13 -5l-59 8q-10 1 -8 11l54 261q1 9 11 9h256
q10 0 10 -10v-50q0 -10 -10 -10h-203l-28 -134q37 25 92 25z" />
    <glyph glyph-name="uni2076" unicode="&#x2076;" horiz-adv-x="471" 
d="M248 611q77 0 128 -48q51 -47 51 -122q0 -77 -55 -126q-55 -50 -137 -50q-84 0 -134 49q-50 50 -50 124q0 34 12 69q12 34 23 53q7 13 31 48l116 172q5 6 12 6h65q6 0 8 -4t-1 -8l-117 -169q24 6 48 6zM237 337q46 0 77.5 29t31.5 74t-30 73t-76 28q-47 0 -77.5 -28.5
t-30.5 -74.5q0 -45 30 -73t75 -28z" />
    <glyph glyph-name="uni2077" unicode="&#x2077;" horiz-adv-x="389" 
d="M26 726v50q0 10 10 10h317q10 0 10 -10v-48q0 -4 -3 -12l-202 -436q-3 -7 -11 -7h-65q-12 0 -8 12l200 431h-238q-10 0 -10 10z" />
    <glyph glyph-name="uni2078" unicode="&#x2078;" horiz-adv-x="466" 
d="M333 546q39 -16 61.5 -50.5t22.5 -77.5q0 -70 -53 -112q-53 -41 -131 -41q-79 0 -132 42q-52 42 -52 111q0 44 22.5 78t60.5 50q-30 16 -48 46t-18 66q0 60 47 98q47 39 120 39t119.5 -38.5t46.5 -98.5q0 -36 -18 -66.5t-48 -45.5zM232 724q-38 0 -62.5 -20t-24.5 -52
q0 -33 25.5 -54t63.5 -21q37 0 61.5 21t24.5 53q0 33 -24.5 53t-63.5 20zM233 336q45 0 73.5 24t28.5 63q0 38 -28.5 61t-73.5 23q-46 0 -74.5 -23t-28.5 -61t29.5 -62.5t73.5 -24.5z" />
    <glyph glyph-name="uni2079" unicode="&#x2079;" horiz-adv-x="480" 
d="M243 795q82 0 134 -50q51 -49 51 -124q0 -33 -12 -68t-24 -54q-7 -11 -31 -47l-115 -173q-4 -6 -12 -6h-65q-14 0 -7 12l116 168q-22 -6 -48 -6q-77 0 -128 48q-50 48 -50 122q0 79 54 128q56 50 137 50zM239 518q46 0 77 29t31 74t-30 72.5t-76 27.5q-47 0 -77.5 -28.5
t-30.5 -73.5t30 -73t76 -28z" />
    <glyph glyph-name="uni207A" unicode="&#x207a;" horiz-adv-x="513" 
d="M287 561h136q10 0 10 -10v-35q0 -10 -10 -10h-136v-140q0 -10 -10 -10h-40q-10 0 -10 10v140h-137q-10 0 -10 10v35q0 10 10 10h137v141q0 10 10 10h40q10 0 10 -10v-141z" />
    <glyph glyph-name="uni207B" unicode="&#x207b;" horiz-adv-x="429" 
d="M90 561h249q10 0 10 -10v-35q0 -10 -10 -10h-249q-10 0 -10 10v35q0 10 10 10z" />
    <glyph glyph-name="uni207C" unicode="&#x207c;" horiz-adv-x="429" 
d="M90 631h249q10 0 10 -10v-34q0 -10 -10 -10h-249q-10 0 -10 10v34q0 10 10 10zM90 478h249q10 0 10 -10v-35q0 -10 -10 -10h-249q-10 0 -10 10v35q0 10 10 10z" />
    <glyph glyph-name="uni2080" unicode="&#x2080;" horiz-adv-x="483" 
d="M241 -108q-90 0 -141 70.5t-51 193.5q0 124 51 195t141 71q91 0 142 -71t51 -195q0 -123 -51 -193.5t-142 -70.5zM131 156q0 -93 28.5 -143t82.5 -50t82 50t28 143t-28 143t-82 50t-82.5 -50t-28.5 -143z" />
    <glyph glyph-name="uni2081" unicode="&#x2081;" horiz-adv-x="328" 
d="M161 327l-112 -63q-12 -8 -12 7v52q0 8 7 12l120 74q7 4 13 4h55q10 0 10 -10v-493q0 -10 -10 -10h-61q-10 0 -10 10v417z" />
    <glyph glyph-name="uni2082" unicode="&#x2082;" horiz-adv-x="440" 
d="M309 116l-135 -142h209q10 0 10 -10v-54q0 -10 -10 -10h-320q-10 0 -10 10v41q0 7 5 12l189 195q57 58 57 110q0 37 -24 59t-62 22q-34 0 -57 -16.5t-30 -44.5q-3 -10 -12 -9l-58 9q-11 2 -8 11q11 56 57.5 89.5t111.5 33.5q73 0 117.5 -40.5t44.5 -108.5q0 -77 -75 -157
z" />
    <glyph glyph-name="uni2083" unicode="&#x2083;" horiz-adv-x="464" 
d="M384 337l-122 -121q68 -5 109 -48t41 -109q0 -74 -52 -120q-52 -47 -131 -47q-73 0 -121 39.5t-56 104.5q-1 10 8 12l59 11q11 1 12 -9q3 -39 31 -62.5t68 -23.5q45 0 73.5 27t28.5 71q0 40 -24 64.5t-65 29.5q-26 2 -55 2h-3q-9 0 -12 8l-12 38q-3 8 4 14l126 125h-200
q-10 0 -10 10v50q0 10 10 10h288q10 0 10 -10v-54q0 -7 -5 -12z" />
    <glyph glyph-name="uni2084" unicode="&#x2084;" horiz-adv-x="493" 
d="M366 403v-292h78q10 0 10 -10v-48q0 -10 -10 -10h-78v-133q0 -10 -10 -10h-57q-10 0 -10 10v133h-240q-10 0 -10 10v45q0 9 4 13l214 296q5 6 12 6h87q10 0 10 -10zM289 339l-164 -228h164v228z" />
    <glyph glyph-name="uni2085" unicode="&#x2085;" horiz-adv-x="472" 
d="M247 234q73 0 123 -48q49 -48 49 -122q0 -76 -53 -124q-52 -48 -133 -48q-69 0 -118 37.5t-60 98.5q-1 10 9 12l58 12q10 2 11 -8q6 -37 33.5 -58.5t66.5 -21.5q46 0 75 28t29 74q0 44 -28.5 72t-74.5 28q-58 0 -89 -37q-6 -6 -13 -5l-59 8q-10 1 -8 11l54 261q1 9 11 9
h256q10 0 10 -10v-50q0 -10 -10 -10h-203l-28 -134q37 25 92 25z" />
    <glyph glyph-name="uni2086" unicode="&#x2086;" horiz-adv-x="471" 
d="M248 238q77 0 128 -48q51 -46 51 -122q0 -77 -55 -126q-55 -50 -137 -50q-84 0 -134 49q-50 50 -50 124q0 35 12 69t23 53q7 13 31 48l116 172q5 6 12 6h65q14 0 7 -12l-117 -169q24 6 48 6zM237 -36q46 0 77.5 29t31.5 74t-30 73t-76 28q-47 0 -77.5 -28.5t-30.5 -74.5
q0 -45 30 -73t75 -28z" />
    <glyph glyph-name="uni2087" unicode="&#x2087;" horiz-adv-x="389" 
d="M26 353v50q0 10 10 10h317q10 0 10 -10v-48q0 -5 -3 -12l-202 -436q-3 -7 -11 -7h-65q-12 0 -8 12l200 431h-238q-10 0 -10 10z" />
    <glyph glyph-name="uni2088" unicode="&#x2088;" horiz-adv-x="466" 
d="M333 173q39 -16 61.5 -50.5t22.5 -77.5q0 -69 -53 -111t-131 -42q-79 0 -132 42q-52 42 -52 111q0 44 22.5 78t61.5 50q-67 39 -67 112q0 60 47 98q47 39 120 39t119.5 -38.5t46.5 -98.5q0 -36 -18 -66t-48 -46zM232 351q-38 0 -62.5 -20t-24.5 -52q0 -33 25 -53.5
t64 -20.5q37 0 61.5 20.5t24.5 52.5q0 33 -24.5 53t-63.5 20zM233 -36q45 0 73.5 23.5t28.5 62.5t-28.5 62t-73.5 23q-46 0 -74.5 -23t-28.5 -62q0 -38 29.5 -62t73.5 -24z" />
    <glyph glyph-name="uni2089" unicode="&#x2089;" horiz-adv-x="480" 
d="M243 422q82 0 134 -50q51 -50 51 -124q0 -34 -12 -68t-24 -54q-7 -11 -31 -47l-115 -173q-4 -6 -12 -6h-65q-6 0 -8 4t1 8l116 168q-22 -6 -48 -6q-77 0 -128 48q-50 48 -50 122q0 78 54 128q56 50 137 50zM239 145q46 0 77 29t31 74t-30 72.5t-76 27.5
q-47 0 -77.5 -28.5t-30.5 -73.5t30 -73t76 -28z" />
    <glyph glyph-name="uni208A" unicode="&#x208a;" horiz-adv-x="513" 
d="M287 221h136q10 0 10 -10v-35q0 -10 -10 -10h-136v-140q0 -10 -10 -10h-40q-10 0 -10 10v140h-137q-10 0 -10 10v35q0 10 10 10h137v141q0 10 10 10h40q10 0 10 -10v-141z" />
    <glyph glyph-name="uni208B" unicode="&#x208b;" horiz-adv-x="429" 
d="M90 221h249q10 0 10 -10v-35q0 -10 -10 -10h-249q-10 0 -10 10v35q0 10 10 10z" />
    <glyph glyph-name="uni208C" unicode="&#x208c;" horiz-adv-x="516" 
d="M133 402h250q10 0 10 -10v-35q0 -10 -10 -10h-250q-10 0 -10 10v35q0 10 10 10zM133 248h250q10 0 10 -10v-35q0 -10 -10 -10h-250q-10 0 -10 10v35q0 10 10 10z" />
    <glyph glyph-name="uni20AA" unicode="&#x20aa;" horiz-adv-x="707" 
d="M139 0h-53q-10 0 -10 10v666q0 10 10 10h193q97 0 145 -51.5t48 -146.5v-263q0 -10 -10 -10h-53q-10 0 -10 10v265q0 129 -136 129h-114v-609q0 -10 -10 -10zM622 0h-193q-98 0 -146 51.5t-48 146.5v263q0 10 10 10h54q10 0 10 -10v-265q0 -129 135 -129h114v609
q0 10 10 10h54q10 0 10 -10v-666q0 -10 -10 -10z" />
    <glyph glyph-name="Euro" unicode="&#x20ac;" horiz-adv-x="627" 
d="M447 576q-93 0 -157.5 -37t-92.5 -106h246q11 0 9 -11l-9 -42q-1 -9 -11 -9h-251q-4 -19 -4 -50q0 -25 3 -47h234q11 0 9 -11l-9 -43q-2 -9 -11 -9h-207q28 -71 93 -109t158 -38q47 0 89 11q11 3 11 -9v-54q0 -10 -9 -11q-45 -12 -100 -12q-124 0 -210 59t-117 163h-50
q-10 0 -10 10v43q0 10 10 10h37q-2 40 -2 46q0 27 3 51h-38q-10 0 -10 10v42q0 10 10 10h51q32 103 117.5 161t205.5 58q58 0 104 -13q8 -2 8 -11v-53q0 -5 -2.5 -7.5t-6.5 -1.5q-36 10 -91 10z" />
    <glyph glyph-name="uni20B9" unicode="&#x20b9;" horiz-adv-x="590" 
d="M108 641h417q10 0 10 -10v-48q0 -10 -10 -10h-147q39 -36 47 -92h100q10 0 10 -10v-48q0 -10 -10 -10h-99q-10 -76 -64 -117t-144 -42l173 -242q4 -4 2 -8t-8 -4h-85q-8 0 -12 6l-186 260q-4 4 -4 13v33q0 10 10 10h96q56 0 91 24t43 67h-230q-10 0 -10 10v48q0 10 10 10
h230q-7 45 -42 68.5t-92 23.5h-96q-10 0 -10 10v48q0 10 10 10z" />
    <glyph glyph-name="uni2116" unicode="&#x2116;" horiz-adv-x="1208" 
d="M888 224q-92 0 -156 61t-64 153q0 91 63 151q65 60 157 60q93 0 156 -60q64 -58 64 -151q0 -92 -64 -153t-156 -61zM165 0h-56q-10 0 -10 10v621q0 10 10 10h58q7 0 12 -6l335 -500v496q0 10 10 10h56q10 0 10 -10v-621q0 -10 -10 -10h-58q-8 0 -12 6l-335 501v-497
q0 -10 -10 -10zM888 296q62 0 103 41q42 41 42 102q0 59 -42 100q-41 40 -103 40q-61 0 -104 -40q-42 -41 -42 -100t42 -101q44 -42 104 -42zM1020 82h-264q-10 0 -10 10v42q0 10 10 10h264q10 0 10 -10v-42q0 -10 -10 -10z" />
    <glyph glyph-name="uni2117" unicode="&#x2117;" horiz-adv-x="762" 
d="M625 81q-97 -93 -244 -93q-148 0 -245 93q-97 94 -97 240t97 239t245 93q147 0 244 -93q98 -93 98 -239q0 -145 -98 -240zM102 321q0 -120 79 -196q80 -77 200 -77t199 76t79 197q0 120 -79 196t-199 76q-121 0 -200 -76t-79 -196zM323 152h-40q-10 0 -10 10v312
q0 10 10 10h137q52 0 85 -29t34 -77q2 -48 -31.5 -81t-87.5 -33h-87v-102q0 -10 -10 -10zM333 430v-112h80q30 0 46.5 15t16.5 42q0 26 -17 40.5t-46 14.5h-80z" />
    <glyph glyph-name="trademark" unicode="&#x2122;" horiz-adv-x="720" 
d="M116 590h-81q-10 0 -10 10v31q0 10 10 10h216q10 0 10 -10v-31q0 -10 -10 -10h-80v-235q0 -10 -10 -10h-35q-10 0 -10 10v235zM600 632l72 -276q3 -11 -9 -11h-40q-9 0 -11 9l-48 190l-64 -182q-3 -8 -12 -8h-26q-9 0 -12 8l-64 182l-47 -190q-1 -9 -11 -9h-41
q-11 0 -8 11l71 276q2 9 11 9h37q9 0 12 -8l65 -198l65 198q3 8 12 8h37q9 0 11 -9z" />
    <glyph glyph-name="estimated" unicode="&#x212e;" horiz-adv-x="740" 
d="M674 337v-32q-1 -10 -11 -10h-500v-154q33 -52 91 -80.5t132 -28.5q66 0 120.5 25t86.5 69q5 6 12 6h34q15 0 7 -12q-38 -63 -105.5 -97.5t-154.5 -34.5q-146 0 -235 90q-88 91 -87 244q2 152 87 242q87 90 229 90q134 0 212 -84q79 -83 82 -233zM370 606
q-133 -1 -204 -106v-162h408v179q-74 92 -204 89z" />
    <glyph glyph-name="oneeighth" unicode="&#x215b;" horiz-adv-x="936" 
d="M134 -56l523 784q5 8 13 3l31 -20q7 -4 2 -13l-522 -784q-5 -8 -13 -3l-31 20q-8 5 -3 13zM211 205h-60q-10 0 -10 10v385l-106 -60q-12 -8 -12 7v52q0 8 7 12l114 71q7 4 13 4h54q10 0 10 -10v-461q0 -10 -10 -10zM833 256q36 -14 57 -46t21 -73q0 -64 -50 -105
q-49 -39 -124 -39q-77 0 -125.5 40t-48.5 105q0 41 20.5 72.5t55.5 45.5q-60 34 -60 105q0 56 44 92q44 37 114 37q69 0 113 -36.5t44 -93.5q0 -73 -61 -104zM736 419q-33 3 -55.5 -18t-21.5 -47t22 -48q25 -17 56 -18t56.5 18t22.5 47q0 30 -22 48t-58 18zM737 64
q40 0 66 21t26 56t-26 56t-66 21t-66 -20.5t-26 -55.5t26 -56.5t66 -21.5z" />
    <glyph glyph-name="threeeighths" unicode="&#x215c;" horiz-adv-x="1036" 
d="M234 -56l523 784q5 8 13 3l31 -20q7 -4 2 -13l-522 -784q-5 -8 -13 -3l-31 20q-8 5 -3 13zM370 355q0 -69 -49 -114q-50 -44 -124 -44q-69 0 -115 37t-53 99q-1 10 8 12l59 11q10 2 12 -9q3 -35 28.5 -56.5t61.5 -21.5q40 0 65.5 24.5t25.5 63.5q0 37 -21.5 59t-58.5 26
q-42 2 -52 2h-3q-8 0 -11 8l-12 38q-3 7 4 14l114 112h-183q-10 0 -10 10v50q0 10 10 10h271q10 0 10 -10v-53q0 -7 -5 -12l-110 -110q62 -5 100 -45t38 -101zM932 256q36 -14 57 -46t21 -73q0 -64 -50 -105q-50 -39 -124 -39q-77 0 -125.5 40t-48.5 105q0 41 20.5 72.5
t55.5 45.5q-60 34 -60 105q0 56 44 92q44 37 114 37q69 0 113 -36.5t44 -93.5q0 -73 -61 -104zM835 419q-33 3 -55.5 -18t-21.5 -47t22 -48q25 -17 56 -18t56.5 18t22.5 47q0 30 -22 48t-58 18zM836 64q40 0 66 21t26 56t-26 56t-66 21t-66 -20.5t-26 -55.5t26 -56.5
t66 -21.5z" />
    <glyph glyph-name="fiveeighths" unicode="&#x215d;" horiz-adv-x="1059" 
d="M257 -56l523 784q5 8 13 3l31 -20q7 -4 2 -13l-522 -784q-5 -8 -13 -3l-31 20q-8 5 -3 13zM377 361q0 -71 -51 -118q-50 -45 -125 -45q-66 0 -112 35t-57 92q-2 11 9 12l58 11q10 2 11 -8q6 -33 30 -51.5t60 -18.5q42 0 68.5 25t26.5 66q0 40 -26 65.5t-68 25.5
q-52 0 -79 -32q-6 -6 -13 -5l-60 7q-10 1 -8 11l52 244q1 9 11 9h240q10 0 10 -10v-50q0 -10 -10 -10h-188l-24 -117q32 21 83 21q69 0 116 -45q46 -45 46 -114zM955 256q36 -14 57 -46t21 -73q0 -64 -50 -105q-49 -39 -124 -39q-77 0 -125.5 40t-48.5 105q0 41 20.5 72.5
t55.5 45.5q-60 34 -60 105q0 56 44 92q44 37 114 37q69 0 113 -36.5t44 -93.5q0 -73 -61 -104zM858 419q-33 3 -55.5 -18t-21.5 -47t22 -48q25 -17 56 -18t56.5 18t22.5 47q0 30 -22 48t-58 18zM859 64q40 0 66 21t26 56t-26 56t-66 21t-66 -20.5t-26 -55.5t26 -56.5
t66 -21.5z" />
    <glyph glyph-name="uni2160" unicode="&#x2160;" horiz-adv-x="493" 
d="M443 631v-55q0 -10 -10 -10h-143v-491h143q10 0 10 -10v-55q0 -10 -10 -10h-373q-10 0 -10 10v55q0 10 10 10h144v491h-144q-10 0 -10 10v55q0 10 10 10h373q10 0 10 -10z" />
    <glyph glyph-name="uni2161" unicode="&#x2161;" horiz-adv-x="749" 
d="M690 0h-631q-10 0 -10 10v55q0 10 10 10h131v491h-131q-10 0 -10 10v55q0 10 10 10h631q10 0 10 -10v-55q0 -10 -10 -10h-131v-491h131q10 0 10 -10v-55q0 -10 -10 -10zM275 566v-491h199v491h-199z" />
    <glyph glyph-name="uni2162" unicode="&#x2162;" horiz-adv-x="1023" 
d="M964 0h-905q-10 0 -10 10v55q0 10 10 10h131v491h-131q-10 0 -10 10v55q0 10 10 10h905q10 0 10 -10v-55q0 -10 -10 -10h-131v-491h131q10 0 10 -10v-55q0 -10 -10 -10zM275 566v-491h194v491h-194zM554 566v-491h194v491h-194z" />
    <glyph glyph-name="uni2163" unicode="&#x2163;" horiz-adv-x="975" 
d="M927 65v-55q0 -10 -10 -10h-858q-10 0 -10 10v55q0 10 10 10h119v491h-119q-10 0 -10 10v55q0 10 10 10h857q10 0 10 -10v-55q0 -10 -10 -10h-107l-171 -491h279q10 0 10 -10zM264 566v-491h246l-166 491h-80zM576 129l145 437h-286z" />
    <glyph glyph-name="uni2164" unicode="&#x2164;" horiz-adv-x="786" 
d="M737 631v-55q0 -10 -10 -10h-101l-172 -491h268q10 0 10 -10v-55q0 -10 -10 -10h-657q-10 0 -10 10v55q0 10 10 10h261l-166 491h-101q-10 0 -10 10v55q0 10 10 10h668q10 0 10 -10zM394 129l143 437h-286z" />
    <glyph glyph-name="uni2165" unicode="&#x2165;" horiz-adv-x="976" 
d="M928 65v-55q0 -10 -10 -10h-859q-10 0 -10 10v55q0 10 10 10h273l-167 491h-106q-10 0 -10 10v55q0 10 10 10h858q10 0 10 -10v-55q0 -10 -10 -10h-119v-491h120q10 0 10 -10zM398 129l144 437h-286zM630 566l-171 -491h254v491h-83z" />
    <glyph glyph-name="uni2166" unicode="&#x2166;" horiz-adv-x="1265" 
d="M1217 65v-55q0 -10 -10 -10h-1148q-10 0 -10 10v55q0 10 10 10h272l-166 491h-106q-10 0 -10 10v55q0 10 10 10h1148q10 0 10 -10v-55q0 -10 -10 -10h-131v-491h131q10 0 10 -10zM397 129l144 437h-285zM629 566l-170 -491h252v491h-82zM990 75v491h-193v-491h193z" />
    <glyph glyph-name="uni2167" unicode="&#x2167;" horiz-adv-x="1511" 
d="M1452 0h-1393q-10 0 -10 10v55q0 10 10 10h269l-163 491h-106q-10 0 -10 10v55q0 10 10 10h1394q10 0 10 -10v-55q0 -10 -10 -10h-127v-491h126q10 0 10 -10v-55q0 -10 -10 -10zM256 566l137 -437l137 437h-274zM620 566l-168 -491h253v491h-85zM791 566v-491h183v491
h-183zM1059 566v-491h182v491h-182z" />
    <glyph glyph-name="uni2168" unicode="&#x2168;" horiz-adv-x="944" 
d="M897 65v-55q0 -10 -10 -10h-828q-10 0 -10 10v55q0 10 10 10h119v491h-119q-10 0 -10 10v55q0 10 10 10h827q10 0 10 -10v-55q0 -10 -10 -10h-96l-167 -254l156 -237h108q10 0 10 -10zM517 315l-165 251h-88v-491h94zM447 566l123 -193l123 193h-246zM568 254l-116 -179
h232z" />
    <glyph glyph-name="uni2169" unicode="&#x2169;" horiz-adv-x="747" 
d="M696 631v-55q0 -10 -10 -10h-94l-166 -256l155 -235h107q10 0 10 -10v-55q0 -10 -10 -10h-629q-10 0 -10 10v55q0 10 10 10h100l161 240l-168 251h-93q-10 0 -10 10v55q0 10 10 10h627q10 0 10 -10zM249 566l125 -194l122 194h-247zM370 254l-116 -179h231z" />
    <glyph glyph-name="uni216C" unicode="&#x216c;" horiz-adv-x="641" 
d="M587 268v-258q0 -10 -10 -10h-518q-10 0 -10 10v55q0 10 10 10h124v491h-124q-10 0 -10 10v55q0 10 10 10h342q10 0 10 -10v-55q0 -10 -10 -10h-133v-491h238v193q0 10 10 10h61q10 0 10 -10z" />
    <glyph glyph-name="uni216D" unicode="&#x216d;" horiz-adv-x="696" 
d="M360 -12q-141 0 -230 92q-87 92 -87 238t87 238q88 93 230 93q67 0 121 -23.5t85 -65.5v66q0 10 10 10h60q10 0 10 -10v-206q0 -10 -10 -10h-58q-8 0 -11 9q-16 69 -69.5 111t-131.5 42q-105 0 -169 -70t-64 -184t64 -184q65 -69 169 -69q78 0 131.5 41.5t69.5 110.5
q3 9 11 9h58q10 0 10 -10v-206q0 -10 -10 -10h-60q-10 0 -10 10v67q-31 -42 -85.5 -65.5t-120.5 -23.5z" />
    <glyph glyph-name="uni216E" unicode="&#x216e;" horiz-adv-x="725" 
d="M59 641h314q140 0 224 -88q84 -87 84 -231q0 -145 -86 -234q-85 -88 -228 -88h-308q-10 0 -10 10v55q0 10 10 10h128v491h-128q-10 0 -10 10v55q0 10 10 10zM273 75h91q106 0 167 67q63 67 63 179q0 115 -64 179q-63 66 -167 66h-90v-491z" />
    <glyph glyph-name="uni216F" unicode="&#x216f;" horiz-adv-x="1059" 
d="M364 0h-304q-10 0 -10 10v55q0 10 10 10h120v491h-120q-10 0 -10 10v55q0 10 10 10h231q8 0 11 -8l224 -524l227 524q3 8 11 8h235q10 0 10 -10v-55q0 -10 -10 -10h-127v-491h127q10 0 10 -10v-55q0 -10 -10 -10h-302q-10 0 -10 10v55q0 10 10 10h93v451l-224 -515
q-3 -8 -11 -8h-59q-8 0 -11 8l-221 517v-453h100q10 0 10 -10v-55q0 -10 -10 -10z" />
    <glyph glyph-name="arrowleft" unicode="&#x2190;" horiz-adv-x="642" 
d="M182 271l382 -1q10 0 10 -10v-48q0 -10 -10 -10h-381l113 -137q9 -12 -6 -12h-64q-8 0 -12 6l-140 171q-7 7 0 14l140 172q4 6 12 6h64q15 0 6 -12z" />
    <glyph glyph-name="arrowup" unicode="&#x2191;" horiz-adv-x="451" 
d="M231 586l173 -141q6 -6 6 -12v-55q0 -15 -12 -6l-138 113v-475q0 -10 -10 -10h-50q-10 0 -10 10v476l-137 -114q-12 -9 -12 6v57q0 6 6 12l170 139q7 7 14 0z" />
    <glyph glyph-name="arrowright" unicode="&#x2192;" horiz-adv-x="642" 
d="M351 422h64q7 0 12 -6l141 -172q7 -7 0 -14l-140 -171q-4 -6 -12 -6h-65q-15 0 -6 12l114 137h-381q-10 0 -10 10v48q0 10 10 10l382 1l-115 139q-9 12 6 12z" />
    <glyph glyph-name="arrowdown" unicode="&#x2193;" horiz-adv-x="451" 
d="M260 570v-475l138 113q12 9 12 -6v-55q0 -6 -6 -12l-173 -142q-7 -7 -14 0l-170 140q-6 6 -6 12v57q0 15 12 6l137 -113v475q0 10 10 10h50q10 0 10 -10z" />
    <glyph glyph-name="arrowboth" unicode="&#x2194;" horiz-adv-x="814" 
d="M530 422h63q7 0 12 -6l140 -172q7 -7 0 -14l-140 -171q-5 -6 -12 -6h-63q-15 0 -6 12l112 137h-455l111 -137q9 -12 -6 -12h-63q-7 0 -12 6l-141 171q-7 7 0 14l141 172q5 6 12 6h63q15 0 6 -12l-111 -139h455l-112 139q-9 12 6 12z" />
    <glyph glyph-name="arrowupdn" unicode="&#x2195;" horiz-adv-x="504" 
d="M436 422v-65q0 -15 -12 -6l-138 113v-439l138 114q12 9 12 -6v-63q0 -6 -6 -12l-172 -140q-7 -7 -14 0l-171 139q-6 6 -6 12v64q0 15 12 6l139 -113v438l-139 -113q-12 -9 -12 6v65q0 6 6 12l171 140q7 7 14 0l172 -140q6 -6 6 -12z" />
    <glyph glyph-name="carriagereturn" unicode="&#x21b5;" horiz-adv-x="682" 
d="M557 256v329q0 10 10 10h49q10 0 10 -10v-388q0 -10 -10 -10h-391v-105q0 -15 -12 -6l-162 138q-7 7 0 14l162 138q12 9 12 -6v-104h332z" />
    <glyph glyph-name="uni21BA" unicode="&#x21ba;" horiz-adv-x="892" 
d="M407 -12q-146 0 -243 91t-97 242q0 145 97 239t252 94q95 0 161 -33q10 -4 5 -14l-22 -44q-5 -8 -13 -5q-57 28 -133 28q-122 0 -198 -75q-76 -73 -76 -189q0 -118 74 -192q74 -73 191 -73q119 0 194 75q76 75 73 194h-110q-6 0 -7.5 4t2.5 8l137 160q7 8 14 0l137 -160
q4 -4 2 -8t-8 -4h-95q3 -152 -93 -245t-244 -93z" />
    <glyph glyph-name="uni21BB" unicode="&#x21bb;" horiz-adv-x="892" 
d="M485 -12q-148 0 -244 93t-93 245h-95q-6 0 -8 4t2 8l137 160q7 8 14 0l137 -160q4 -4 2.5 -8t-7.5 -4h-110q-3 -119 72 -194q76 -75 195 -75q117 0 190 73q75 74 75 192q0 115 -77 189q-77 75 -197 75q-76 0 -133 -28q-8 -3 -13 5l-22 44q-5 10 5 14q66 33 161 33
q154 0 251 -94q98 -95 98 -239q0 -150 -98 -242q-97 -91 -242 -91z" />
    <glyph glyph-name="partialdiff" unicode="&#x2202;" horiz-adv-x="543" 
d="M213 636l186 -202q5 -5 12 -14l15 -17q20 -20 31 -39q47 -70 46 -149q0 -102 -65 -165q-65 -62 -168 -62q-105 0 -167 61q-63 61 -63 160q0 97 63 159q64 62 164 62q6 0 32 -2l-182 201q-9 12 6 12h78q7 0 12 -5zM420 213q0 76 -57 145q-42 11 -90 11q-67 -1 -108 -45
q-40 -43 -40 -111q0 -69 40 -110q41 -41 107 -41t107 42t41 109z" />
    <glyph glyph-name="emptyset" unicode="&#x2205;" horiz-adv-x="741" 
d="M370 654q140 0 235 -95t95 -239t-95 -239q-94 -93 -235 -93q-142 0 -237 93q-94 93 -94 239q0 145 94 239q95 95 237 95zM370 574q-103 0 -174 -71q-69 -71 -69 -183q0 -78 36 -139l370 331q-68 62 -163 62zM370 66q103 0 172 71q69 72 69 183q0 78 -36 139l-370 -330
q67 -63 165 -63z" />
    <glyph glyph-name="uni2206" unicode="&#x2206;" horiz-adv-x="618" 
d="M278 641h63q8 0 11 -8l210 -556q2 -10 2 -12v-55q0 -10 -10 -10h-490q-10 0 -10 10v55q0 6 2 12l211 556q3 8 11 8zM488 71l-179 471l-178 -471h357z" />
    <glyph glyph-name="product" unicode="&#x220f;" horiz-adv-x="550" 
d="M103 441h-71q-10 0 -10 10v58q0 10 10 10h472q10 0 10 -10v-58q0 -10 -10 -10h-84v-297q0 -85 83 -79q11 0 11 -10v-50q0 -10 -9 -10q-79 -11 -123 27.5t-44 119.5v299h-151v-431q0 -10 -10 -10h-64q-10 0 -10 10v431z" />
    <glyph glyph-name="summation" unicode="&#x2211;" horiz-adv-x="449" 
d="M400 0h-360q-10 0 -10 10v73q0 7 5 12l219 226l-219 227q-5 5 -5 12v71q0 10 10 10h360q10 0 10 -10v-64q0 -10 -10 -10h-265l215 -229q6 -7 0 -14l-216 -228h266q10 0 10 -10v-66q0 -10 -10 -10z" />
    <glyph glyph-name="minus" unicode="&#x2212;" horiz-adv-x="571" 
d="M123 269v53q0 10 10 10h304q10 0 10 -10v-53q0 -10 -10 -10h-304q-10 0 -10 10z" />
    <glyph glyph-name="radical" unicode="&#x221a;" horiz-adv-x="667" 
d="M205 98l274 707q3 8 11 8h231q10 0 10 -10v-54q0 -10 -10 -10h-186l-285 -731q-3 -8 -11 -8h-67q-8 0 -11 8l-138 369q-3 12 8 12h60q9 0 12 -8z" />
    <glyph glyph-name="infinity" unicode="&#x221e;" horiz-adv-x="792" 
d="M47 256q0 71 50 121q49 49 122 49q106 0 177 -110q71 110 177 110q73 0 122 -49q50 -50 50 -121t-50 -121q-49 -48 -122 -48q-107 0 -177 111q-70 -111 -177 -111q-73 0 -122 49q-50 50 -50 120zM126 256q0 -40 26.5 -66t68.5 -26q33 0 66.5 23t56.5 69q-23 47 -56 70
t-67 23q-42 0 -68.5 -26t-26.5 -67zM448 256q23 -45 56 -68.5t68 -23.5q41 0 68 26t27 66t-27 66.5t-68 26.5q-35 0 -68 -23.5t-56 -69.5z" />
    <glyph glyph-name="integral" unicode="&#x222b;" horiz-adv-x="365" 
d="M265 654h62q10 0 10 -10v-58q0 -10 -10 -10h-57q-20 0 -32.5 -13t-12.5 -38v-408q0 -57 -35.5 -92.5t-89.5 -35.5h-62q-10 0 -10 10v56q0 10 10 10h57q20 0 33 13.5t13 38.5v408q0 56 35.5 92.5t88.5 36.5z" />
    <glyph glyph-name="approxequal" unicode="&#x2248;" horiz-adv-x="406" 
d="M320 363q0 10 10 10h37q10 0 10 -10q-1 -51 -28.5 -80.5t-70.5 -29.5q-38 0 -85 31q-47 32 -68 32q-36 0 -39 -42q0 -10 -10 -10h-37q-10 0 -10 10q1 49 28.5 79t69.5 30q36 0 85 -32t69 -32q36 0 39 44zM320 198q0 10 10 10h37q10 0 10 -10q-1 -52 -28.5 -81.5
t-70.5 -29.5q-36 0 -85 32q-47 32 -68 32q-36 0 -39 -42q0 -10 -10 -10h-37q-10 0 -10 10q1 49 28.5 79t69.5 30q36 0 85 -32t69 -32q36 0 39 44z" />
    <glyph glyph-name="notequal" unicode="&#x2260;" horiz-adv-x="496" 
d="M452 431v-54q0 -10 -10 -10h-121l-69 -125h190q10 0 10 -10v-53q0 -10 -10 -10h-229l-60 -110q-3 -7 -12 -7h-58q-5 0 -7.5 3.5t0.5 8.5l57 105h-79q-10 0 -10 10v53q0 10 10 10h119l68 125h-187q-10 0 -10 10v54q0 10 10 10h228l59 109q3 7 12 7h57q15 0 8 -12l-57 -104
h81q10 0 10 -10z" />
    <glyph glyph-name="lessequal" unicode="&#x2264;" horiz-adv-x="549" 
d="M481 196v-63q0 -13 -11 -8l-391 136q-8 3 -8 12v56q0 9 8 12l391 136q11 5 11 -8v-63q0 -9 -8 -12l-293 -93l293 -93q8 -3 8 -12zM478 61v-51q0 -10 -10 -10h-391q-10 0 -10 10v51q0 10 10 10h391q10 0 10 -10z" />
    <glyph glyph-name="greaterequal" unicode="&#x2265;" horiz-adv-x="549" 
d="M469 261l-391 -136q-11 -5 -11 8v63q0 9 8 12l294 93l-294 93q-8 3 -8 12v63q0 13 11 8l391 -136q8 -3 8 -12v-56q0 -9 -8 -12zM471 0h-390q-10 0 -10 10v51q0 10 10 10h390q10 0 10 -10v-51q0 -10 -10 -10z" />
    <glyph glyph-name="uni2388" unicode="&#x2388;" horiz-adv-x="859" 
d="M441 -121h-23q-10 0 -10 10v101q-66 5 -123 38t-94 88l-87 -50q-9 -5 -14 3l-12 19q-4 9 4 14l87 50q-29 63 -29 127q0 65 28 125l-85 50q-8 5 -4 14l12 20q4 9 14 3l85 -49q37 54 94.5 87.5t123.5 38.5v99q0 10 10 10h23q10 0 10 -10v-99q67 -5 124 -38.5t94 -88.5
l86 49q9 5 14 -3l12 -19q4 -9 -4 -14l-87 -50q29 -60 29 -125q0 -66 -29 -126l86 -50q9 -4 4 -14l-12 -20q-4 -9 -14 -4l-86 50q-37 -54 -94 -87t-123 -38v-101q0 -10 -10 -10zM235 416l173 -101v202q-110 -11 -173 -101zM451 517v-202l173 100q-63 91 -173 102zM214 178
l173 100l-174 100q-21 -46 -21 -99t22 -101zM472 278l173 -99q46 100 1 199zM408 41v200l-172 -99q62 -90 172 -101zM451 241v-200q110 11 172 100z" />
    <glyph glyph-name="uni2460" unicode="&#x2460;" 
d="M723 321q0 -145 -98 -240q-97 -93 -244 -93q-148 0 -245 93q-97 94 -97 240t97 239q97 94 245 94q147 0 244 -94q98 -95 98 -239zM182 124q79 -76 199 -76t199 76q80 77 80 197q0 119 -80 196t-199 77t-199 -77q-79 -76 -79 -196q0 -121 79 -197zM373 443l-84 -51
q-12 -8 -12 7v42q0 8 7 12l90 56q7 4 13 4h43q10 0 10 -10v-365q0 -10 -10 -10h-47q-10 0 -10 10v305z" />
    <glyph glyph-name="uni2461" unicode="&#x2461;" 
d="M723 321q0 -145 -98 -240q-97 -93 -244 -93q-148 0 -245 93q-97 94 -97 240t97 239q97 94 245 94q147 0 244 -94q98 -95 98 -239zM182 124q79 -76 199 -76t199 76q80 77 80 197q0 119 -80 196t-199 77t-199 -77q-79 -76 -79 -196q0 -121 79 -197zM451 289l-97 -100h149
q10 0 10 -10v-41q0 -10 -10 -10h-239q-10 0 -10 10v31q0 7 5 12l141 144q39 41 39 77q0 26 -16.5 41.5t-43.5 15.5q-49 0 -60 -41q-3 -9 -12 -8l-45 6q-11 2 -8 11q8 42 43.5 67.5t84.5 25.5q56 0 90 -31t34 -82q0 -62 -55 -118z" />
    <glyph glyph-name="uni2462" unicode="&#x2462;" 
d="M723 321q0 -145 -98 -240q-97 -93 -244 -93q-148 0 -245 93q-97 94 -97 240t97 239q97 94 245 94q147 0 244 -94q98 -95 98 -239zM182 124q79 -76 199 -76t199 76q80 77 80 197q0 119 -80 196t-199 77t-199 -77q-79 -76 -79 -196q0 -121 79 -197zM496 450l-85 -85
q49 -5 78.5 -36.5t29.5 -79.5q0 -56 -39 -91.5t-100 -35.5q-54 0 -91 29t-44 77q-1 10 8 12l47 9q9 2 11 -9q3 -26 22.5 -42t47.5 -16q31 0 51 19t20 49q0 28 -17.5 45.5t-47.5 20.5q-14 2 -40 2q-8 0 -11 8l-9 29q-2 8 4 14l87 86h-142q-10 0 -10 10v38q0 10 10 10h215
q10 0 10 -10v-41q0 -7 -5 -12z" />
    <glyph glyph-name="uni2463" unicode="&#x2463;" 
d="M723 321q0 -145 -98 -240q-97 -93 -244 -93q-148 0 -245 93q-97 94 -97 240t97 239q97 94 245 94q147 0 244 -94q98 -95 98 -239zM182 124q79 -76 199 -76t199 76q80 77 80 197q0 119 -80 196t-199 77t-199 -77q-79 -76 -79 -196q0 -121 79 -197zM389 513h68q10 0 10 -10
v-214h56q10 0 10 -10v-36q0 -10 -10 -10h-56v-95q0 -10 -10 -10h-44q-10 0 -10 10v95h-176q-10 0 -10 10v34q0 9 4 13l156 217q5 6 12 6zM403 448l-113 -159h113v159z" />
    <glyph glyph-name="uni2464" unicode="&#x2464;" 
d="M723 321q0 -145 -98 -240q-97 -93 -244 -93q-148 0 -245 93q-97 94 -97 240t97 239q97 94 245 94q147 0 244 -94q98 -95 98 -239zM182 124q79 -76 199 -76t199 76q80 77 80 197q0 119 -80 196t-199 77t-199 -77q-79 -76 -79 -196q0 -121 79 -197zM391 381q56 0 93 -37
q37 -36 37 -91q0 -57 -40.5 -93.5t-101.5 -36.5q-51 0 -88 27t-47 73q-3 10 8 12l46 8q10 2 11 -8q5 -24 24 -38.5t46 -14.5q32 0 53 20t21 52q0 31 -20 51t-53 20q-40 0 -62 -24q-6 -6 -13 -5l-46 5q-10 1 -8 11l41 192q2 9 11 9h189q10 0 10 -10v-38q0 -10 -10 -10h-147
l-19 -90q28 16 65 16z" />
    <glyph glyph-name="uni2465" unicode="&#x2465;" 
d="M723 321q0 -145 -98 -240q-97 -93 -244 -93q-148 0 -245 93q-97 94 -97 240t97 239q97 94 245 94q147 0 244 -94q98 -95 98 -239zM182 124q79 -76 199 -76t199 76q80 77 80 197q0 119 -80 196t-199 77t-199 -77q-79 -76 -79 -196q0 -121 79 -197zM394 384q58 0 96.5 -36
t38.5 -92q0 -58 -41 -96t-105 -38q-63 0 -102 37.5t-39 94.5q0 56 51 129l85 124q4 6 12 6h50q14 0 7 -12l-83 -120q15 3 30 3zM384 182q33 0 55 20t22 52t-21 52t-53 20q-33 0 -55 -20t-22 -52t21 -52t53 -20z" />
    <glyph glyph-name="uni2466" unicode="&#x2466;" 
d="M723 321q0 -145 -98 -240q-97 -93 -244 -93q-148 0 -245 93q-97 94 -97 240t97 239q97 94 245 94q147 0 244 -94q98 -95 98 -239zM182 124q79 -76 199 -76t199 76q80 77 80 197q0 119 -80 196t-199 77t-199 -77q-79 -76 -79 -196q0 -121 79 -197zM436 455h-172
q-10 0 -10 10v38q0 10 10 10h236q10 0 10 -10v-37q0 -4 -3 -12l-147 -319q-3 -7 -11 -7h-52q-13 0 -8 12z" />
    <glyph glyph-name="uni2467" unicode="&#x2467;" 
d="M723 321q0 -145 -98 -240q-97 -93 -244 -93q-148 0 -245 93q-97 94 -97 240t97 239q97 94 245 94q147 0 244 -94q98 -95 98 -239zM182 124q79 -76 199 -76t199 76q80 77 80 197q0 119 -80 196t-199 77t-199 -77q-79 -76 -79 -196q0 -121 79 -197zM460 333q61 -25 61 -95
q0 -51 -39 -83t-100 -32q-62 0 -101 31.5t-39 84.5q0 32 16.5 57.5t43.5 36.5q-47 29 -47 83q0 45 35.5 74.5t91.5 29.5q55 0 90.5 -29.5t35.5 -74.5q0 -57 -48 -83zM381 461q-26 0 -43 -14t-17 -36q-2 -32 29.5 -45.5t63 0t28.5 45.5q0 22 -17 36t-44 14zM381 182
q31 0 51.5 16.5t20.5 43.5t-20 43t-51 16q-32 0 -52 -16t-20 -43q0 -26 20.5 -43t50.5 -17z" />
    <glyph glyph-name="uni2468" unicode="&#x2468;" 
d="M723 321q0 -145 -98 -240q-97 -93 -244 -93q-148 0 -245 93q-97 94 -97 240t97 239q97 94 245 94q147 0 244 -94q98 -95 98 -239zM182 124q79 -76 199 -76t199 76q80 77 80 197q0 119 -80 196t-199 77t-199 -77q-79 -76 -79 -196q0 -121 79 -197zM528 388q0 -55 -52 -129
l-84 -125q-4 -6 -12 -6h-51q-6 0 -8 4t2 8l84 120q-17 -3 -32 -3q-58 0 -96 36t-38 92q0 59 41 97q43 38 105 38q63 0 102 -37.5t39 -94.5zM383 315q33 0 55 20.5t22 52.5t-21 51t-54 19t-55 -19.5t-22 -51.5t22 -52t53 -20z" />
    <glyph glyph-name="uni24EA" unicode="&#x24ea;" 
d="M723 321q0 -145 -98 -240q-97 -93 -244 -93q-148 0 -245 93q-97 94 -97 240t97 239q97 94 245 94q147 0 244 -94q98 -95 98 -239zM182 124q79 -76 199 -76t199 76q80 77 80 197q0 119 -80 196t-199 77t-199 -77q-79 -76 -79 -196q0 -121 79 -197zM382 122q-69 0 -108 53
t-39 145q0 93 39 146.5t108 53.5t108 -53.5t39 -146.5q0 -92 -39.5 -145t-107.5 -53zM382 182q38 0 58 36t20 103t-20 103t-58 36q-79 0 -79 -139t79 -139z" />
    <glyph glyph-name="uni24FF" unicode="&#x24ff;" 
d="M723 321q0 -145 -98 -240q-97 -93 -244 -93q-148 0 -245 93q-97 94 -97 240t97 239q97 94 245 94q147 0 244 -94q98 -95 98 -239zM382 122q68 0 107.5 53t39.5 145q0 93 -39 146.5t-108 53.5t-108 -53.5t-39 -146.5q0 -92 39 -145t108 -53zM382 182q-79 0 -79 139t79 139
q38 0 58 -36t20 -103t-20 -103t-58 -36z" />
    <glyph glyph-name="uni2602" unicode="&#x2602;" horiz-adv-x="885" 
d="M457 736l3 -54q143 -4 232 -86q88 -79 93 -209q0 -10 -10 -10h-17q-10 0 -10 10q-4 34 -28 54.5t-61 20.5q-36 0 -59.5 -20.5t-27.5 -54.5q0 -10 -10 -10h-17q-10 0 -10 10q-3 30 -23 49.5t-51 24.5v-396q0 -54 -33.5 -87.5t-88.5 -33.5q-53 0 -85.5 30t-35.5 81
q0 10 10 10h12q10 0 10 -10q4 -36 28 -57.5t61 -21.5q39 0 62.5 24.5t23.5 64.5v396q-32 -4 -52 -24t-23 -50q0 -10 -10 -10h-17q-10 0 -10 10q-4 34 -27.5 54.5t-59.5 20.5q-37 0 -61 -20.5t-28 -54.5q0 -10 -10 -10h-17q-10 0 -10 10q5 130 92 209q89 82 234 86l4 54
q0 10 11 10h5q11 0 11 -10z" />
    <glyph glyph-name="uni2605" unicode="&#x2605;" horiz-adv-x="832" 
d="M416 593l59 -199q3 -8 12 -8h214l-170 -119q-7 -6 -4 -13l66 -199l-170 126q-7 4 -14 0l-170 -126l66 199q3 7 -4 13l-170 119h207q9 0 12 8z" />
    <glyph glyph-name="uni2609" unicode="&#x2609;" horiz-adv-x="950" 
d="M820 0h-718q-11 0 -9 11l9 54q2 9 11 9q60 5 71 57l67 384q3 29 -9.5 40t-40.5 11q-11 0 -9 11l10 54q2 9 11 9l208 1q11 0 9 -11l-9 -54q-1 -9 -11 -9q-50 0 -59 -52l-64 -347q-9 -45 -17 -66t-25 -36l12 -16q16 13 41 21q32 9 89 9h289q33 0 53 6q24 10 30 45l13 77
q2 9 10 9h66q12 0 10 -11l-28 -197q-2 -9 -10 -9zM734 523q0 30 30 30q29 0 29 -30q2 -17 -13.5 -24.5t-31 0t-14.5 24.5zM498 144h-148q-11 0 -9 11l9 52q2 9 11 9h88l3 16q-79 40 -79 133q0 77 56 130q56 52 148 52q82 0 132.5 -43t50.5 -113q0 -57 -33 -100.5t-87 -58.5
l-4 -16h79q12 0 10 -11l-8 -52q-1 -9 -10 -9h-150q-11 0 -9 11l14 86q1 7 9 10q49 10 78.5 44t29.5 79q0 46 -28.5 72.5t-76.5 26.5q-54 0 -88 -33.5t-34 -84.5q0 -36 17.5 -63.5t46.5 -39.5q9 -3 7 -12l-14 -87q-1 -9 -11 -9zM741 524q0 -24 23 -24q22 0 22 23q0 24 -22 24
q-23 0 -23 -23zM753 519v9q0 10 10 10h3q11 0 11 -9q0 -7 -6 -9q5 -9 3 -11q-4 0 -6 5l-3 5h-6q0 -10 -3 -10t-3 10zM759 533v-10h6q4 0 5.5 2.5t0 5t-4.5 2.5h-7z" />
    <glyph glyph-name="uni261C" unicode="&#x261c;" horiz-adv-x="967" 
d="M851 387q8 -1 10 -9q13 -51 15 -149q3 -101 -4 -151q-2 -9 -10 -9q-103 -4 -164 18q-8 3 -7 12l3 16q-40 -26 -96 -28q-55 -1 -92 23q-43 -32 -87 -32q-23 0 -37.5 12.5t-13.5 30.5q-37 -6 -58 13.5t-14 52.5q-42 6 -44.5 47.5t32.5 63.5q-39 -3 -54 -3q-39 0 -78 -6
q-21 -3 -47 -3q-15 0 -25 9t-10 24q0 24 25 31q85 26 189 41q99 15 177 17q143 2 236 -74l-10 27q-3 11 6 12q23 5 78 10q59 5 80 4zM679 126q18 15 24 46q10 60 -5 124q-13 39 -80 68q-64 28 -132 30q-115 1 -370 -52q-31 -6 -31 -23q0 -18 26 -18q20 0 52 5q9 2 11 7.5
t-1 18.5q-2 11 1 11q2 0 5 -8q3 -5 5.5 -14t5.5 -12t11 -3q4 0 21.5 1.5t19.5 1.5q18 1 14 25q-3 8 -1 10q1 1 2 0t2.5 -3t2.5 -5l1 -2q1 -3 2 -5.5t1 -3.5q7 -20 37 -1q39 26 65 36q30 13 45 14q10 2 62 7q11 2 11 -3q0 -4 -10 -5q-92 -11 -149 -53q10 4 18 0.5t7 -11.5
q-1 -10 -12.5 -24t-20.5 -15q-12 -1 -21.5 5.5t-10.5 15.5q-2 -14 6.5 -23t25.5 -9q24 0 51.5 19t44.5 48q5 8 7 8q1 0 6 -8q9 -22 38 -26t49 9q10 3 11 2q2 -3 -6 -8q-7 -2 -9 -8q-19 -21 31 -46q27 -13 62 -21q10 -1 10 -5q-2 -5 -10 -3q-57 4 -107 21q14 -14 5 -36
q20 -3 31 -18q19 -34 -16 -69q31 -19 83 -16t79 24zM855 88q7 70 3 154q-3 83 -14 129q-49 4 -143 -10q22 -51 22 -128q0 -74 -17 -134q60 -20 149 -11zM293 296q-2 -5 7.5 -11t19.5 -5q4 0 13 9.5t10 14.5q1 9 -9.5 11.5t-18.5 -3.5q-12 -6 -22 -16zM271 222q18 -31 68 -25
q51 8 103 43q29 20 14 45q-12 22 -35 14l-10 -6q-29 -24 -36 -28q-27 -20 -56 -20t-41 19q-18 -22 -7 -42zM418 245q-11 0 -16.5 7.5t-0.5 17.5q3 7 11.5 14.5t14.5 6.5q7 0 14 -8t8 -16q0 -8 -10.5 -15t-20.5 -7zM427 283q-6 0 -12.5 -6.5t-6.5 -12.5q0 -11 11 -11
q7 0 14 4.5t7 9.5q0 6 -4.5 11t-8.5 5zM361 135q67 0 127 67q17 17 -3 34q-18 16 -35 2q-63 -58 -137 -56q-2 -23 9 -35t39 -12zM484 211q0 -7 -10 -13.5t-20 -6.5q-15 0 -15 17q0 9 8 18.5t15 9.5t14 -8t8 -17zM452 201q4 -1 12 0q11 5 11 11q0 5 -4.5 10.5t-8.5 5.5
q-7 0 -13 -12q-3 -6 1 -12q0 -1 2 -3zM383 124q0 -31 41 -31q48 0 87 39q29 27 10 51q-19 21 -39 1q-42 -46 -99 -60zM518 161q0 -12 -15 -18q-13 -6 -24 2q-9 9 -2 25t19 16q9 0 16 -8t6 -17zM496 149q8 0 13 8q3 6 0 12q-5 9 -13 9q-4 0 -9 -5.5t-5 -11.5q0 -12 14 -12z
M753 131q15 0 15 -16q0 -15 -15 -15q-14 0 -14 15q0 16 14 16z" />
    <glyph glyph-name="uni261E" unicode="&#x261e;" horiz-adv-x="967" 
d="M872 350q25 -7 25 -31q0 -15 -10 -24t-25 -9q-26 0 -47 3q-39 6 -78 6q-15 0 -54 3q35 -22 32.5 -63.5t-44.5 -47.5q7 -33 -14 -52.5t-58 -13.5q1 -18 -13.5 -30.5t-37.5 -12.5q-44 0 -87 32q-37 -24 -92 -23q-56 2 -96 28l3 -16q1 -9 -7 -12q-61 -22 -164 -18
q-9 0 -10 9q-7 46 -5 151q3 100 16 149q2 8 10 9q84 2 157 -13q10 -3 7 -13l-10 -27q93 76 236 74q78 -2 177 -17q104 -15 189 -41zM856 301q26 0 26 18q0 17 -31 23q-255 53 -370 52q-67 -1 -133 -30t-79 -68q-15 -64 -5 -124q6 -31 24 -46q27 -21 78 -24q53 -3 84 16
q-35 35 -16 69q11 15 31 18q-9 22 5 36q-50 -17 -107 -21q-9 -1 -10 3q-1 1 0.5 1.5t4 2t5.5 1.5q74 16 94 45q9 12 -1 22l-9 7q-8 6 -5 9q0 1 1 1t3.5 -1t5.5 -2q21 -13 49.5 -9t37.5 25q3 9 6 9q3 -1 7 -7q17 -29 44.5 -48.5t51.5 -19.5q17 0 25.5 9t6.5 23
q-1 -9 -10.5 -15.5t-21.5 -5.5q-9 1 -20.5 15t-12.5 24q-1 8 7 11.5t18 -0.5q-57 42 -149 53q-9 1 -9 5q0 5 11 3q50 -5 61 -7q47 -7 110 -50q30 -19 37 1q0 1 1 3.5t2 5.5l1 2q1 3 2.5 5t2.5 3t2 0q2 -2 -1 -10q-4 -24 14 -25q2 0 19.5 -1.5t21.5 -1.5q8 0 11 2.5t6 12
t5 13.5q3 9 5 9q3 -2 1 -10q-6 -23 10 -27q32 -5 52 -5zM112 88q89 -9 149 11q-17 60 -17 134q0 77 22 128q-94 14 -143 10q-11 -43 -15 -129q-3 -87 4 -154zM647 280q10 -1 19.5 5t7.5 11q-10 10 -22 16q-8 6 -18.5 3.5t-9.5 -11.5q1 -5 10 -14.5t13 -9.5zM696 222
q11 20 -7 42q-12 -19 -41 -19q-21 0 -37.5 9t-54.5 39q-21 17 -40 -1q-18 -18 -4 -40q6 -8 13 -12q52 -35 102 -43q51 -6 69 25zM540 291q6 1 14.5 -6.5t11.5 -14.5q5 -10 -0.5 -17.5t-16.5 -7.5q-10 0 -20.5 7t-10.5 15q1 8 8 16t14 8zM548 253q11 0 11 11q0 6 -6.5 12.5
t-12.5 6.5q-4 0 -8.5 -5t-4.5 -11q0 -5 7 -9.5t14 -4.5zM606 135q28 0 39 12t9 35q-74 -2 -137 56q-17 14 -35 -2q-20 -17 -3 -34q60 -67 127 -67zM528 208q0 -17 -15 -17q-10 0 -20 6.5t-10 13.5q1 9 8 17t14 8t15 -9.5t8 -18.5zM517 204q4 6 1 12q-6 12 -13 12
q-4 0 -8.5 -5.5t-4.5 -10.5q0 -6 11 -11q7 -1 12 0q2 2 2 3zM543 93q41 0 41 31q-57 14 -99 60q-20 20 -39 -1q-19 -24 10 -51q39 -39 87 -39zM471 186q12 0 19 -16q7 -15 -2 -24t-24 -3t-15 18q-1 9 6 17t16 8zM471 149q14 0 14 12q0 6 -5 11.5t-9 5.5q-9 0 -13 -9
q-3 -4 -1 -10q4 -10 14 -10zM214 131q14 0 14 -16q0 -15 -14 -15q-15 0 -15 15q0 16 15 16z" />
    <glyph glyph-name="uni2639" unicode="&#x2639;" 
d="M723 321q0 -145 -98 -240q-97 -93 -244 -93q-148 0 -245 93q-97 94 -97 240t97 239q97 94 245 94q147 0 244 -94q98 -95 98 -239zM182 124q79 -76 199 -76t199 76q80 77 80 197q0 119 -80 196t-199 77t-199 -77q-79 -76 -79 -196q0 -121 79 -197zM283 350
q-25 0 -43.5 18.5t-18.5 43.5q0 24 18.5 42t43.5 18q24 0 42 -18t18 -42q0 -25 -18 -43.5t-42 -18.5zM481 350q-25 0 -43 18.5t-18 43.5q0 24 18 42t43 18t43 -18t18 -42q0 -25 -18.5 -43.5t-42.5 -18.5zM222 163q-4 4 -2 10q14 43 58 68.5t104 25.5t103.5 -25.5t57.5 -68.5
q3 -6 -1 -10q-3 -3 -11 3q-58 52 -149 52t-150 -52q-7 -6 -10 -3z" />
    <glyph glyph-name="smileface" unicode="&#x263a;" 
d="M723 321q0 -145 -98 -240q-97 -93 -244 -93q-148 0 -245 93q-97 94 -97 240t97 239q97 94 245 94q147 0 244 -94q98 -95 98 -239zM182 124q79 -76 199 -76t199 76q80 77 80 197q0 119 -80 196t-199 77t-199 -77q-79 -76 -79 -196q0 -121 79 -197zM283 350
q-25 0 -43.5 18.5t-18.5 43.5q0 24 18.5 42t43.5 18q24 0 42 -18t18 -42q0 -25 -18 -43.5t-42 -18.5zM481 350q-25 0 -43 18.5t-18 43.5q0 24 18 42t43 18t43 -18t18 -42q0 -25 -18.5 -43.5t-42.5 -18.5zM220 254q-3 6 2 11q2 2 10 -4q59 -52 150 -52t149 52q7 7 11 4t1 -11
q-13 -43 -56.5 -68.5t-104.5 -25.5q-60 0 -104 25.5t-58 68.5z" />
    <glyph glyph-name="invsmileface" unicode="&#x263b;" 
d="M723 321q0 -145 -98 -240q-97 -93 -244 -93q-148 0 -245 93q-97 94 -97 240t97 239q97 94 245 94q147 0 244 -94q98 -95 98 -239zM283 350q24 0 42 18.5t18 43.5q0 24 -18 42t-42 18q-25 0 -43.5 -18t-18.5 -42q0 -25 18.5 -43.5t43.5 -18.5zM481 350q24 0 42.5 18.5
t18.5 43.5q0 24 -18 42t-43 18t-43 -18t-18 -42q0 -25 18 -43.5t43 -18.5zM545 262l-7 5q-59 -58 -156 -58q-96 0 -157 58l-7 -5q11 -47 55.5 -74.5t108.5 -27.5t108 27.5t55 74.5z" />
    <glyph glyph-name="uni2709" unicode="&#x2709;" horiz-adv-x="701" 
d="M90 124v363q0 10 10 10h501q10 0 10 -10v-363q0 -10 -10 -10h-501q-10 0 -10 10zM393 325l162 136h-410l163 -137q17 16 43 16q23 0 42 -15zM290 295l-163 138v-282h447v283l-163 -138q3 -9 3 -19q0 -27 -18.5 -45.5t-44.5 -18.5q-27 0 -45.5 18.5t-18.5 45.5q0 11 3 18z
" />
    <glyph glyph-name="uni2713" unicode="&#x2713;" horiz-adv-x="768" 
d="M244 14l-192 179q-6 6 0 14l34 38q8 7 14 1l142 -134l425 474q6 8 14 0l41 -36q7 -7 1 -14l-465 -521q-8 -7 -14 -1z" />
    <glyph glyph-name="uni2715" unicode="&#x2715;" horiz-adv-x="756" 
d="M378 311l-287 -293q-7 -7 -14 0l-29 29q-7 7 0 14l287 294l-286 293q-7 7 0 14l30 29q7 7 14 0l285 -292l285 292q7 7 14 0l30 -29q7 -7 0 -14l-287 -293l288 -294q7 -7 0 -14l-29 -29q-7 -7 -14 0z" />
    <glyph glyph-name="uni2736" unicode="&#x2736;" horiz-adv-x="670" 
d="M393 214l-52 -192q-1 -4 -3.5 -6t-5.5 -0.5t-4 6.5l-59 192l-192 -45q-7 -2 -9 2t3 9l140 141l-140 147q-5 5 -3 9t9 2l192 -52l59 192q1 5 4 6.5t5.5 -0.5t3.5 -6l52 -192l200 52q7 2 9 -2t-3 -9l-140 -147l140 -141q5 -5 3 -9t-9 -2z" />
    <glyph glyph-name="uni2737" unicode="&#x2737;" horiz-adv-x="773" 
d="M434 208l-42 -181q-1 -4 -3.5 -6t-5 0t-3.5 6l-41 181l-155 -98q-7 -4 -10 -1.5t1 9.5l97 155l-180 42q-4 1 -6 3.5t0 5t6 3.5l180 41l-97 156q-4 7 -1 9.5t10 -1.5l155 -99l41 181q1 4 3.5 6t5 0t3.5 -6l42 -181l155 99q7 4 9.5 1.5t-1.5 -9.5l-97 -156l181 -41
q4 -1 6 -3.5t0 -5t-6 -3.5l-181 -42l97 -155q4 -7 1.5 -9.5t-9.5 1.5z" />
    <glyph glyph-name="uni2764" unicode="&#x2764;" horiz-adv-x="587" 
d="M75 269q0 55 33 90.5t87 35.5q37 0 63.5 -18t36.5 -47q24 65 101 65q53 0 86 -35t33 -90q0 -71 -57 -132.5t-156 -100.5q-8 -3 -18 1q-99 40 -154 101t-55 130z" />
    <glyph glyph-name="uni2776" unicode="&#x2776;" 
d="M723 321q0 -145 -98 -240q-97 -93 -244 -93q-148 0 -245 93q-97 94 -97 240t97 239q97 94 245 94q147 0 244 -94q98 -95 98 -239zM373 429v-301h67v385h-60l-103 -64v-64l84 51q12 8 12 -7z" />
    <glyph glyph-name="uni2777" unicode="&#x2777;" 
d="M723 321q0 -145 -98 -240q-97 -93 -244 -93q-148 0 -245 93q-97 94 -97 240t97 239q97 94 245 94q147 0 244 -94q98 -95 98 -239zM254 176v-48h259v61h-142q-15 0 -5 12l85 88q55 56 55 118q0 51 -34 82t-90 31q-52 0 -88.5 -28t-41.5 -75l65 -8q3 23 19.5 36.5
t42.5 13.5q27 0 43.5 -15.5t16.5 -41.5q0 -36 -39 -77z" />
    <glyph glyph-name="uni2778" unicode="&#x2778;" 
d="M723 321q0 -145 -98 -240q-97 -93 -244 -93q-148 0 -245 93q-97 94 -97 240t97 239q97 94 245 94q147 0 244 -94q98 -95 98 -239zM380 122q61 0 100 35.5t39 91.5q0 44 -25.5 75t-67.5 40q-14 2 -4 12l79 79v58h-235v-58h134q7 0 8.5 -3.5t-3.5 -8.5l-80 -80l13 -45h9
q26 0 40 -2q30 -3 47.5 -20.5t17.5 -45.5q0 -30 -20 -49t-51 -19t-51 19t-20 50l-66 -13q4 -53 41.5 -84.5t94.5 -31.5z" />
    <glyph glyph-name="uni2779" unicode="&#x2779;" 
d="M723 321q0 -145 -98 -240q-97 -93 -244 -93q-148 0 -245 93q-97 94 -97 240t97 239q97 94 245 94q147 0 244 -94q98 -95 98 -239zM217 284v-51h176q10 0 10 -10v-95h64v95q0 10 10 10h56v56h-56q-10 0 -10 10v214h-86zM393 289h-88q-15 0 -6 12l92 129q4 6 8 4.5t4 -8.5
v-127q0 -10 -10 -10z" />
    <glyph glyph-name="uni277A" unicode="&#x277a;" 
d="M723 321q0 -145 -98 -240q-97 -93 -244 -93q-148 0 -245 93q-97 94 -97 240t97 239q97 94 245 94q147 0 244 -94q98 -95 98 -239zM379 123q61 0 101.5 36.5t40.5 93.5q0 55 -37 91q-37 37 -93 37q-31 0 -51 -10q-6 -2 -9 -0.5t-2 8.5l14 67q1 9 11 9h148v58h-208
l-45 -211l64 -7q23 30 67 30q33 0 53 -20t20 -51q0 -32 -21 -52t-53 -20q-30 0 -49.5 17t-21.5 46l-66 -12q7 -50 45 -80t92 -30z" />
    <glyph glyph-name="uni277B" unicode="&#x277b;" 
d="M723 321q0 -145 -98 -240q-97 -93 -244 -93q-148 0 -245 93q-97 94 -97 240t97 239q97 94 245 94q147 0 244 -94q98 -95 98 -239zM383 122q64 0 105 38t41 96q0 56 -38.5 92t-96.5 36q-11 0 -14 -1q-7 -1 -9 2t2 9l82 119h-73l-89 -130q-51 -73 -51 -129q0 -57 39 -94.5
t102 -37.5zM384 182q-32 0 -53 20t-21 52t22 52t55 20q32 0 53 -20t21 -52t-22 -52t-55 -20z" />
    <glyph glyph-name="uni277C" unicode="&#x277c;" 
d="M723 321q0 -145 -98 -240q-97 -93 -244 -93q-148 0 -245 93q-97 94 -97 240t97 239q97 94 245 94q147 0 244 -94q98 -95 98 -239zM430 443l-146 -315h73l153 332v53h-256v-58h168q12 0 8 -12z" />
    <glyph glyph-name="uni277D" unicode="&#x277d;" 
d="M723 321q0 -145 -98 -240q-97 -93 -244 -93q-148 0 -245 93q-97 94 -97 240t97 239q97 94 245 94q147 0 244 -94q98 -95 98 -239zM382 123q61 0 100 32t39 83q0 61 -50 90q-10 4 -1 12q38 29 38 76q0 45 -35.5 74.5t-90.5 29.5q-56 0 -91.5 -29.5t-35.5 -74.5
q0 -46 37 -76q9 -8 -1 -12q-49 -28 -49 -89q0 -53 39 -84.5t101 -31.5zM321 411q0 22 17 36t43 14q27 0 44 -14t17 -36q3 -32 -28.5 -45.5t-63 0t-29.5 45.5zM381 182q-30 0 -50.5 17t-20.5 43q0 27 20 43t52 16q31 0 51 -16t20 -43t-20.5 -43.5t-51.5 -16.5z" />
    <glyph glyph-name="uni277E" unicode="&#x277e;" horiz-adv-x="646" 
d="M723 321q0 -145 -98 -240q-97 -93 -244 -93q-148 0 -245 93q-97 94 -97 240t97 239q97 94 245 94q147 0 244 -94q98 -95 98 -239zM398 248l-84 -120h74l88 131q52 74 52 129q0 57 -39 94.5t-102 37.5q-62 0 -105 -38q-41 -38 -41 -97q0 -56 38 -92t96 -36h25q2 -2 -2 -9z
M383 315q-31 0 -53 20t-22 52t22 51.5t55 19.5t54 -19t21 -51t-22 -52.5t-55 -20.5z" />
    <glyph glyph-name="uni27A1" unicode="&#x27a1;" horiz-adv-x="727" 
d="M665 241l-199 -183q-4 -4 -8 -2t-4 8v92h-351q-10 0 -10 10v163q0 10 10 10h351v95q0 6 4 8t8 -2l199 -185q8 -7 0 -14z" />
    <glyph glyph-name="uni2B05" unicode="&#x2b05;" horiz-adv-x="727" 
d="M273 156v-92q0 -15 -12 -6l-200 183q-8 7 0 14l200 185q12 9 12 -6v-95h350q10 0 10 -10v-163q0 -10 -10 -10h-350z" />
    <glyph glyph-name="uni2B06" unicode="&#x2b06;" horiz-adv-x="537" 
d="M276 611l183 -199q9 -12 -6 -12h-92v-351q0 -10 -10 -10h-163q-10 0 -10 10v351h-95q-15 0 -6 12l185 199q7 8 14 0z" />
    <glyph glyph-name="uni2B07" unicode="&#x2b07;" horiz-adv-x="537" 
d="M361 248h92q15 0 6 -12l-183 -200q-7 -8 -14 0l-185 200q-9 12 6 12h95v350q0 10 10 10h163q10 0 10 -10v-350z" />
    <glyph glyph-name="uni3020" unicode="&#x3020;" horiz-adv-x="934" 
d="M153 587h628q10 0 10 -10v-56q0 -10 -10 -10h-628q-10 0 -10 10v56q0 10 10 10zM495 169h-56q-10 0 -10 10v211h-276q-10 0 -10 10v56q0 10 10 10h628q10 0 10 -10v-56q0 -10 -10 -10h-276v-211q0 -10 -10 -10zM209 265v10q0 10 10 10h19q3 12 13 22l-12 18q-5 8 2 14
l8 6q8 8 14 -2l14 -20q14 2 17 2q11 0 20 -3l14 21q6 10 14 2l8 -6q8 -6 3 -14l-14 -20q6 -9 10 -20h23q10 0 10 -10v-10q0 -10 -10 -10h-23q-12 -41 -55 -41q-44 0 -56 41h-19q-10 0 -10 10zM715 255h-23q-12 -41 -55 -41q-44 0 -56 41h-19q-10 0 -10 10v10q0 10 10 10h19
q3 12 13 22l-12 18q-5 8 2 14l8 6q8 8 14 -2l14 -20q14 2 17 2q11 0 20 -3l14 21q6 10 14 2l8 -6q7 -6 2 -14l-14 -20q9 -12 11 -20h23q10 0 10 -10v-10q0 -10 -10 -10zM769 318v11q0 10 10 10q44 -4 69.5 -32.5t25.5 -72.5q0 -41 -26.5 -70.5t-65.5 -34.5
q-38 -73 -124 -116t-191 -43t-191 43t-124 116q-39 5 -65.5 34.5t-26.5 70.5q0 44 25.5 72.5t69.5 32.5q10 0 10 -10v-11q0 -10 -10 -11q-24 -3 -39.5 -23t-15.5 -50q0 -32 19 -53.5t56 -24.5q8 0 11 -7q32 -64 108 -101q79 -38 173 -38t172 38q77 37 109 101q3 7 11 7
q37 3 56 24.5t19 53.5q0 30 -15.5 50t-39.5 23q-10 1 -10 11zM294 298q-28 0 -28 -28q0 -13 7.5 -21t20.5 -8q21 -2 26 22q4 24 -13 33q-6 3 -13 2zM637 241q21 -2 26 22q4 24 -13 33q-6 3 -13 2q-28 0 -28 -28q0 -13 7.5 -21t20.5 -8zM642 156l13 -15q6 -8 -1 -14
q-80 -66 -187 -66t-187 66q-7 6 -1 14l13 15q6 7 14 1q71 -56 161 -56t161 56q8 6 14 -1z" />
    <glyph glyph-name="uni33C7" unicode="&#x33c7;" horiz-adv-x="436" 
d="M68 500q0 68 43.5 111t113.5 43q44 0 80.5 -20t51.5 -55q5 -9 -6 -12l-42 -16q-9 -3 -13 6q-19 36 -74 36q-40 0 -64 -26t-24 -67t24.5 -68t63.5 -27q53 0 74 40q4 9 13 6l42 -15q11 -3 6 -12q-16 -35 -51.5 -56t-80.5 -21q-71 0 -114 43t-43 110zM217 295q71 0 118 -45
q46 -45 46 -109q0 -66 -46 -109q-47 -44 -118 -44q-69 0 -116 44q-45 43 -45 109q0 65 45 109q47 45 116 45zM124 141q0 -40 26.5 -67t66.5 -27q42 0 69 27t27 67q0 39 -27.5 66.5t-68.5 27.5q-40 0 -66.5 -26.5t-26.5 -67.5z" />
    <glyph glyph-name="uni5350" unicode="&#x5350;" horiz-adv-x="977" 
d="M816 676v-57q0 -10 -10 -10h-277v-228h277q10 0 10 -10v-361q0 -10 -10 -10h-59q-10 0 -10 10v295h-208v-295q0 -10 -10 -10h-348q-10 0 -10 10v57q0 10 10 10h277v228h-277q-10 0 -10 10v361q0 10 10 10h58q10 0 10 -10v-295h209v295q0 10 10 10h348q10 0 10 -10z" />
    <glyph glyph-name="NULL" horiz-adv-x="0" 
 />
    <glyph glyph-name="CR" horiz-adv-x="333" 
 />
    <glyph glyph-name="G.ss01" horiz-adv-x="724" 
d="M610 566l-31 -50q-6 -10 -14 -2q-83 62 -189 62q-113 0 -182 -71q-68 -71 -68 -188q0 -114 64 -182q64 -69 170 -69q63 0 120.5 23.5t90.5 62.5v136h-258q-10 0 -10 10v53q0 10 10 10h330q10 0 10 -10v-231q0 -7 -5 -12q-48 -56 -125.5 -88t-163.5 -32q-143 0 -232 89
q-88 89 -88 237q0 152 93 246t242 94q136 0 234 -74q7 -6 2 -14z" />
    <glyph glyph-name="A.ss04" horiz-adv-x="663" 
d="M296 641h69q8 0 11 -8l271 -621q5 -12 -8 -12h-615q-12 0 -8 12l269 621q3 8 11 8zM331 536l-198 -459h392z" />
    <glyph glyph-name="K.ss04" horiz-adv-x="617" 
d="M511 641h77q14 0 7 -12l-208 -308l208 -309q3 -4 1 -8t-8 -4h-77q-7 0 -12 6l-163 243l-162 -243q-4 -6 -12 -6h-76q-10 0 -10 10v621q0 10 10 10h76q8 0 12 -6l162 -243l163 243q5 6 12 6zM157 513v-385l130 192z" />
    <glyph glyph-name="Q.ss04" horiz-adv-x="739" 
d="M412 -10v-134h189q10 0 10 -10v-53q0 -10 -10 -10h-463q-10 0 -10 10v53q0 10 10 10h190v134q-125 13 -208 105q-81 91 -81 225q0 145 94 239q95 95 237 95q140 0 235 -95t95 -239q0 -134 -82 -225q-81 -91 -206 -105zM127 320q0 -111 69 -183q71 -71 174 -71t172 71
q69 72 69 183q0 112 -69 183t-172 71t-174 -71q-69 -71 -69 -183z" />
    <glyph glyph-name="R.ss04" horiz-adv-x="556" 
d="M294 278l219 -266q9 -12 -6 -12h-81q-8 0 -13 6l-253 314v-310q0 -10 -10 -10h-64q-10 0 -10 10v437q0 96 58 151q59 56 150 56q88 0 144 -53q57 -53 57 -137q0 -82 -54 -135t-137 -51zM280 343q54 0 86.5 30.5t32.5 84.5t-32.5 86.5t-86.5 32.5q-53 0 -85.5 -32.5
t-32.5 -86.5q0 -53 32 -84t86 -31z" />
    <glyph glyph-name="S.ss04" horiz-adv-x="544" 
d="M283 0h-215q-10 0 -10 10v57q0 10 10 10h215q61 0 94.5 25t33.5 68q0 62 -42 82q-19 11 -30 15l-15 6q-1 0 -8.5 2t-14.5 4l-7 2l-70 20l-50 14q-7 2 -44 19q-31 15 -44 30q-37 46 -37 110q0 78 55 122.5t149 44.5h204q10 0 10 -10v-57q0 -10 -10 -10h-206q-54 0 -84 -24
t-30 -65q0 -49 33 -71q31 -17 77 -29l12 -3l64 -17q30 -8 44 -13q15 -4 45 -20q28 -13 45 -32q43 -49 43 -120q0 -81 -57 -125.5t-160 -44.5z" />
    <glyph glyph-name="Y.ss04" horiz-adv-x="545" 
d="M529 629l-213 -365v-188h129q10 0 10 -10v-56q0 -10 -10 -10h-342q-10 0 -10 10v56q0 10 10 10h129v188l-216 365q-7 12 7 12h75q8 0 12 -7l164 -289l165 289q4 7 12 7h71q14 0 7 -12z" />
    <glyph glyph-name="Z.ss04" horiz-adv-x="490" 
d="M440 0h-389q-10 0 -10 10v41q0 7 5 12l236 221h-199q-10 0 -10 10v41q0 7 5 12l232 221h-249q-10 0 -10 10v53q0 10 10 10h369q10 0 10 -10v-42q0 -7 -5 -12l-236 -220h199q10 0 10 -10v-43q0 -7 -5 -12l-236 -218h273q10 0 10 -10v-54q0 -10 -10 -10z" />
    <glyph glyph-name="i.loclTRK" horiz-adv-x="223" 
d="M60 549q0 22 14.5 36.5t36.5 14.5t36.5 -14.5t14.5 -36.5q0 -21 -14.5 -35t-36.5 -14t-36.5 14t-14.5 35zM70 10v421q0 10 10 10h63q10 0 10 -10v-421q0 -10 -10 -10h-63q-10 0 -10 10z" />
    <glyph glyph-name="k.001" horiz-adv-x="516" 
d="M541 578h78q7 0 8.5 -3.5t-3.5 -8.5l-319 -304l177 -250q4 -4 2 -8t-8 -4h-73q-7 0 -12 6l-144 201l-94 -89v-108q0 -10 -10 -10h-63q-10 0 -10 10v621q0 10 10 10h63q10 0 10 -10v-412l376 354q5 5 12 5z" />
    <glyph glyph-name="germandbls.ss01" horiz-adv-x="545" 
d="M366 383q63 -14 102 -65t39 -122q0 -92 -64 -147q-64 -56 -166 -56q-30 0 -51 4q-9 1 -9 11v53q0 11 11 9q15 -4 44 -4q69 0 109.5 37.5t40.5 100.5q0 64 -41 99.5t-109 35.5h-9q-10 0 -10 10v53q0 10 10 10h3q49 0 79 29t30 76q0 51 -30 79.5t-81 28.5q-53 0 -82 -34
t-29 -92v-490q0 -10 -10 -10h-63q-10 0 -10 10v492q0 90 54.5 144t146.5 54q82 0 135 -47t53 -123q0 -49 -25 -88t-68 -58z" />
    <glyph glyph-name="zero.tf" horiz-adv-x="602" 
d="M314 653q111 0 172.5 -88t61.5 -245q0 -156 -61.5 -243t-172.5 -87t-172 87t-61 243q0 157 61 245t172 88zM315 575q-72 0 -110 -65.5t-38 -189.5q0 -56 7 -92l261 259q-37 88 -120 88zM315 65q71 0 109 66.5t38 188.5q0 56 -7 94l-261 -260q38 -89 121 -89z" />
    <glyph glyph-name="one.tf" horiz-adv-x="602" 
d="M341 632v-554h165q10 0 10 -10v-58q0 -10 -10 -10h-416q-10 0 -10 10v58q0 10 10 10h168v475l-138 -80q-12 -7 -12 7v56q0 8 7 12l145 90q7 4 13 4h58q10 0 10 -10z" />
    <glyph glyph-name="two.tf" horiz-adv-x="617" 
d="M402 262l-178 -184h287q10 0 10 -10v-58q0 -10 -10 -10h-398q-10 0 -10 10v45q0 7 5 12l240 249q76 79 76 150q0 49 -32 79.5t-85 30.5q-47 0 -78.5 -23.5t-40.5 -62.5q-3 -9 -12 -8l-61 9q-11 2 -8 11q13 69 67.5 110t134.5 41q89 0 145 -51q55 -49 55 -132
q0 -56 -24.5 -103t-82.5 -105z" />
    <glyph glyph-name="three.tf" horiz-adv-x="602" 
d="M494 557l-163 -162q88 -6 141.5 -60t53.5 -138q0 -91 -63 -149q-62 -58 -161 -58q-88 0 -149 50q-59 50 -67 134q-1 10 8 12l63 11q11 2 11 -9q4 -55 41.5 -89t93.5 -34q61 0 100 37.5t39 97.5q0 53 -31.5 87t-84.5 41q-22 3 -68 3h-8q-9 0 -12 8l-14 43q-1 7 4 14
l171 171h-266q-10 0 -10 10v54q0 10 10 10h356q10 0 10 -10v-62q0 -7 -5 -12z" />
    <glyph glyph-name="four.tf" horiz-adv-x="638" 
d="M462 631v-374h101q10 0 10 -10v-51q0 -10 -10 -10h-101v-176q0 -10 -10 -10h-61q-10 0 -10 10v176h-306q-10 0 -10 10v48q0 9 4 13l276 378q5 6 13 6h94q10 0 10 -10zM381 564l-223 -307h223v307z" />
    <glyph glyph-name="five.tf" horiz-adv-x="601" 
d="M322 412q91 0 152 -59q60 -59 60 -150q0 -94 -65 -154q-65 -59 -162 -59q-86 0 -146 48t-71 125q-2 11 9 12l61 11q10 2 11 -8q7 -52 44 -82.5t92 -30.5q63 0 102 38t39 100t-38 100t-101 38q-78 0 -122 -54q-6 -6 -13 -5l-62 9q-9 2 -8 12l66 329q2 9 11 9h318
q10 0 10 -10v-54q0 -10 -10 -10h-262l-38 -191q49 36 123 36z" />
    <glyph glyph-name="six.tf" horiz-adv-x="602" 
d="M318 417q94 0 156 -59t62 -151q0 -95 -66 -156q-64 -61 -167 -61q-101 0 -162 60t-61 154q0 39 14 84q16 46 28 65l36 57l149 225q5 6 12 6h69q14 0 7 -12l-151 -224q32 12 74 12zM306 65q64 0 104 40q42 41 42 102q0 60 -40 98.5t-101 38.5q-64 0 -105.5 -39t-41.5 -101
t39.5 -100.5t102.5 -38.5z" />
    <glyph glyph-name="seven.tf" horiz-adv-x="615" 
d="M108 577v54q0 10 10 10h392q10 0 10 -10v-51q0 -4 -3 -12l-259 -561q-3 -7 -11 -7h-70q-13 0 -8 12l257 555h-308q-10 0 -10 10z" />
    <glyph glyph-name="eight.tf" horiz-adv-x="601" 
d="M422 341q52 -19 81.5 -63t29.5 -100q0 -84 -65 -137q-64 -51 -161 -51q-98 0 -162 52t-64 137q0 56 29.5 98.5t80.5 63.5q-41 20 -64.5 58t-23.5 85q0 74 57 121q57 48 147 48q91 0 146 -48q57 -47 57 -122q0 -47 -24 -85t-64 -57zM186 478q0 -45 33.5 -73.5t88.5 -28.5
q54 0 86 28q34 28 34 73t-34 72q-34 28 -88 28t-87 -27.5t-33 -71.5zM307 65q59 0 100 32q41 33 41 87t-40 85t-101 31q-62 0 -101.5 -31t-39.5 -85t41 -87q41 -32 100 -32z" />
    <glyph glyph-name="nine.tf" horiz-adv-x="602" 
d="M310 652q102 0 163 -60q62 -60 62 -155q0 -41 -15 -84q-13 -41 -27 -64l-36 -57l-149 -226q-4 -6 -12 -6h-70q-6 0 -8 4t1 8l152 223q-32 -12 -74 -12q-95 0 -157 59t-62 151q0 95 66 157q67 62 166 62zM162 435q0 -62 39.5 -100t102.5 -38t104.5 39t41.5 101t-40 100
t-102 38q-64 0 -105 -39.5t-41 -100.5z" />
    <glyph glyph-name="zero.tf.ss01" horiz-adv-x="602" 
d="M81 320q0 157 61 245t172 88t172.5 -88t61.5 -245q0 -156 -61.5 -243t-172.5 -87t-172 87t-61 243zM315 65q71 0 109 66.5t38 188.5t-38 188.5t-109 66.5q-72 0 -110 -65.5t-38 -189.5q0 -123 38 -189t110 -66zM315 266q-24 0 -40.5 16.5t-16.5 38.5q0 23 16.5 39.5
t40.5 16.5q23 0 39.5 -16.5t16.5 -39.5q0 -22 -16.5 -38.5t-39.5 -16.5z" />
    <glyph glyph-name="zero.dnom" horiz-adv-x="408" 
d="M204 -8q-86 0 -134 66.5t-48 181.5q0 117 48 183.5t134 66.5t134.5 -67.5t48.5 -182.5q0 -116 -49 -182t-134 -66zM304 240q0 176 -100 176t-100 -176q0 -84 26 -130t74 -46t74 46t26 130z" />
    <glyph glyph-name="one.dnom" horiz-adv-x="266" 
d="M141 395l-106 -60q-12 -7 -12 7v52q0 8 7 12l114 71q7 4 13 4h54q10 0 10 -10v-461q0 -10 -10 -10h-60q-10 0 -10 10v385z" />
    <glyph glyph-name="two.dnom" horiz-adv-x="378" 
d="M275 202l-123 -128h190q10 0 10 -10v-54q0 -10 -10 -10h-301q-10 0 -10 10v41q0 7 5 12l177 182q51 53 51 98q0 34 -21.5 54t-56.5 20q-62 0 -77 -56q-3 -9 -12 -8l-58 8q-11 2 -8 11q10 53 53 85.5t106 32.5q69 0 111.5 -38.5t42.5 -103.5q0 -76 -69 -146z" />
    <glyph glyph-name="three.dnom" horiz-adv-x="397" 
d="M342 406l-110 -110q62 -5 100 -45t38 -101q0 -69 -49 -114q-50 -44 -124 -44q-69 0 -115 37.5t-53 99.5q-2 10 8 11l59 11q10 1 12 -9q3 -35 28.5 -56.5t61.5 -21.5q40 0 65.5 24.5t25.5 63.5q0 37 -21.5 59t-58.5 26q-42 2 -52 2h-3q-8 0 -11 8l-12 38q-3 7 4 14
l114 112h-183q-10 0 -10 10v50q0 10 10 10h271q10 0 10 -10v-53q0 -7 -5 -12z" />
    <glyph glyph-name="four.dnom" horiz-adv-x="434" 
d="M332 471v-272h71q10 0 10 -10v-47q0 -10 -10 -10h-71v-122q0 -10 -10 -10h-58q-10 0 -10 10v122h-223q-10 0 -10 10v44q0 9 4 13l198 276q5 6 12 6h87q10 0 10 -10zM254 406l-147 -207h147v207z" />
    <glyph glyph-name="five.dnom" horiz-adv-x="406" 
d="M215 315q69 0 116 -45q46 -45 46 -114q0 -72 -51 -118q-50 -45 -125 -45q-66 0 -112 35t-57 92q-2 10 9 12l58 11q10 2 11 -8q6 -33 30 -51.5t60 -18.5q42 0 68.5 25t26.5 66q0 40 -26 65.5t-68 25.5q-52 0 -79 -32q-6 -6 -13 -5l-60 7q-10 1 -8 11l52 244q1 9 11 9h240
q10 0 10 -10v-50q0 -10 -10 -10h-188l-24 -117q32 21 83 21z" />
    <glyph glyph-name="six.dnom" horiz-adv-x="413" 
d="M217 318q73 0 119 -45q48 -43 48 -114q0 -73 -51 -120q-52 -47 -130 -47q-80 0 -127 46q-48 46 -48 118q0 69 64 160l107 159q5 6 12 6h65q14 0 7 -12l-108 -156q18 5 42 5zM205 64q42 0 70.5 26t28.5 67t-27.5 66.5t-68.5 25.5q-42 0 -70 -26t-28 -67t26.5 -66.5
t68.5 -25.5z" />
    <glyph glyph-name="seven.dnom" horiz-adv-x="339" 
d="M10 421v50q0 10 10 10h299q10 0 10 -10v-47q0 -4 -3 -12l-187 -405q-3 -7 -11 -7h-66q-12 0 -8 12l187 399h-221q-10 0 -10 10z" />
    <glyph glyph-name="eight.dnom" horiz-adv-x="400" 
d="M296 256q36 -14 57 -46t21 -73q0 -64 -50 -105q-50 -39 -124 -39q-77 0 -125.5 40t-48.5 105q0 41 20.5 72.5t55.5 45.5q-60 34 -60 105q0 56 44 92q44 37 114 37q69 0 113 -36.5t44 -93.5q0 -73 -61 -104zM199 419q-33 3 -55.5 -18t-21.5 -47t22 -48q25 -17 56 -18
t56.5 18t22.5 47q0 30 -22 48t-58 18zM200 64q40 0 66 21t26 56t-26 56t-66 21t-66 -20.5t-26 -55.5t26 -56.5t66 -21.5z" />
    <glyph glyph-name="nine.dnom" horiz-adv-x="414" 
d="M210 489q78 0 126.5 -46t48.5 -118q0 -31 -12 -64q-11 -34 -21 -49l-30 -47l-107 -159q-5 -6 -12 -6h-65q-6 0 -8 4t1 8l108 155q-25 -5 -42 -5q-72 0 -120 45t-48 115q0 74 51 120q53 47 130 47zM206 232q42 0 70 25.5t28 66.5t-27 66.5t-69 25.5t-70 -25.5t-28 -66.5
t27 -66.5t69 -25.5z" />
    <glyph glyph-name="zero.numr" horiz-adv-x="408" 
d="M204 197q-86 0 -134 66.5t-48 181.5q0 117 48 183.5t134 66.5t134.5 -67.5t48.5 -182.5q0 -116 -49 -182t-134 -66zM304 445q0 176 -100 176t-100 -176q0 -84 26 -130t74 -46t74 46t26 130z" />
    <glyph glyph-name="one.numr" horiz-adv-x="266" 
d="M141 600l-106 -60q-12 -8 -12 7v52q0 8 7 12l114 71q7 4 13 4h54q10 0 10 -10v-461q0 -10 -10 -10h-60q-10 0 -10 10v385z" />
    <glyph glyph-name="two.numr" horiz-adv-x="378" 
d="M275 407l-123 -128h190q10 0 10 -10v-54q0 -10 -10 -10h-301q-10 0 -10 10v41q0 7 5 12l177 182q51 52 51 98q0 34 -21.5 54t-56.5 20q-62 0 -77 -56q-3 -9 -12 -8l-58 8q-11 2 -8 11q10 53 53 85.5t106 32.5q69 0 111.5 -38.5t42.5 -103.5q0 -75 -69 -146z" />
    <glyph glyph-name="three.numr" horiz-adv-x="397" 
d="M342 611l-110 -110q62 -5 100 -45t38 -101q0 -69 -49 -114q-50 -44 -124 -44q-69 0 -115 37t-53 99q-1 10 8 12l59 11q10 2 12 -9q3 -35 28.5 -56.5t61.5 -21.5q40 0 65.5 24.5t25.5 63.5q0 37 -21.5 59t-58.5 26q-42 2 -52 2h-3q-8 0 -11 8l-12 38q-3 7 4 14l114 112
h-183q-10 0 -10 10v50q0 10 10 10h271q10 0 10 -10v-53q0 -7 -5 -12z" />
    <glyph glyph-name="four.numr" horiz-adv-x="434" 
d="M332 676v-272h71q10 0 10 -10v-47q0 -10 -10 -10h-71v-122q0 -10 -10 -10h-58q-10 0 -10 10v122h-223q-10 0 -10 10v44q0 9 4 13l198 276q5 6 12 6h87q10 0 10 -10zM254 611l-147 -207h147v207z" />
    <glyph glyph-name="five.numr" horiz-adv-x="406" 
d="M215 520q69 0 116 -45q46 -45 46 -114q0 -71 -51 -118q-50 -45 -125 -45q-66 0 -112 35t-57 92q-2 11 9 12l58 11q10 2 11 -8q6 -33 30 -51.5t60 -18.5q42 0 68.5 25t26.5 66q0 40 -26 65.5t-68 25.5q-52 0 -79 -32q-6 -6 -13 -5l-60 7q-10 1 -8 11l52 244q1 9 11 9h240
q10 0 10 -10v-50q0 -10 -10 -10h-188l-24 -117q32 21 83 21z" />
    <glyph glyph-name="six.numr" horiz-adv-x="413" 
d="M217 523q73 0 119 -45q48 -44 48 -114q0 -74 -51 -120q-52 -47 -130 -47q-80 0 -127 46q-48 47 -48 118q0 69 64 160l107 159q5 6 12 6h65q6 0 8 -4t-1 -8l-108 -156q18 5 42 5zM205 269q42 0 70.5 26t28.5 67t-27.5 66.5t-68.5 25.5q-42 0 -70 -26t-28 -67t26.5 -66.5
t68.5 -25.5z" />
    <glyph glyph-name="seven.numr" horiz-adv-x="339" 
d="M10 626v50q0 10 10 10h299q10 0 10 -10v-47q0 -5 -3 -12l-187 -405q-3 -7 -11 -7h-66q-12 0 -8 12l187 399h-221q-10 0 -10 10z" />
    <glyph glyph-name="eight.numr" horiz-adv-x="400" 
d="M296 460q36 -14 57 -46t21 -73q0 -64 -50 -105q-50 -39 -124 -39q-77 0 -125.5 40t-48.5 105q0 41 20.5 72.5t55.5 45.5q-60 34 -60 105q0 56 44 92q44 37 114 37q69 0 113 -36.5t44 -93.5q0 -73 -61 -104zM199 623q-33 3 -55.5 -18t-21.5 -47t22 -48q25 -17 56 -18
t56.5 18t22.5 47q0 30 -22 48t-58 18zM200 268q40 0 66 21t26 56t-26 56t-66 21t-66 -20.5t-26 -55.5t26 -56.5t66 -21.5z" />
    <glyph glyph-name="nine.numr" horiz-adv-x="414" 
d="M210 689q78 0 127 -47q48 -46 48 -117q0 -69 -63 -160l-107 -159q-5 -6 -12 -6h-65q-6 0 -8 4t1 8l107 154q-20 -5 -41 -5q-72 0 -120 45q-48 46 -48 115q0 73 51 120q52 48 130 48zM110 524q0 -41 27 -66.5t69 -25.5t70 25.5t28 66.5t-27 66t-69 25q-43 0 -70.5 -25
t-27.5 -66z" />
    <glyph glyph-name="comma.ss01" horiz-adv-x="198" 
d="M13 -94l38 188q1 9 11 9h76q12 0 8 -12l-84 -188q-3 -8 -11 -8h-29q-11 0 -9 11z" />
    <glyph glyph-name="semicolon.ss01" horiz-adv-x="264" 
d="M148 321q-25 0 -44.5 18.5t-19.5 43.5t19 44t45 19t45 -19t19 -44t-19 -43.5t-45 -18.5zM93 -105h-30q-11 0 -9 11l39 188q1 9 11 9h76q12 0 8 -12l-84 -188q-3 -8 -11 -8z" />
    <glyph glyph-name="question.ss01" horiz-adv-x="499" 
d="M248 653q83 0 132.5 -45t49.5 -118q0 -74 -60 -132q-8 -8 -28.5 -27t-31 -30.5t-24.5 -28t-20 -32.5t-7 -33v-7q0 -10 -10 -10h-58q-10 0 -10 10v7q0 73 58 126q6 5 28.5 25.5t31 30t22.5 27t19.5 34.5t5.5 35q0 43 -28 69.5t-74 26.5q-43 0 -72.5 -21t-39.5 -57
q-1 -10 -12 -7l-54 16q-9 3 -7 11q16 59 67 94.5t122 35.5zM224 122q28 0 48 -19.5t20 -48.5t-20 -47.5t-48 -18.5q-30 0 -50 18.5t-20 47.5t20.5 48.5t49.5 19.5z" />
    <glyph glyph-name="questiondown.ss01" horiz-adv-x="500" 
d="M204 488q0 28 19.5 46.5t47.5 18.5t48 -19t20 -46q0 -29 -20 -47.5t-48 -18.5t-47.5 18.5t-19.5 47.5zM365 37q3 10 12 7l51 -15q9 -3 7 -12q-17 -60 -67.5 -94.5t-121.5 -34.5q-81 0 -131 45.5t-50 117.5q0 40 17 74t41.5 58.5t49 47.5t42.5 49.5t19 55.5v7q0 10 10 10
h58q10 0 10 -10v-7q0 -39 -17 -71t-41.5 -55t-49 -45t-41.5 -50t-17 -60q0 -44 29 -71t76 -27q44 0 74 21.5t40 58.5z" />
    <glyph glyph-name="period.tf" horiz-adv-x="247" 
d="M58 51q0 28 18 46.5t47 18.5t47.5 -19t18.5 -46t-18.5 -45t-47.5 -18t-47 18t-18 45z" />
    <glyph glyph-name="parenleft.case" horiz-adv-x="252" 
d="M243 -39q9 -12 -6 -12h-49q-7 0 -13 6q-54 74 -86 169q-33 97 -33 196q0 96 32 195q33 97 87 169q6 6 13 6h49q15 0 7 -12q-104 -157 -104 -360q0 -103 29 -199q28 -91 74 -158z" />
    <glyph glyph-name="parenright.case" horiz-adv-x="252" 
d="M62 -51h-47q-15 0 -6 12q46 66 74 159q29 96 29 198q0 97 -27.5 192t-76.5 168q-8 12 7 12h47q7 0 13 -6q57 -74 89 -170.5t32 -193.5t-33 -194t-88 -171q-6 -6 -13 -6z" />
    <glyph glyph-name="braceleft.case" horiz-adv-x="291" 
d="M70 286q-10 0 -10 10v38q0 10 10 11q55 4 55 69v175q0 70 41 101t123 17q9 -1 9 -11v-41q0 -11 -11 -9q-51 9 -70 -10t-19 -65v-153q0 -79 -54 -103q54 -24 54 -102v-153q0 -46 19 -65t70 -10q11 2 11 -9v-42q0 -10 -9 -11q-82 -14 -123 17.5t-41 101.5v175q0 63 -55 69z
" />
    <glyph glyph-name="braceright.case" horiz-adv-x="291" 
d="M231 334v-38q0 -10 -10 -10q-55 -6 -55 -69v-175q0 -70 -41 -101.5t-123 -17.5q-9 1 -9 11v42q0 11 11 9q51 -9 70 10t19 65v153q0 78 54 102q-54 24 -54 103v153q0 46 -19 65t-70 10q-11 -2 -11 9v41q0 10 9 11q82 14 123 -17t41 -101v-175q0 -65 55 -69q10 -1 10 -11z
" />
    <glyph glyph-name="hyphen.case" horiz-adv-x="508" 
d="M67 270v54q0 10 10 10h354q10 0 10 -10v-54q0 -10 -10 -10h-354q-10 0 -10 10z" />
    <glyph glyph-name="endash.case" horiz-adv-x="870" 
d="M67 270v54q0 10 10 10h716q10 0 10 -10v-54q0 -10 -10 -10h-716q-10 0 -10 10z" />
    <glyph glyph-name="emdash.case" horiz-adv-x="1069" 
d="M67 270v54q0 10 10 10h915q10 0 10 -10v-54q0 -10 -10 -10h-915q-10 0 -10 10z" />
    <glyph glyph-name="guillemotleft.case" horiz-adv-x="472" 
d="M184 463h69q15 0 7 -12l-96 -168l96 -166q8 -12 -7 -12h-69q-8 0 -12 7l-95 164q-4 7 0 14l95 166q4 7 12 7zM358 463h68q14 0 7 -12l-95 -168l95 -166q7 -12 -7 -12h-68q-8 0 -12 7l-94 164q-4 7 0 14l94 166q4 7 12 7z" />
    <glyph glyph-name="guillemotright.case" horiz-adv-x="472" 
d="M46 463h69q8 0 12 -7l95 -166q4 -7 0 -14l-95 -164q-4 -7 -12 -7h-69q-14 0 -7 12l96 166l-96 168q-8 12 7 12zM221 463h68q8 0 12 -7l94 -166q4 -7 0 -14l-94 -164q-4 -7 -12 -7h-68q-15 0 -7 12l95 166l-95 168q-7 12 7 12z" />
    <glyph glyph-name="guilsinglleft.case" horiz-adv-x="295" 
d="M184 463h67q15 0 7 -12l-92 -168l92 -166q7 -12 -7 -12h-67q-8 0 -12 7l-95 164q-4 7 0 14l95 166q4 7 12 7z" />
    <glyph glyph-name="guilsinglright.case" horiz-adv-x="295" 
d="M44 463h66q8 0 12 -7l95 -166q4 -7 0 -14l-95 -164q-4 -7 -12 -7h-66q-14 0 -7 12l92 166l-92 168q-8 12 7 12z" />
    <glyph glyph-name="percent.tf" horiz-adv-x="600" 
d="M301 390q-60 0 -99 37t-39 95t39 95t99 37t98 -37q39 -37 39 -95t-39 -95q-38 -37 -98 -37zM378 521q0 35 -21 56t-56 21t-56.5 -21t-21.5 -56q0 -34 21.5 -54.5t56.5 -20.5t56 20.5t21 54.5zM470 297h-341q-10 0 -10 10v27q0 10 10 10h341q10 0 10 -10v-27
q0 -10 -10 -10zM301 -12q-60 0 -99 37t-39 95t39 95t99 37t98 -37q39 -37 39 -95t-39 -95q-38 -37 -98 -37zM378 119q0 35 -21 56t-56 21t-56.5 -21t-21.5 -56q0 -34 21.5 -54.5t56.5 -20.5t56 20.5t21 54.5z" />
    </font>
</defs>
</svg>
