<svg xmlns="http://www.w3.org/2000/svg" width="2110.21" height="398.652" viewBox="0 0 2110.21 398.652">
  <g id="circles" transform="translate(53.21 -2348)">
    <circle id="Ellipse_4" data-name="Ellipse 4" cx="137" cy="137" r="137" transform="translate(1783 2348)" fill="#f32a5b"/>
    <path id="Ellipse_4_copy" data-name="Ellipse 4 copy" d="M1753.083,2508.063a39.98,39.98,0,1,1-46.915,31.556A39.98,39.98,0,0,1,1753.083,2508.063Z" fill="#f32a5b"/>
    <path id="Ellipse_4_copy_2" data-name="Ellipse 4 copy 2" d="M1798.6,2572.9a20.875,20.875,0,1,1-24.5,16.476A20.875,20.875,0,0,1,1798.6,2572.9Z" fill="#f32a5b"/>
    <path id="Ellipse_4_copy_3" data-name="Ellipse 4 copy 3" d="M1760.155,2593.555a10.766,10.766,0,1,1-12.633,8.5A10.765,10.765,0,0,1,1760.155,2593.555Z" fill="#f32a5b"/>
    <path id="Ellipse_4_copy_4" data-name="Ellipse 4 copy 4" d="M91.81,2539.175a77.716,77.716,0,1,1-106.171-28.512A77.82,77.82,0,0,1,91.81,2539.175Z" fill="#f32a5b"/>
    <path id="Ellipse_4_copy_4-2" data-name="Ellipse 4 copy 4" d="M47.722,2696.6a33.334,33.334,0,1,1-45.54-12.229A33.38,33.38,0,0,1,47.722,2696.6Z" fill="#f32a5b"/>
    <path id="Ellipse_4_copy_4-3" data-name="Ellipse 4 copy 4" d="M99.74,2669.846a19.04,19.04,0,1,1-26.011-6.986A19.065,19.065,0,0,1,99.74,2669.846Z" fill="#f32a5b"/>
  </g>
</svg>
