<svg xmlns="http://www.w3.org/2000/svg" width="1996.846" height="583.08" viewBox="0 0 1996.846 583.08">
  <g id="lines" transform="translate(53.201 -1599.733)">
    <path id="Rectangle_6_copy" data-name="Rectangle 6 copy" d="M-37.953,2173.761l1975.875-529.434a4.5,4.5,0,0,1,5.517,3.186l.052.195a4.5,4.5,0,0,1-3.185,5.517L-35.569,2182.658a4.5,4.5,0,0,1-5.517-3.185l-.052-.195A4.5,4.5,0,0,1-37.953,2173.761Z" fill="#232936" opacity="0.502"/>
    <path id="Rectangle_6_copy_3" data-name="Rectangle 6 copy 3" d="M-49.861,2129.321l1975.875-529.434a4.5,4.5,0,0,1,5.517,3.185l.052.2a4.5,4.5,0,0,1-3.185,5.517L-47.477,2138.218a4.5,4.5,0,0,1-5.517-3.185l-.052-.2A4.5,4.5,0,0,1-49.861,2129.321Z" fill="#232936" opacity="0.502"/>
    <path id="Rectangle_6_copy_2" data-name="Rectangle 6 copy 2" d="M-40.886,2148.709l1973.9-528.9a6.425,6.425,0,0,1,7.868,4.543l.074.278a6.424,6.424,0,0,1-4.543,7.868l-1973.9,528.9a6.424,6.424,0,0,1-7.868-4.543l-.074-.278A6.425,6.425,0,0,1-40.886,2148.709Z" fill="#f32a5b" opacity="0.502"/>
  </g>
</svg>
