<svg xmlns="http://www.w3.org/2000/svg" height="52" width="52" viewBox="-81 -24.675 702 148.05"><path d="M482.4 85V54.2h48V41.9h-48V13.8h56.2V1.4h-69.9v96H540V85zm-142-4.2L295.8 1.4h-19.2v96h13.7V18l44.6 79.4h19.2v-96h-13.7zM199.2 54.2h48V41.9h-48V13.8h56.2V1.4h-69.9v96h71.3V85h-57.6zm212.6-41.8h1.4c11.7 0 20.4 6.9 21.1 17.8H448C447.3 11.7 433.7 0 412.5 0c-20.7 0-34.3 12.3-34.3 27.4 0 15.1 8.9 23.9 24.3 27l15.4 3.2C428 59.7 433 64.2 433 72c0 7.8-7 14.4-19.9 14.4h-1.4c-14.4 0-24.5-6.9-24.5-19.9h-13.7c.7 21.2 15.1 32.2 37.7 32.2 21.2 0 35.5-10.4 35.5-27.3 0-15.6-9.6-24.4-26.2-27.7l-15.4-3c-8.1-1.6-13.2-6-13.2-13.4 0-8.5 8-14.9 19.9-14.9m-283.3 0h1.4c11.7 0 20.4 6.9 21.1 17.8h13.7C164 11.7 150.4 0 129.1 0c-20.7 0-34.3 12.3-34.3 27.4 0 15.1 8.9 23.9 24.3 27l15.4 3.2c10.1 2.1 15.1 6.6 15.1 14.4 0 7.8-7 14.4-19.9 14.4h-1.4c-14.4 0-24.5-6.9-24.5-19.9H90.1c.7 21.2 15.1 32.2 37.7 32.2 21.2 0 35.5-10.4 35.5-27.3 0-15.6-9.6-24.4-26.2-27.7l-15.4-3c-8.1-1.6-13.2-6-13.2-13.4.1-8.5 8-14.9 20-14.9m-90.1 0h1.4c11.7 0 20.4 6.9 21.1 17.8h13.7C73.9 11.7 60.3 0 39.1 0 18.4 0 4.8 12.4 4.8 27.5s8.9 23.9 24.3 27l15.4 3.2c10.1 2.1 15.1 6.6 15.1 14.4 0 7.8-7.1 14.3-20 14.3h-1.4c-14.4 0-24.5-6.9-24.5-19.9H0c.7 21.2 15.1 32.2 37.7 32.2 21.2 0 35.5-10.4 35.5-27.3 0-15.6-9.6-24.4-26.2-27.7l-15.4-3c-8.1-1.6-13.2-6-13.2-13.4.1-8.5 8.1-14.9 20-14.9"/></svg>