<svg xmlns="http://www.w3.org/2000/svg" height="52" width="52" viewBox="-27.9624 -11.254 242.3408 67.524"><path fill="#007dc6" d="M0 9.4472s4.6383 19.0063 5.3785 22.0913c.864 3.6007 2.4208 4.926 6.9093 4.0322L15.184 23.787c.734-2.927 1.2264-5.0138 1.6982-7.9913h.083c.3316 3.0068.8037 5.073 1.4078 8.0015 0 0 1.179 5.3495 1.7827 8.1593.6054 2.8087 2.29 4.579 6.6865 3.6152l6.901-26.1225h-5.5717l-2.356 11.294c-.6334 3.2875-1.2082 5.8563-1.6514 8.8638h-.0786c-.4027-2.9775-.915-5.4445-1.559-8.6475L20.0734 9.4492H14.268l-2.624 11.2203c-.7434 3.4095-1.4387 6.1627-1.8808 9.0682h-.08c-.4529-2.7362-1.056-6.1965-1.709-9.497 0 0-1.559-8.0252-2.106-10.7915L.0005 9.45zm53.115 0v26.1225h5.3048V9.446H53.115zm74.7125 0v19.271c0 2.657.5 4.5185 1.5698 5.6558.9347.9946 2.4741 1.6387 4.3188 1.6387 1.5684 0 3.1115-.2975 3.8387-.5684l-.0683-4.1455c-.5412.1332-1.1637.2398-2.0152.2398-1.807 0-2.413-1.1574-2.413-3.543v-7.373h4.62v-4.998h-4.62V9.4473h-5.231zM41.26 15.503c-3.2968 0-5.9138.9256-7.3403 1.75l1.044 3.5747c1.3055-.823 3.3842-1.5044 5.3525-1.5044 3.2587-.0083 3.7915 1.8427 3.7915 3.0298v.2807c-7.1008-.0106-11.586 2.4465-11.586 7.455 0 3.058 2.2832 5.9238 6.2535 5.9238 2.444 0 4.488-.9747 5.713-2.5365h.1201s.8112 3.3917 5.2803 2.0947c-.2348-1.4116-.311-2.9167-.311-4.7295v-6.9785c0-4.4477-1.8991-8.3597-8.3176-8.3597zm31.7325 0c-3.3195 0-4.8113 1.6822-5.7158 3.1095h-.0786V15.946h-5.0625v19.625h5.333V24.0617c0-.5395.0617-1.11.25-1.6064.4419-1.1588 1.52-2.5143 3.2413-2.5143 2.1518 0 3.1587 1.8193 3.1587 4.4448v11.185h5.3273V23.9223c0-.515.0706-1.1354.2222-1.5908.438-1.3181 1.6002-2.3907 3.2002-2.3907 2.1815 0 3.2285 1.7876 3.2285 4.877v10.753h5.331V24.0123c0-6.0957-3.0952-8.5092-6.5892-8.5092-1.5474 0-2.7688.388-3.873 1.066-.9282.5695-1.759 1.3787-2.4854 2.4442h-.0786c-.845-2.115-2.8275-3.5102-5.41-3.5102zm29.285 0c-3.296 0-5.9125.9256-7.3403 1.75l1.0454 3.5747c1.3043-.823 3.3843-1.5044 5.3515-1.5044 3.2565-.0083 3.7905 1.8427 3.7905 3.0298v.2807c-7.0997-.0106-11.5855 2.4465-11.5855 7.455 0 3.058 2.2845 5.9238 6.2568 5.9238 2.442 0 4.4867-.9747 5.7095-2.5365h.1206s.811 3.3917 5.2808 2.0947c-.2352-1.4116-.3106-2.9167-.3106-4.7295v-6.9785c0-4.4477-1.8996-8.3597-8.3187-8.3597zm22.1465 0c-2.0422 0-4.3655 1.3182-5.3408 4.144h-.1489v-3.7013h-4.8007v19.625h5.4727V25.5215c0-.5421.0329-1.0148.1187-1.4483.4047-2.105 2.0149-3.4507 4.3257-3.4507.6344 0 1.0884.0687 1.5796.1396v-5.1377c-.4118-.0832-.6935-.1216-1.206-.1216zM44.279 26.1115v2.4482c0 .3622-.0315.7358-.1318 1.0625-.4106 1.3598-1.8192 2.5088-3.58 2.5088-1.468 0-2.6343-.8332-2.6343-2.5958 0-2.696 2.9678-3.4412 6.3463-3.4237zm61.0175 0v2.4482c0 .3622-.0322.7358-.1318 1.0625-.4106 1.3598-1.8187 2.5088-3.5795 2.5088-1.4684 0-2.6348-.8332-2.6348-2.5958 0-2.696 2.9678-3.4412 6.3463-3.4237z"/><path fill="#ffc220" d="M166.36 0c-1.7126 0-3.0737.9563-3.0737 2.1206l1.04 11.7767c.1148.7096.984 1.2569 2.0347 1.2569 1.0528-.0014 1.9189-.5482 2.0361-1.2569l1.045-11.7767c0-1.1642-1.365-2.1205-3.08-2.1205zm-16.9488 9.4467c-.889.0211-1.899.6943-2.5414 1.8081-.8592 1.4833-.707 3.1408.2983 3.7223l10.7178 4.9912c.6695.249 1.5789-.2264 2.1054-1.1342v-.0005c.529-.9123.4881-1.9381-.0688-2.3931l-9.68-6.7895c-.2514-.1456-.5342-.2111-.8306-.2041zm33.8976 0c-.2963-.007-.5787.0585-.8296.2041l-9.6813 6.7895c-.5536.455-.5947 1.4808-.0684 2.3931l.0005.0005c.5286.9078 1.435 1.3833 2.1045 1.1343l10.7225-4.991c1.0095-.5815 1.1542-2.239.3008-3.7223-.6453-1.1139-1.657-1.787-2.546-1.808zm-25.0225 15.5378c-.1387-.0019-.2731.0195-.399.0669l-10.7177 4.9852c-1.0053.584-1.1575 2.2422-.2984 3.727.8566 1.4803 2.3665 2.184 3.372 1.6036l9.6808-6.7843c.557-.4605.598-1.486.0688-2.3974l.0044.002c-.4279-.7424-1.11-1.195-1.711-1.2032zm16.1522 0c-.6001.0082-1.281.4607-1.71 1.2031l.004-.002c-.5267.9114-.486 1.937.0678 2.3975l9.6813 6.7842c1.0036.5805 2.515-.1232 3.3755-1.6035.8533-1.4849.7087-3.143-.3008-3.727l-10.7193-4.9853c-.1258-.0473-.2599-.0687-.3984-.0668zm-8.08 4.8807c-1.049.0013-1.9161.5463-2.0307 1.254l-1.0401 11.7762c0 1.1662 1.3612 2.1206 3.0737 2.1206 1.7158 0 3.0795-.9544 3.0795-2.1206l-1.0424-11.7763c-.1173-.7076-.9834-1.2525-2.0362-1.2539h-.0039z"/></svg>